<?xml version="1.0" standalone="no"?>
<!DOCTYPE svg PUBLIC "-//W3C//DTD SVG 20010904//EN"
 "http://www.w3.org/TR/2001/REC-SVG-20010904/DTD/svg10.dtd">
<svg width="69.368" height="22.69" viewBox="0 0 69.368 22.69" xmlns="http://www.w3.org/2000/svg"><g id="svgGroup" stroke-linecap="round" fill-rule="evenodd" font-size="9pt" stroke="#000" stroke-width="0.25mm" fill="none" style="stroke:#000;stroke-width:0.25mm;fill:none"><path stroke="white" d="M 8.846 11.955 A 4.352 4.352 0 0 0 8.602 11.949 A 10.116 10.116 0 0 1 8.604 12.159 Q 8.604 13.222 8.374 14.063 A 4.383 4.383 0 0 1 7.74 15.445 A 2.906 2.906 0 0 1 6.35 16.538 A 3.39 3.39 0 0 1 5.175 16.733 Q 3.968 16.733 3.132 16.004 A 3.748 3.748 0 0 1 2.358 15.042 A 4.863 4.863 0 0 1 2.352 15.032 Q 1.677 13.859 1.471 11.985 A 16.362 16.362 0 0 1 1.38 10.201 A 17.738 17.738 0 0 1 1.411 9.143 A 14.379 14.379 0 0 1 1.599 7.51 Q 1.817 6.268 2.231 5.256 A 8.845 8.845 0 0 1 2.306 5.082 Q 2.909 3.735 3.807 2.967 A 3.954 3.954 0 0 1 4.307 2.6 A 2.89 2.89 0 0 1 5.842 2.151 A 4.328 4.328 0 0 1 5.898 2.151 Q 6.316 2.156 6.661 2.243 A 1.943 1.943 0 0 1 7.947 3.197 A 2.207 2.207 0 0 1 7.978 3.255 Q 8.528 4.309 8.349 6.659 Q 8.74 6.682 9.12 6.59 Q 9.351 6.533 9.518 6.452 A 1.071 1.071 0 0 0 9.706 6.337 A 14.908 14.908 0 0 0 9.712 6.185 Q 9.796 3.609 8.924 2.358 A 2.877 2.877 0 0 0 7.178 1.192 A 4.663 4.663 0 0 0 6.072 1.07 A 4.74 4.74 0 0 0 2.877 2.238 A 6.505 6.505 0 0 0 1.668 3.657 A 8.9 8.9 0 0 0 0.948 5.029 Q 0 7.28 0 10.454 Q 0 13.973 1.334 15.893 Q 2.147 17.063 3.37 17.52 A 4.925 4.925 0 0 0 5.106 17.814 Q 7.245 17.814 8.43 16.376 Q 9.244 15.388 9.564 13.774 A 11.07 11.07 0 0 0 9.752 12.179 A 4.141 4.141 0 0 0 9.603 12.118 Q 9.486 12.073 9.381 12.042 A 1.992 1.992 0 0 0 9.189 11.995 A 2.135 2.135 0 0 0 9.07 11.975 Q 8.966 11.962 8.846 11.955 Z M 42.171 20.217 A 8.144 8.144 0 0 0 42.333 19.838 Q 43.309 17.402 43.309 13.122 A 30.652 30.652 0 0 0 43.273 11.658 A 38.228 38.228 0 0 0 43.091 9.361 A 43.511 43.511 0 0 0 43.027 8.805 Q 42.927 7.985 42.805 7.253 A 25.067 25.067 0 0 0 42.527 5.831 Q 41.975 5.532 41.354 5.371 Q 40.733 5.21 40.112 5.21 Q 38.993 5.21 38.133 5.746 A 3.995 3.995 0 0 0 37.019 6.808 A 5.208 5.208 0 0 0 36.517 7.661 Q 36.158 8.427 35.994 9.377 A 10.139 10.139 0 0 0 35.857 11.098 Q 35.857 12.653 36.184 13.832 A 5.747 5.747 0 0 0 36.835 15.353 A 4.205 4.205 0 0 0 37.225 15.884 A 2.85 2.85 0 0 0 39.468 16.917 Q 40.319 16.917 40.929 16.376 A 2.925 2.925 0 0 0 41.294 15.983 Q 41.681 15.485 41.998 14.709 Q 41.919 17.049 41.547 18.617 A 8.324 8.324 0 0 1 41.147 19.884 Q 40.825 20.658 40.402 21.094 A 1.702 1.702 0 0 1 39.146 21.655 A 2.256 2.256 0 0 1 38.883 21.639 A 1.747 1.747 0 0 1 37.628 20.896 Q 37.076 20.137 36.823 18.435 A 4.969 4.969 0 0 0 36.673 18.483 A 5.618 5.618 0 0 0 36.214 18.665 A 4.197 4.197 0 0 0 35.999 18.768 A 5.016 5.016 0 0 0 35.581 19.01 A 7.947 7.947 0 0 0 35.628 19.255 Q 35.947 20.784 36.789 21.701 A 3.008 3.008 0 0 0 37.815 22.442 A 3.148 3.148 0 0 0 39.077 22.69 A 2.713 2.713 0 0 0 40.656 22.199 Q 41.141 21.864 41.55 21.299 A 6.421 6.421 0 0 0 42.171 20.217 Z M 29.478 17.889 A 1.561 1.561 0 0 0 29.647 17.837 Q 29.601 16.802 29.59 15.997 Q 29.583 15.493 29.58 14.873 A 181.159 181.159 0 0 1 29.578 14.088 A 2784.965 2784.965 0 0 1 29.578 13.599 Q 29.579 7.372 29.609 4.804 A 106.667 106.667 0 0 1 29.624 3.784 A 122.315 122.315 0 0 1 29.648 2.821 Q 29.692 1.33 29.762 0.38 Q 29.601 0.334 29.429 0.311 A 2.503 2.503 0 0 0 29.418 0.309 A 2.703 2.703 0 0 0 29.072 0.288 A 1.604 1.604 0 0 0 28.907 0.296 A 1.984 1.984 0 0 0 28.681 0.334 A 1.509 1.509 0 0 0 28.544 0.371 A 1.222 1.222 0 0 0 28.313 0.472 A 102.599 102.599 0 0 0 28.313 0.573 Q 28.314 1.294 28.325 2.185 A 637.331 637.331 0 0 1 28.327 2.344 Q 28.335 3.049 28.348 4.309 A 5276.031 5276.031 0 0 1 28.359 5.325 A 4.177 4.177 0 0 0 28.022 5.235 A 5.308 5.308 0 0 0 27.543 5.152 A 7.563 7.563 0 0 0 27.201 5.116 A 6.081 6.081 0 0 0 26.703 5.095 Q 24.495 5.095 23.196 6.854 Q 21.896 8.614 21.896 11.581 Q 21.896 13.077 22.202 14.261 A 6.488 6.488 0 0 0 22.92 16.008 A 4.563 4.563 0 0 0 23.326 16.58 Q 24.256 17.688 25.641 17.698 A 3.503 3.503 0 0 0 25.668 17.699 A 3.22 3.22 0 0 0 25.884 17.691 A 2.428 2.428 0 0 0 27.462 17.009 Q 28.175 16.319 28.589 14.893 A 828.691 828.691 0 0 1 28.592 14.955 Q 28.636 15.883 28.67 16.629 Q 28.691 17.111 28.708 17.516 A 216.637 216.637 0 0 1 28.727 17.975 A 2.596 2.596 0 0 0 28.772 17.974 Q 28.962 17.971 29.199 17.94 A 2.952 2.952 0 0 0 29.292 17.926 Q 29.391 17.91 29.478 17.889 Z M 58.793 18.013 A 0.711 0.711 0 0 0 58.88 17.998 L 59.11 17.952 A 0.94 0.94 0 0 0 59.187 17.933 A 0.767 0.767 0 0 0 59.317 17.883 A 128.491 128.491 0 0 1 59.623 14.776 A 109.037 109.037 0 0 1 60.525 8.338 Q 61.066 5.184 61.659 3.133 A 18.466 18.466 0 0 1 62.169 1.599 A 2.307 2.307 0 0 0 62.135 1.565 A 2.06 2.06 0 0 0 61.882 1.357 A 4.756 4.756 0 0 0 61.803 1.304 Q 61.708 1.241 61.573 1.156 A 20.862 20.862 0 0 0 61.433 1.07 A 22.64 22.64 0 0 1 60.794 1.696 A 25.659 25.659 0 0 1 58.65 3.496 Q 57.109 4.658 55.2 5.785 A 4.354 4.354 0 0 0 55.242 5.866 Q 55.3 5.976 55.358 6.069 A 2.347 2.347 0 0 0 55.476 6.245 Q 55.571 6.371 55.731 6.53 A 5.458 5.458 0 0 0 55.89 6.682 Q 57.27 5.808 58.386 4.991 Q 59.501 4.175 60.421 3.37 A 56.025 56.025 0 0 0 59.955 5.371 A 71.373 71.373 0 0 0 59.524 7.556 A 74.304 74.304 0 0 0 59.423 8.128 A 82.4 82.4 0 0 0 58.811 12.294 Q 58.604 13.881 58.489 15.111 A 55.651 55.651 0 0 0 58.42 15.924 Q 58.386 16.352 58.354 16.824 A 102.065 102.065 0 0 0 58.282 18.021 L 58.662 18.021 A 1.313 1.313 0 0 0 58.697 18.02 Q 58.748 18.019 58.793 18.013 Z M 65.992 18.013 A 0.711 0.711 0 0 0 66.079 17.998 L 66.309 17.952 A 0.94 0.94 0 0 0 66.386 17.933 A 0.767 0.767 0 0 0 66.516 17.883 A 128.491 128.491 0 0 1 66.822 14.776 A 109.037 109.037 0 0 1 67.724 8.338 Q 68.265 5.184 68.858 3.133 A 18.466 18.466 0 0 1 69.368 1.599 A 2.307 2.307 0 0 0 69.334 1.565 A 2.06 2.06 0 0 0 69.081 1.357 A 4.756 4.756 0 0 0 69.002 1.304 Q 68.907 1.241 68.772 1.156 A 20.862 20.862 0 0 0 68.632 1.07 A 22.64 22.64 0 0 1 67.993 1.696 A 25.659 25.659 0 0 1 65.849 3.496 Q 64.308 4.658 62.399 5.785 A 4.354 4.354 0 0 0 62.441 5.866 Q 62.499 5.976 62.557 6.069 A 2.347 2.347 0 0 0 62.675 6.245 Q 62.77 6.371 62.93 6.53 A 5.458 5.458 0 0 0 63.089 6.682 Q 64.469 5.808 65.585 4.991 Q 66.7 4.175 67.62 3.37 A 56.025 56.025 0 0 0 67.154 5.371 A 71.373 71.373 0 0 0 66.723 7.556 A 74.304 74.304 0 0 0 66.622 8.128 A 82.4 82.4 0 0 0 66.01 12.294 Q 65.803 13.881 65.688 15.111 A 55.651 55.651 0 0 0 65.619 15.924 Q 65.585 16.352 65.553 16.824 A 102.065 102.065 0 0 0 65.481 18.021 L 65.861 18.021 A 1.313 1.313 0 0 0 65.896 18.02 Q 65.947 18.019 65.992 18.013 Z M 11.914 11.397 Q 11.914 8.453 13.191 6.601 A 4.821 4.821 0 0 1 14.157 5.547 A 3.651 3.651 0 0 1 16.491 4.75 A 3.457 3.457 0 0 1 17.8 4.989 Q 18.579 5.304 19.137 6.035 A 4.014 4.014 0 0 1 19.182 6.095 A 4.733 4.733 0 0 1 19.916 7.645 Q 20.171 8.561 20.171 9.718 A 15.353 15.353 0 0 1 20.029 11.875 Q 19.756 13.791 18.964 15.157 A 5.327 5.327 0 0 1 18.192 16.198 A 3.219 3.219 0 0 1 15.801 17.239 A 3.11 3.11 0 0 1 13.359 16.121 A 4.492 4.492 0 0 1 12.972 15.606 A 6.178 6.178 0 0 1 12.179 13.737 Q 11.914 12.685 11.914 11.397 Z M 45.425 11.397 Q 45.425 8.453 46.702 6.601 A 4.821 4.821 0 0 1 47.668 5.547 A 3.651 3.651 0 0 1 50.002 4.75 A 3.457 3.457 0 0 1 51.311 4.989 Q 52.09 5.304 52.648 6.035 A 4.014 4.014 0 0 1 52.693 6.095 A 4.733 4.733 0 0 1 53.427 7.645 Q 53.682 8.561 53.682 9.718 A 15.353 15.353 0 0 1 53.54 11.875 Q 53.267 13.791 52.475 15.157 A 5.327 5.327 0 0 1 51.703 16.198 A 3.219 3.219 0 0 1 49.312 17.239 A 3.11 3.11 0 0 1 46.87 16.121 A 4.492 4.492 0 0 1 46.483 15.606 A 6.178 6.178 0 0 1 45.69 13.737 Q 45.425 12.685 45.425 11.397 Z M 23.161 11.374 A 15.217 15.217 0 0 0 23.227 12.835 Q 23.367 14.286 23.809 15.231 A 4.394 4.394 0 0 0 23.84 15.295 Q 24.265 16.168 24.894 16.493 A 1.758 1.758 0 0 0 25.714 16.687 A 1.859 1.859 0 0 0 27.094 16.078 Q 27.343 15.821 27.554 15.456 A 5.271 5.271 0 0 0 27.985 14.476 Q 28.316 13.48 28.456 12.055 A 18.206 18.206 0 0 0 28.474 11.857 Q 28.451 11.374 28.44 10.787 A 2200.04 2200.04 0 0 1 28.433 10.456 Q 28.423 9.905 28.405 9.015 A 330.804 330.804 0 0 0 28.405 9.005 A 181.048 181.048 0 0 0 28.404 8.477 Q 28.402 7.744 28.394 7.33 A 51.753 51.753 0 0 0 28.394 7.326 Q 28.382 6.774 28.359 6.291 Q 28.083 6.199 27.715 6.153 Q 27.35 6.107 26.894 6.107 A 9.203 9.203 0 0 0 26.887 6.107 A 3.135 3.135 0 0 0 24.486 7.143 A 4.078 4.078 0 0 0 24.185 7.51 Q 23.161 8.913 23.161 11.374 Z M 18.316 7.286 A 3.528 3.528 0 0 0 18.17 6.981 Q 17.575 5.875 16.391 5.791 A 2.81 2.81 0 0 0 16.192 5.785 A 1.887 1.887 0 0 0 14.98 6.239 Q 14.691 6.473 14.426 6.829 A 5.173 5.173 0 0 0 14.076 7.372 Q 13.204 8.915 13.18 11.11 A 11.415 11.415 0 0 0 13.179 11.236 Q 13.179 13.352 13.938 14.778 A 3.55 3.55 0 0 0 14.407 15.467 A 2.034 2.034 0 0 0 15.985 16.204 A 1.627 1.627 0 0 0 17.012 15.823 Q 17.517 15.424 17.95 14.607 A 6.654 6.654 0 0 0 17.963 14.582 A 7.112 7.112 0 0 0 18.627 12.661 Q 18.791 11.843 18.811 10.907 A 12.351 12.351 0 0 0 18.814 10.638 Q 18.814 8.472 18.316 7.286 Z M 51.827 7.286 A 3.528 3.528 0 0 0 51.681 6.981 Q 51.086 5.875 49.902 5.791 A 2.81 2.81 0 0 0 49.703 5.785 A 1.887 1.887 0 0 0 48.491 6.239 Q 48.202 6.473 47.937 6.829 A 5.173 5.173 0 0 0 47.587 7.372 Q 46.715 8.915 46.691 11.11 A 11.415 11.415 0 0 0 46.69 11.236 Q 46.69 13.352 47.449 14.778 A 3.55 3.55 0 0 0 47.918 15.467 A 2.034 2.034 0 0 0 49.496 16.204 A 1.627 1.627 0 0 0 50.523 15.823 Q 51.028 15.424 51.461 14.607 A 6.654 6.654 0 0 0 51.474 14.582 A 7.112 7.112 0 0 0 52.138 12.661 Q 52.302 11.843 52.322 10.907 A 12.351 12.351 0 0 0 52.325 10.638 Q 52.325 8.472 51.827 7.286 Z M 33.175 5.424 A 1.99 1.99 0 0 0 32.89 5.555 A 25.464 25.464 0 0 0 32.875 5.635 Q 32.429 8.089 32.361 11.178 A 42.57 42.57 0 0 0 32.351 12.113 Q 32.351 14.745 32.683 17.17 Q 32.775 17.193 32.867 17.204 Q 32.959 17.216 33.051 17.216 Q 33.212 17.216 33.362 17.181 Q 33.511 17.146 33.649 17.101 A 36.287 36.287 0 0 1 33.562 15.828 Q 33.452 13.695 33.557 11.213 A 60.193 60.193 0 0 1 33.559 11.162 Q 33.699 7.949 34.155 5.394 A 0.94 0.94 0 0 0 34.126 5.383 A 0.832 0.832 0 0 0 33.925 5.336 Q 33.866 5.33 33.813 5.327 A 1.757 1.757 0 0 0 33.718 5.325 Q 33.511 5.325 33.304 5.382 A 1.727 1.727 0 0 0 33.175 5.424 Z M 37.237 11.19 A 12.512 12.512 0 0 0 37.297 12.451 Q 37.428 13.74 37.847 14.594 A 3.168 3.168 0 0 0 38.198 15.162 Q 38.439 15.467 38.727 15.634 A 1.498 1.498 0 0 0 39.491 15.836 Q 40.365 15.836 40.975 14.916 A 4.509 4.509 0 0 0 41.337 14.237 Q 41.659 13.501 41.914 12.398 A 18.588 18.588 0 0 0 41.998 12.018 A 33.515 33.515 0 0 0 41.902 10.494 Q 41.835 9.726 41.734 9.051 Q 41.538 7.74 41.147 6.452 A 1.89 1.89 0 0 0 40.856 6.351 A 2.299 2.299 0 0 0 40.687 6.314 A 2.819 2.819 0 0 0 40.371 6.275 A 3.54 3.54 0 0 0 40.135 6.268 Q 38.663 6.268 37.95 7.487 Q 37.237 8.706 37.237 11.19 Z M 34.431 0.012 Q 34.684 0.035 34.857 0.081 A 1.156 1.156 0 0 1 35.049 0.151 A 1.556 1.556 0 0 1 35.213 0.242 A 10.317 10.317 0 0 0 34.803 1.229 A 11.657 11.657 0 0 0 34.719 1.472 A 14.707 14.707 0 0 0 34.477 2.269 A 12.305 12.305 0 0 0 34.362 2.726 A 1.296 1.296 0 0 1 34.358 2.726 Q 34.213 2.746 33.967 2.748 A 6.742 6.742 0 0 1 33.914 2.749 A 5.043 5.043 0 0 1 33.909 2.749 A 6.781 6.781 0 0 1 33.35 2.726 A 0.782 0.782 0 0 1 33.328 2.572 A 0.901 0.901 0 0 1 33.327 2.53 L 33.327 2.22 A 5.524 5.524 0 0 1 33.372 1.531 A 6.838 6.838 0 0 1 33.442 1.093 Q 33.53 0.635 33.659 0.298 A 2.819 2.819 0 0 1 33.741 0.104 A 3.588 3.588 0 0 1 33.875 0.061 Q 33.996 0.027 34.086 0.012 A 0.819 0.819 0 0 1 34.164 0.003 Q 34.279 -0.005 34.431 0.012 Z" vector-effect="non-scaling-stroke"/></g></svg>