<?xml version="1.0" standalone="no"?>
<!DOCTYPE svg PUBLIC "-//W3C//DTD SVG 20010904//EN"
 "http://www.w3.org/TR/2001/REC-SVG-20010904/DTD/svg10.dtd">
<svg width="81.673" height="22.264" viewBox="0 0 81.673 22.264" xmlns="http://www.w3.org/2000/svg"><g id="svgGroup" stroke-linecap="round" fill-rule="evenodd" font-size="9pt" stroke="#000" stroke-width="0.25mm" fill="none" style="stroke:#000;stroke-width:0.25mm;fill:none"><path stroke="white" d="M 51.589 15.318 L 51.589 13.869 A 4.853 4.853 0 0 1 50.944 15.198 A 4.175 4.175 0 0 1 50.025 16.146 A 4.138 4.138 0 0 1 47.833 16.957 A 5.258 5.258 0 0 1 47.403 16.974 A 4.248 4.248 0 0 1 46.106 16.786 A 3.286 3.286 0 0 1 44.39 15.514 A 4.677 4.677 0 0 1 43.78 14.266 Q 43.355 12.979 43.355 11.063 A 9.859 9.859 0 0 1 43.626 8.707 A 8.072 8.072 0 0 1 44.344 6.82 A 3.244 3.244 0 0 1 46.267 5.251 Q 47.113 4.968 48.254 4.968 Q 49.381 4.968 50.485 5.29 Q 51.589 5.612 52.302 6.486 L 52.302 15.686 Q 52.302 21.584 47.976 22.194 A 7.564 7.564 0 0 1 46.92 22.264 A 4.936 4.936 0 0 1 45.767 22.136 A 3.629 3.629 0 0 1 44.425 21.517 A 2.409 2.409 0 0 1 43.441 19.752 A 3.384 3.384 0 0 1 43.424 19.412 A 2.895 2.895 0 0 1 43.454 18.983 Q 43.511 18.603 43.677 18.331 A 1.328 1.328 0 0 1 43.812 18.145 Q 44.013 17.917 44.252 17.917 A 0.679 0.679 0 0 1 44.423 17.937 A 0.442 0.442 0 0 1 44.689 18.124 Q 44.097 18.466 44.091 19.327 A 2.527 2.527 0 0 0 44.091 19.343 A 2.649 2.649 0 0 0 44.175 20.031 A 1.762 1.762 0 0 0 44.908 21.068 Q 45.691 21.597 46.865 21.619 A 5.474 5.474 0 0 0 46.966 21.62 Q 49.404 21.62 50.497 20.102 Q 51.589 18.584 51.589 15.318 Z M 3.814 16.713 A 5.697 5.697 0 0 0 5.727 17.02 A 6.831 6.831 0 0 0 5.876 17.018 A 6 6 0 0 0 7.97 16.606 Q 8.526 16.386 8.962 16.114 A 4.09 4.09 0 0 0 9.637 15.594 A 3.777 3.777 0 0 0 9.682 15.55 Q 10.015 15.218 10.156 14.908 A 1.065 1.065 0 0 0 10.258 14.467 A 0.442 0.442 0 0 0 10.248 14.367 A 0.243 0.243 0 0 0 10.109 14.191 Q 9.959 14.122 9.706 14.122 A 2.31 2.31 0 0 1 9.628 14.345 Q 9.412 14.871 8.937 15.282 A 3.749 3.749 0 0 1 8.234 15.755 Q 7.061 16.376 5.727 16.376 A 5.548 5.548 0 0 1 5.399 16.367 Q 3.266 16.24 2.047 14.444 A 6.465 6.465 0 0 1 1.258 12.778 Q 0.988 11.938 0.858 10.912 A 16.57 16.57 0 0 1 0.736 8.832 A 16.78 16.78 0 0 1 0.845 6.861 Q 0.967 5.825 1.229 4.976 A 6.536 6.536 0 0 1 2.047 3.22 A 5.401 5.401 0 0 1 2.171 3.045 Q 2.916 2.037 3.977 1.607 A 4.625 4.625 0 0 1 5.727 1.288 A 8.244 8.244 0 0 1 6.206 1.302 Q 6.716 1.331 7.156 1.426 A 4.228 4.228 0 0 1 8.062 1.725 A 3.392 3.392 0 0 1 8.315 1.857 Q 9.023 2.265 9.2 2.875 Q 9.343 2.938 9.474 2.904 A 0.425 0.425 0 0 0 9.591 2.852 A 0.512 0.512 0 0 0 9.659 2.802 A 0.32 0.32 0 0 0 9.775 2.553 A 0.83 0.83 0 0 0 9.684 2.184 Q 9.617 2.049 9.502 1.912 A 2.231 2.231 0 0 0 9.258 1.668 A 2.704 2.704 0 0 0 8.96 1.445 Q 8.722 1.29 8.425 1.159 A 5.669 5.669 0 0 0 7.809 0.932 A 6.185 6.185 0 0 0 6.887 0.725 A 7.94 7.94 0 0 0 5.727 0.644 A 6.525 6.525 0 0 0 4.977 0.686 A 4.777 4.777 0 0 0 1.495 2.737 A 6.849 6.849 0 0 0 0.595 4.544 Q 0.287 5.456 0.139 6.571 A 17.178 17.178 0 0 0 0 8.832 A 17.586 17.586 0 0 0 0.111 10.872 Q 0.408 13.405 1.495 14.927 A 4.767 4.767 0 0 0 3.814 16.713 Z M 33.373 15.065 L 33.373 13.57 Q 32.775 15.111 31.683 16.066 A 3.835 3.835 0 0 1 29.551 16.987 A 5.111 5.111 0 0 1 28.957 17.02 Q 26.657 17.02 25.898 15.364 A 7.692 7.692 0 0 1 25.886 15.338 Q 25.139 13.692 25.139 11.638 Q 25.139 9.52 25.698 8.024 A 5.893 5.893 0 0 1 26.358 6.739 A 3.9 3.9 0 0 1 29.185 5.011 A 5.375 5.375 0 0 1 29.877 4.968 A 4.857 4.857 0 0 1 30.901 5.071 A 3.482 3.482 0 0 1 32.085 5.555 A 3.211 3.211 0 0 1 33.316 7.073 A 3.997 3.997 0 0 1 33.373 7.222 L 33.35 2.3 Q 33.35 0.944 33.273 0.39 A 2.012 2.012 0 0 0 33.235 0.184 A 0.831 0.831 0 0 1 33.238 0.181 Q 33.421 0 33.649 0 Q 34.065 0 34.085 0.457 A 1.088 1.088 0 0 1 34.086 0.506 L 34.063 15.111 Q 34.063 16.261 34.753 16.261 A 0.711 0.711 0 0 0 35.026 16.211 Q 35.203 16.138 35.315 15.959 A 0.904 0.904 0 0 0 35.374 15.847 A 1.104 1.104 0 0 1 35.5 16.013 Q 35.564 16.117 35.588 16.22 A 0.57 0.57 0 0 1 35.604 16.353 A 0.425 0.425 0 0 1 35.444 16.691 A 0.672 0.672 0 0 1 35.351 16.756 A 0.976 0.976 0 0 1 35.099 16.858 Q 34.917 16.905 34.684 16.905 A 1.298 1.298 0 0 1 34.05 16.76 Q 33.373 16.388 33.373 15.065 Z M 71.737 16.422 L 71.691 2.99 Q 71.691 2.392 71.645 1.656 A 28.486 28.486 0 0 1 70.604 2.504 A 38.569 38.569 0 0 1 69.414 3.393 A 27.785 27.785 0 0 1 69.114 3.606 Q 68.304 4.171 68.006 4.277 A 0.35 0.35 0 0 1 67.896 4.301 Q 67.62 4.301 67.563 4.186 A 0.461 0.461 0 0 1 67.524 4.078 Q 67.515 4.036 67.515 3.994 A 0.385 0.385 0 0 1 67.517 3.956 A 4.612 4.612 0 0 0 67.522 3.903 Q 67.528 3.837 67.528 3.803 A 0.437 0.437 0 0 0 67.528 3.795 A 0.578 0.578 0 0 0 67.649 3.743 Q 68.018 3.551 69.276 2.668 A 67.153 67.153 0 0 0 70.002 2.152 Q 70.785 1.587 71.332 1.152 A 17.973 17.973 0 0 0 71.645 0.897 A 1.118 1.118 0 0 1 71.764 0.846 Q 71.823 0.824 71.877 0.814 A 0.49 0.49 0 0 1 71.967 0.805 A 0.425 0.425 0 0 1 72.143 0.839 Q 72.325 0.921 72.353 1.201 A 1.099 1.099 0 0 1 72.358 1.311 L 72.404 14.743 A 24.053 24.053 0 0 0 72.412 15.392 Q 72.436 16.283 72.533 16.705 A 1.987 1.987 0 0 0 72.542 16.744 A 0.678 0.678 0 0 1 72.385 16.863 A 0.533 0.533 0 0 1 72.128 16.928 A 0.425 0.425 0 0 1 71.953 16.894 Q 71.771 16.813 71.742 16.532 A 1.099 1.099 0 0 1 71.737 16.422 Z M 80.868 16.422 L 80.822 2.99 Q 80.822 2.392 80.776 1.656 A 28.486 28.486 0 0 1 79.735 2.504 A 38.569 38.569 0 0 1 78.545 3.393 A 27.785 27.785 0 0 1 78.245 3.606 Q 77.435 4.171 77.137 4.277 A 0.35 0.35 0 0 1 77.027 4.301 Q 76.751 4.301 76.694 4.186 A 0.461 0.461 0 0 1 76.655 4.078 Q 76.646 4.036 76.646 3.994 A 0.385 0.385 0 0 1 76.648 3.956 A 4.612 4.612 0 0 0 76.653 3.903 Q 76.659 3.837 76.659 3.803 A 0.437 0.437 0 0 0 76.659 3.795 A 0.578 0.578 0 0 0 76.78 3.743 Q 77.149 3.551 78.407 2.668 A 67.153 67.153 0 0 0 79.133 2.152 Q 79.916 1.587 80.463 1.152 A 17.973 17.973 0 0 0 80.776 0.897 A 1.118 1.118 0 0 1 80.895 0.846 Q 80.954 0.824 81.008 0.814 A 0.49 0.49 0 0 1 81.098 0.805 A 0.425 0.425 0 0 1 81.274 0.839 Q 81.456 0.921 81.484 1.201 A 1.099 1.099 0 0 1 81.489 1.311 L 81.535 14.743 A 24.053 24.053 0 0 0 81.543 15.392 Q 81.567 16.283 81.664 16.705 A 1.987 1.987 0 0 0 81.673 16.744 A 0.678 0.678 0 0 1 81.516 16.863 A 0.533 0.533 0 0 1 81.259 16.928 A 0.425 0.425 0 0 1 81.084 16.894 Q 80.902 16.813 80.873 16.532 A 1.099 1.099 0 0 1 80.868 16.422 Z M 16.211 16.806 A 5.451 5.451 0 0 0 17.779 17.02 A 6.124 6.124 0 0 0 18.514 16.977 A 4.24 4.24 0 0 0 21.402 15.433 A 4.936 4.936 0 0 0 22.034 14.432 Q 22.701 13.038 22.701 10.994 A 11.234 11.234 0 0 0 22.667 10.097 Q 22.489 7.883 21.402 6.555 A 4.132 4.132 0 0 0 19.347 5.182 A 5.451 5.451 0 0 0 17.779 4.968 A 6.124 6.124 0 0 0 17.045 5.011 A 4.24 4.24 0 0 0 14.157 6.555 A 4.936 4.936 0 0 0 13.524 7.556 Q 12.857 8.95 12.857 10.994 A 11.234 11.234 0 0 0 12.892 11.891 Q 13.069 14.105 14.157 15.433 A 4.132 4.132 0 0 0 16.211 16.806 Z M 58.876 16.806 A 5.451 5.451 0 0 0 60.444 17.02 A 6.124 6.124 0 0 0 61.179 16.977 A 4.24 4.24 0 0 0 64.067 15.433 A 4.936 4.936 0 0 0 64.699 14.432 Q 65.366 13.038 65.366 10.994 A 11.234 11.234 0 0 0 65.332 10.097 Q 65.154 7.883 64.067 6.555 A 4.132 4.132 0 0 0 62.012 5.182 A 5.451 5.451 0 0 0 60.444 4.968 A 6.124 6.124 0 0 0 59.71 5.011 A 4.24 4.24 0 0 0 56.822 6.555 A 4.936 4.936 0 0 0 56.189 7.556 Q 55.522 8.95 55.522 10.994 A 11.234 11.234 0 0 0 55.557 11.891 Q 55.734 14.105 56.822 15.433 A 4.132 4.132 0 0 0 58.876 16.806 Z M 17.779 16.376 A 4.394 4.394 0 0 0 19.14 16.176 A 3.506 3.506 0 0 0 20.861 14.95 Q 21.965 13.524 21.965 10.994 A 9.367 9.367 0 0 0 21.846 9.453 Q 21.603 7.996 20.861 7.038 A 3.581 3.581 0 0 0 18.231 5.632 A 5.088 5.088 0 0 0 17.779 5.612 A 4.394 4.394 0 0 0 16.419 5.813 A 3.506 3.506 0 0 0 14.697 7.038 Q 13.593 8.464 13.593 10.994 A 9.367 9.367 0 0 0 13.712 12.536 Q 13.955 13.992 14.697 14.95 A 3.581 3.581 0 0 0 17.328 16.357 A 5.088 5.088 0 0 0 17.779 16.376 Z M 60.444 16.376 A 4.394 4.394 0 0 0 61.805 16.176 A 3.506 3.506 0 0 0 63.526 14.95 Q 64.63 13.524 64.63 10.994 A 9.367 9.367 0 0 0 64.511 9.453 Q 64.268 7.996 63.526 7.038 A 3.581 3.581 0 0 0 60.896 5.632 A 5.088 5.088 0 0 0 60.444 5.612 A 4.394 4.394 0 0 0 59.084 5.813 A 3.506 3.506 0 0 0 57.362 7.038 Q 56.258 8.464 56.258 10.994 A 9.367 9.367 0 0 0 56.377 12.536 Q 56.62 13.992 57.362 14.95 A 3.581 3.581 0 0 0 59.993 16.357 A 5.088 5.088 0 0 0 60.444 16.376 Z M 51.589 11.063 L 51.612 6.785 A 2.242 2.242 0 0 0 51.051 6.293 Q 50.791 6.129 50.464 6.004 A 4.472 4.472 0 0 0 50.198 5.911 A 6.388 6.388 0 0 0 49.047 5.669 A 8.4 8.4 0 0 0 48.047 5.612 A 4.992 4.992 0 0 0 46.889 5.737 A 2.813 2.813 0 0 0 44.908 7.28 A 7.944 7.944 0 0 0 44.188 9.681 A 10.23 10.23 0 0 0 44.091 11.109 A 12.151 12.151 0 0 0 44.209 12.883 Q 44.531 15.051 45.73 15.855 A 3.015 3.015 0 0 0 47.449 16.33 A 4.397 4.397 0 0 0 48.504 16.21 A 3.088 3.088 0 0 0 49.887 15.479 Q 50.807 14.628 51.198 13.421 Q 51.589 12.213 51.589 11.063 Z M 29.003 16.376 Q 30.291 16.376 31.292 15.583 A 4.59 4.59 0 0 0 32.396 14.292 A 6.134 6.134 0 0 0 32.833 13.375 A 8.062 8.062 0 0 0 33.284 11.561 A 10.51 10.51 0 0 0 33.373 10.166 Q 33.373 8.28 32.557 6.946 Q 31.757 5.64 29.822 5.613 A 5.894 5.894 0 0 0 29.739 5.612 A 3.409 3.409 0 0 0 28.269 5.921 Q 27.476 6.295 26.91 7.119 A 4.99 4.99 0 0 0 26.279 8.454 Q 25.888 9.698 25.876 11.477 A 16.768 16.768 0 0 0 25.875 11.592 A 9.749 9.749 0 0 0 26.021 13.317 A 7.393 7.393 0 0 0 26.496 14.927 A 2.226 2.226 0 0 0 28.066 16.268 A 3.761 3.761 0 0 0 29.003 16.376 Z M 38.962 16.422 L 38.916 7.153 A 24.053 24.053 0 0 0 38.908 6.504 Q 38.884 5.613 38.788 5.191 A 1.987 1.987 0 0 0 38.778 5.152 A 0.678 0.678 0 0 1 38.935 5.033 A 0.533 0.533 0 0 1 39.192 4.968 A 0.425 0.425 0 0 1 39.368 5.002 Q 39.55 5.084 39.578 5.364 A 1.099 1.099 0 0 1 39.583 5.474 L 39.629 14.743 A 24.053 24.053 0 0 0 39.637 15.392 Q 39.661 16.283 39.758 16.705 A 1.987 1.987 0 0 0 39.767 16.744 A 0.678 0.678 0 0 1 39.61 16.863 A 0.533 0.533 0 0 1 39.353 16.928 A 0.425 0.425 0 0 1 39.178 16.894 Q 38.996 16.813 38.967 16.532 A 1.099 1.099 0 0 1 38.962 16.422 Z M 38.752 2.331 A 0.712 0.712 0 0 0 39.192 2.484 Q 39.514 2.484 39.744 2.243 A 0.997 0.997 0 0 0 39.81 2.166 A 0.74 0.74 0 0 0 39.974 1.702 A 0.892 0.892 0 0 0 39.974 1.692 A 0.752 0.752 0 0 0 39.744 1.15 A 0.921 0.921 0 0 0 39.737 1.143 A 0.752 0.752 0 0 0 39.192 0.92 A 0.72 0.72 0 0 0 38.87 0.995 A 0.884 0.884 0 0 0 38.652 1.15 A 0.938 0.938 0 0 0 38.636 1.165 A 0.732 0.732 0 0 0 38.41 1.702 A 0.693 0.693 0 0 0 38.498 2.041 A 0.898 0.898 0 0 0 38.652 2.243 A 0.987 0.987 0 0 0 38.752 2.331 Z" vector-effect="non-scaling-stroke"/></g></svg>