<?xml version="1.0" standalone="no"?>
<!DOCTYPE svg PUBLIC "-//W3C//DTD SVG 20010904//EN"
 "http://www.w3.org/TR/2001/REC-SVG-20010904/DTD/svg10.dtd">
<svg width="111.642" height="25.561" viewBox="0 0 111.642 25.561" xmlns="http://www.w3.org/2000/svg"><g id="svgGroup" stroke-linecap="round" fill-rule="evenodd" font-size="9pt" stroke="#000" stroke-width="0.25mm" fill="none" style="stroke:#000;stroke-width:0.5mm;fill:none"><path stroke="white" d="M 61.841 22.36 A 1.658 1.658 0 0 0 61.756 22.876 A 1.073 1.073 0 0 0 61.835 23.276 A 1.407 1.407 0 0 0 62.003 23.578 Q 62.251 23.921 62.672 24.219 A 4.981 4.981 0 0 0 63.081 24.478 A 6.388 6.388 0 0 0 63.649 24.763 Q 64.205 25.01 64.811 25.19 A 9.31 9.31 0 0 0 66.035 25.465 A 8.646 8.646 0 0 0 66.416 25.515 A 7.349 7.349 0 0 0 67.214 25.561 A 9.517 9.517 0 0 0 67.852 25.538 A 12.713 12.713 0 0 0 68.551 25.471 A 6.52 6.52 0 0 0 68.642 25.459 A 7.033 7.033 0 0 0 70.016 25.123 A 5.95 5.95 0 0 0 70.2 25.055 A 6.45 6.45 0 0 0 71.443 24.404 Q 72.133 23.943 72.667 23.197 A 5.424 5.424 0 0 0 73.155 22.357 A 7.248 7.248 0 0 0 73.526 21.388 A 6.076 6.076 0 0 0 73.618 21.054 Q 73.74 20.559 73.798 19.984 A 11.196 11.196 0 0 0 73.852 18.856 A 283.024 283.024 0 0 1 73.863 16.329 A 234.58 234.58 0 0 1 73.877 15.105 A 197.978 197.978 0 0 1 73.897 13.948 Q 73.919 12.814 73.925 11.663 Q 73.93 10.512 73.93 9.243 A 3.245 3.245 0 0 1 73.937 9.038 A 2.65 2.65 0 0 1 73.975 8.72 A 2.665 2.665 0 0 0 74.02 8.232 A 2.651 2.651 0 0 0 74.013 8.035 A 2.161 2.161 0 0 0 73.97 7.732 A 1.116 1.116 0 0 0 73.951 7.66 A 0.933 0.933 0 0 0 73.784 7.333 A 0.785 0.785 0 0 0 73.599 7.167 A 1.059 1.059 0 0 0 73.408 7.07 A 1.13 1.13 0 0 0 73.258 7.023 Q 73.154 6.998 73.031 6.985 A 2.518 2.518 0 0 0 72.785 6.974 Q 72.66 6.974 72.552 6.994 A 0.897 0.897 0 0 0 72.341 7.058 A 1.158 1.158 0 0 0 72.015 7.277 Q 71.875 7.412 71.785 7.586 Q 71.695 7.76 71.639 7.94 A 5.102 5.102 0 0 0 69.73 6.626 A 5.228 5.228 0 0 0 69.559 6.561 Q 68.992 6.357 68.325 6.261 A 8.858 8.858 0 0 0 67.068 6.177 A 8.033 8.033 0 0 0 66.621 6.189 A 6.875 6.875 0 0 0 64.384 6.682 A 6.328 6.328 0 0 0 62.239 8.114 A 6.135 6.135 0 0 0 61.747 8.682 A 6.776 6.776 0 0 0 60.819 10.349 Q 60.329 11.602 60.329 13.139 A 9.768 9.768 0 0 0 60.33 13.274 A 9.104 9.104 0 0 0 60.353 13.858 A 7.737 7.737 0 0 0 60.835 16.082 A 7.839 7.839 0 0 0 60.932 16.321 A 6.822 6.822 0 0 0 62.206 18.323 A 6.211 6.211 0 0 0 64.294 19.805 A 6.083 6.083 0 0 0 65.156 20.109 A 6.865 6.865 0 0 0 66.956 20.338 A 11.933 11.933 0 0 0 67.07 20.338 Q 67.464 20.334 67.819 20.304 A 7.208 7.208 0 0 0 68.534 20.209 Q 69.225 20.08 69.752 19.85 A 4.643 4.643 0 0 0 70.129 19.665 A 3.773 3.773 0 0 0 70.673 19.305 A 5.017 5.017 0 0 0 70.817 19.186 A 4.391 4.391 0 0 0 71.358 18.631 Q 71.358 18.811 71.37 18.996 A 6.438 6.438 0 0 1 71.378 19.175 A 5.019 5.019 0 0 1 71.381 19.339 A 4.131 4.131 0 0 1 71.343 19.907 A 3.217 3.217 0 0 1 70.993 21.001 Q 70.606 21.72 70.005 22.203 Q 69.404 22.686 68.68 22.933 A 4.993 4.993 0 0 1 68.232 23.063 A 4.07 4.07 0 0 1 67.282 23.18 A 6.887 6.887 0 0 1 67.093 23.177 Q 66.525 23.162 66.086 23.051 A 5.196 5.196 0 0 1 65.688 22.934 A 4.116 4.116 0 0 1 65.17 22.719 A 4.463 4.463 0 0 1 64.974 22.615 A 3.848 3.848 0 0 1 64.446 22.259 A 13.327 13.327 0 0 1 64.289 22.13 A 11.909 11.909 0 0 1 63.845 21.742 A 1.094 1.094 0 0 0 63.62 21.603 A 1.519 1.519 0 0 0 63.39 21.518 A 2.687 2.687 0 0 0 63.246 21.48 Q 63.063 21.439 62.924 21.439 Q 62.666 21.439 62.447 21.568 A 1.256 1.256 0 0 0 62.076 21.899 A 1.47 1.47 0 0 0 62.013 21.991 A 1.611 1.611 0 0 0 61.841 22.36 Z M 44.45 2.471 L 43.496 2.471 A 2.273 2.273 0 0 0 42.99 2.527 A 2.281 2.281 0 0 1 42.609 2.579 A 2.679 2.679 0 0 1 42.462 2.583 A 0.925 0.925 0 0 1 42.169 2.534 A 1.144 1.144 0 0 1 42.053 2.488 A 1.178 1.178 0 0 1 41.682 2.218 A 1.333 1.333 0 0 1 41.492 1.956 A 1.668 1.668 0 0 1 41.412 1.791 A 1.329 1.329 0 0 1 41.323 1.465 A 1.743 1.743 0 0 1 41.306 1.213 A 1.801 1.801 0 0 1 41.338 0.859 Q 41.405 0.526 41.609 0.314 A 1.011 1.011 0 0 1 42.344 0 A 1.327 1.327 0 0 1 42.373 0 Q 42.45 0 42.548 0.003 A 10.757 10.757 0 0 1 42.642 0.006 A 1.23 1.23 0 0 1 42.788 0.02 Q 42.888 0.036 43.002 0.067 A 28.017 28.017 0 0 0 43.426 0.071 A 28.672 28.672 0 0 0 44.495 0.051 A 60.15 60.15 0 0 1 45.276 0.027 A 74.019 74.019 0 0 1 46.112 0.011 A 1.099 1.099 0 0 1 46.438 0.057 A 0.858 0.858 0 0 1 46.854 0.337 Q 47.109 0.645 47.122 1.145 A 2.09 2.09 0 0 1 47.123 1.202 A 2.334 2.334 0 0 1 47.113 1.424 Q 47.092 1.646 47.024 1.792 A 0.691 0.691 0 0 1 47.022 1.797 A 58.1 58.1 0 0 0 47.011 2.183 Q 46.997 2.795 46.988 3.599 A 1723.612 1723.612 0 0 0 46.977 4.707 A 2072.524 2072.524 0 0 0 46.966 5.885 A 515.437 515.437 0 0 0 46.949 8.355 A 3942.509 3942.509 0 0 1 46.943 9.573 A 3202.913 3202.913 0 0 1 46.938 10.708 A 474.923 474.923 0 0 0 46.934 11.618 Q 46.932 12.172 46.932 12.646 L 46.932 13.87 A 123.927 123.927 0 0 0 46.936 14.884 Q 46.94 15.365 46.948 15.795 A 74.497 74.497 0 0 0 46.949 15.852 Q 46.966 16.733 47.011 17.239 L 47.213 17.115 A 6.33 6.33 0 0 1 47.501 16.96 A 5.293 5.293 0 0 1 47.668 16.879 A 1.403 1.403 0 0 1 48.081 16.763 A 1.609 1.609 0 0 1 48.145 16.756 A 0.878 0.878 0 0 1 48.248 16.75 Q 48.363 16.75 48.483 16.78 A 1.118 1.118 0 0 1 48.538 16.795 Q 48.74 16.857 48.909 16.997 Q 49.077 17.138 49.19 17.374 Q 49.302 17.609 49.302 17.946 A 1.431 1.431 0 0 1 49.267 18.271 A 0.978 0.978 0 0 1 49.049 18.704 Q 48.832 18.95 48.603 19.068 A 1.061 1.061 0 0 1 48.527 19.103 A 11.217 11.217 0 0 0 48.072 19.324 A 10.233 10.233 0 0 0 48.01 19.356 A 734.608 734.608 0 0 1 47.505 19.62 A 50.632 50.632 0 0 1 46.948 19.91 A 44.501 44.501 0 0 1 46.769 20.001 A 2.102 2.102 0 0 1 46.537 20.103 Q 46.418 20.147 46.31 20.166 A 0.937 0.937 0 0 1 46.146 20.181 A 0.954 0.954 0 0 1 45.399 19.834 A 1.437 1.437 0 0 1 45.276 19.67 A 2.83 2.83 0 0 1 45.033 19.198 Q 44.935 18.957 44.859 18.669 A 5.95 5.95 0 0 1 44.776 18.306 A 5.859 5.859 0 0 1 43.825 19.09 A 6.484 6.484 0 0 1 43.754 19.137 A 7.588 7.588 0 0 1 42.53 19.777 Q 41.878 20.046 41.165 20.192 A 7.122 7.122 0 0 1 39.733 20.338 A 6.689 6.689 0 0 1 38.117 20.149 A 5.689 5.689 0 0 1 37.089 19.788 Q 35.904 19.238 35.062 18.283 A 6.743 6.743 0 0 1 33.852 16.291 A 7.768 7.768 0 0 1 33.759 16.043 Q 33.298 14.757 33.298 13.274 A 8.004 8.004 0 0 1 33.529 11.326 A 7.063 7.063 0 0 1 33.809 10.45 A 6.962 6.962 0 0 1 34.938 8.525 A 6.537 6.537 0 0 1 35.224 8.204 A 6.525 6.525 0 0 1 37.364 6.716 A 6.554 6.554 0 0 1 39.756 6.182 A 7.618 7.618 0 0 1 40.048 6.177 Q 40.699 6.177 41.339 6.306 A 5.996 5.996 0 0 1 42.558 6.688 Q 43.136 6.94 43.63 7.311 Q 44.125 7.682 44.495 8.165 L 44.495 7.333 A 126.774 126.774 0 0 0 44.494 6.901 Q 44.494 6.709 44.493 6.497 A 235.982 235.982 0 0 0 44.49 6.053 Q 44.484 5.312 44.473 4.402 A 1307.623 1307.623 0 0 1 44.461 3.465 A 1556.896 1556.896 0 0 1 44.45 2.471 Z M 12.803 19.406 L 12.803 19.395 A 2.593 2.593 0 0 1 12.636 19.481 Q 12.427 19.582 12.112 19.698 A 8.329 8.329 0 0 1 11.629 19.86 A 11.012 11.012 0 0 1 11.09 20.007 A 12.848 12.848 0 0 1 10.205 20.192 A 14.6 14.6 0 0 1 9.894 20.243 Q 9.265 20.338 8.659 20.338 Q 7.277 20.338 6.104 20.007 A 8.66 8.66 0 0 1 4.416 19.34 A 7.777 7.777 0 0 1 3.97 19.086 Q 3.01 18.497 2.269 17.677 Q 1.527 16.857 1.022 15.88 A 8.939 8.939 0 0 1 0.258 13.797 A 9.968 9.968 0 0 1 0 11.522 A 12.835 12.835 0 0 1 0.088 9.982 A 9.824 9.824 0 0 1 0.354 8.597 A 9.759 9.759 0 0 1 0.883 7.109 A 8.089 8.089 0 0 1 1.325 6.267 Q 1.943 5.245 2.774 4.503 A 8.204 8.204 0 0 1 4.571 3.279 A 8.618 8.618 0 0 1 6.587 2.566 Q 7.637 2.336 8.681 2.336 A 10.075 10.075 0 0 1 10.557 2.51 Q 11.478 2.684 12.376 2.999 A 23.325 23.325 0 0 0 12.921 3.195 A 2.273 2.273 0 0 1 13.272 3.35 A 1.963 1.963 0 0 1 13.415 3.437 A 1.154 1.154 0 0 1 13.769 3.807 A 0.886 0.886 0 0 1 13.869 4.058 Q 13.903 4.203 13.903 4.38 A 2.086 2.086 0 0 1 13.886 4.661 Q 13.866 4.806 13.824 4.927 A 1.055 1.055 0 0 1 13.774 5.048 A 1.311 1.311 0 0 1 13.617 5.298 A 1.064 1.064 0 0 1 13.443 5.469 A 1.275 1.275 0 0 1 12.999 5.694 A 1.835 1.835 0 0 1 12.69 5.753 A 1.563 1.563 0 0 1 12.533 5.761 A 1.115 1.115 0 0 1 12.349 5.745 A 1.448 1.448 0 0 1 12.196 5.711 A 3.235 3.235 0 0 1 11.932 5.624 A 3.766 3.766 0 0 1 11.826 5.582 Q 11.635 5.503 11.455 5.396 A 6.19 6.19 0 0 1 11.264 5.278 A 4.845 4.845 0 0 1 11.129 5.188 A 5.738 5.738 0 0 0 10.738 5.041 A 4.338 4.338 0 0 0 10.371 4.936 A 6.389 6.389 0 0 0 9.898 4.841 A 5.474 5.474 0 0 0 9.692 4.812 A 6.276 6.276 0 0 0 9.052 4.767 Q 8.737 4.762 8.423 4.762 Q 7.715 4.762 7.008 4.925 A 5.713 5.713 0 0 0 5.643 5.43 Q 4.986 5.772 4.414 6.289 A 5.132 5.132 0 0 0 3.527 7.344 A 5.831 5.831 0 0 0 3.42 7.519 A 6.014 6.014 0 0 0 2.935 8.566 A 7.345 7.345 0 0 0 2.757 9.142 Q 2.516 10.051 2.516 11.174 Q 2.516 12.71 2.878 13.854 A 5.792 5.792 0 0 0 3.049 14.324 A 6.757 6.757 0 0 0 3.642 15.456 A 5.175 5.175 0 0 0 4.442 16.408 A 5.209 5.209 0 0 0 6.379 17.559 Q 7.457 17.913 8.558 17.913 A 7.916 7.916 0 0 0 9.552 17.851 Q 10.04 17.789 10.461 17.694 A 7.452 7.452 0 0 0 10.847 17.596 Q 11.04 17.541 11.208 17.48 A 3.327 3.327 0 0 0 11.396 17.406 Q 11.577 17.328 11.69 17.247 A 0.924 0.924 0 0 0 11.702 17.239 A 6.028 6.028 0 0 1 11.934 17.047 Q 12.132 16.892 12.297 16.795 A 1.103 1.103 0 0 1 12.739 16.652 A 1.385 1.385 0 0 1 12.893 16.644 A 2.124 2.124 0 0 1 13.264 16.675 A 1.879 1.879 0 0 1 13.381 16.7 A 1.012 1.012 0 0 1 13.667 16.816 A 0.919 0.919 0 0 1 13.78 16.896 A 0.955 0.955 0 0 1 13.995 17.154 A 1.176 1.176 0 0 1 14.049 17.261 A 1.051 1.051 0 0 1 14.118 17.479 Q 14.14 17.585 14.147 17.708 A 2.057 2.057 0 0 1 14.15 17.823 A 1.307 1.307 0 0 1 13.86 18.645 A 1.65 1.65 0 0 1 13.83 18.682 Q 13.51 19.069 12.803 19.406 Z M 97.408 17.935 A 8.277 8.277 0 0 0 97.335 19.024 A 1.986 1.986 0 0 0 97.351 19.285 A 1.438 1.438 0 0 0 97.408 19.541 A 0.867 0.867 0 0 0 97.655 19.923 A 0.823 0.823 0 0 0 97.695 19.957 Q 97.862 20.089 98.121 20.159 Q 98.413 20.237 98.851 20.237 A 2.883 2.883 0 0 0 99.019 20.233 Q 99.154 20.225 99.27 20.204 A 1.378 1.378 0 0 0 99.502 20.142 A 1.225 1.225 0 0 0 99.696 20.051 A 0.896 0.896 0 0 0 99.912 19.878 A 0.908 0.908 0 0 0 100.12 19.49 A 1.709 1.709 0 0 0 100.146 19.372 A 1.938 1.938 0 0 0 100.176 19.024 A 2.11 2.11 0 0 0 100.174 18.942 A 1.809 1.809 0 0 0 100.153 18.727 A 16.557 16.557 0 0 1 100.131 18.582 A 19.55 19.55 0 0 1 100.108 18.429 A 4.155 4.155 0 0 1 100.101 18.391 Q 100.028 17.982 99.991 17.323 A 35.792 35.792 0 0 1 99.957 16.592 A 49.035 49.035 0 0 1 99.934 15.779 Q 99.918 14.925 99.918 13.959 Q 99.918 12.994 99.923 12.028 A 311.399 311.399 0 0 1 99.924 11.907 A 285.766 285.766 0 0 1 99.94 10.152 A 155.992 155.992 0 0 0 99.948 9.282 A 117.399 117.399 0 0 0 99.951 8.49 A 661.462 661.462 0 0 1 99.951 8.149 A 597.194 597.194 0 0 1 99.957 5.84 Q 99.962 4.56 99.985 3.605 A 0.942 0.942 0 0 1 99.985 3.604 A 0.872 0.872 0 0 1 100.035 3.307 A 0.826 0.826 0 0 0 100.037 3.303 A 0.873 0.873 0 0 0 100.086 3.01 A 1.565 1.565 0 0 0 100.083 2.917 A 1.708 1.708 0 0 0 100.007 2.51 Q 99.929 2.257 99.766 2.044 Q 99.603 1.831 99.362 1.696 A 1.025 1.025 0 0 0 99.081 1.591 A 1.329 1.329 0 0 0 98.794 1.561 A 1.502 1.502 0 0 0 98.566 1.579 Q 98.248 1.628 97.868 1.808 A 8.648 8.648 0 0 0 97.615 1.933 Q 97.397 2.045 97.156 2.183 A 16.758 16.758 0 0 0 96.672 2.471 A 41.997 41.997 0 0 1 96.22 2.74 A 56.589 56.589 0 0 1 95.717 3.032 A 24.692 24.692 0 0 1 94.639 3.616 A 2.804 2.804 0 0 0 94.572 3.651 Q 94.341 3.774 94.174 3.921 A 1.182 1.182 0 0 0 93.741 4.84 A 1.601 1.601 0 0 0 93.749 5.007 A 1.175 1.175 0 0 0 94.089 5.739 A 1.141 1.141 0 0 0 94.6 6.035 A 1.529 1.529 0 0 0 95.01 6.087 A 1.559 1.559 0 0 0 95.227 6.072 A 1.773 1.773 0 0 0 95.644 5.958 A 4.481 4.481 0 0 0 96.273 5.643 A 13.689 13.689 0 0 0 96.874 5.261 A 5.794 5.794 0 0 1 97.125 5.101 A 4.59 4.59 0 0 1 97.436 4.93 A 1134.427 1134.427 0 0 1 97.445 6.401 A 850.229 850.229 0 0 1 97.452 7.738 A 3186.423 3186.423 0 0 0 97.458 8.956 A 2457.278 2457.278 0 0 0 97.464 10.074 Q 97.469 11.141 97.475 12.033 A 293.093 293.093 0 0 1 97.479 12.902 A 247.385 247.385 0 0 1 97.481 13.724 L 97.481 15.251 L 97.481 16.711 A 10.816 10.816 0 0 1 97.462 17.354 A 8.086 8.086 0 0 1 97.408 17.935 Z M 108.874 17.935 A 8.277 8.277 0 0 0 108.801 19.024 A 1.986 1.986 0 0 0 108.817 19.285 A 1.438 1.438 0 0 0 108.874 19.541 A 0.867 0.867 0 0 0 109.121 19.923 A 0.823 0.823 0 0 0 109.162 19.957 Q 109.328 20.089 109.587 20.159 Q 109.879 20.237 110.317 20.237 A 2.883 2.883 0 0 0 110.485 20.233 Q 110.62 20.225 110.736 20.204 A 1.378 1.378 0 0 0 110.968 20.142 A 1.225 1.225 0 0 0 111.162 20.051 A 0.896 0.896 0 0 0 111.378 19.878 A 0.908 0.908 0 0 0 111.586 19.49 A 1.709 1.709 0 0 0 111.612 19.372 A 1.938 1.938 0 0 0 111.642 19.024 A 2.11 2.11 0 0 0 111.641 18.942 A 1.809 1.809 0 0 0 111.62 18.727 A 16.557 16.557 0 0 1 111.597 18.582 A 19.55 19.55 0 0 1 111.575 18.429 A 4.155 4.155 0 0 1 111.568 18.391 Q 111.494 17.982 111.457 17.323 A 35.792 35.792 0 0 1 111.423 16.592 A 49.035 49.035 0 0 1 111.401 15.779 Q 111.384 14.925 111.384 13.959 Q 111.384 12.994 111.389 12.028 A 311.399 311.399 0 0 1 111.39 11.907 A 285.766 285.766 0 0 1 111.406 10.152 A 155.992 155.992 0 0 0 111.415 9.282 A 117.399 117.399 0 0 0 111.418 8.49 A 661.462 661.462 0 0 1 111.418 8.149 A 597.194 597.194 0 0 1 111.423 5.84 Q 111.429 4.56 111.451 3.605 A 0.942 0.942 0 0 1 111.451 3.604 A 0.872 0.872 0 0 1 111.502 3.307 A 0.826 0.826 0 0 0 111.503 3.303 A 0.873 0.873 0 0 0 111.552 3.01 A 1.565 1.565 0 0 0 111.55 2.917 A 1.708 1.708 0 0 0 111.474 2.51 Q 111.395 2.257 111.232 2.044 Q 111.069 1.831 110.828 1.696 A 1.025 1.025 0 0 0 110.548 1.591 A 1.329 1.329 0 0 0 110.261 1.561 A 1.502 1.502 0 0 0 110.032 1.579 Q 109.715 1.628 109.334 1.808 A 8.648 8.648 0 0 0 109.081 1.933 Q 108.863 2.045 108.622 2.183 A 16.758 16.758 0 0 0 108.138 2.471 A 41.997 41.997 0 0 1 107.686 2.74 A 56.589 56.589 0 0 1 107.184 3.032 A 24.692 24.692 0 0 1 106.106 3.616 A 2.804 2.804 0 0 0 106.038 3.651 Q 105.807 3.774 105.64 3.921 A 1.182 1.182 0 0 0 105.207 4.84 A 1.601 1.601 0 0 0 105.216 5.007 A 1.175 1.175 0 0 0 105.555 5.739 A 1.141 1.141 0 0 0 106.067 6.035 A 1.529 1.529 0 0 0 106.476 6.087 A 1.559 1.559 0 0 0 106.693 6.072 A 1.773 1.773 0 0 0 107.111 5.958 A 4.481 4.481 0 0 0 107.74 5.643 A 13.689 13.689 0 0 0 108.34 5.261 A 5.794 5.794 0 0 1 108.592 5.101 A 4.59 4.59 0 0 1 108.902 4.93 A 1134.427 1134.427 0 0 1 108.912 6.401 A 850.229 850.229 0 0 1 108.919 7.738 A 3186.423 3186.423 0 0 0 108.924 8.956 A 2457.278 2457.278 0 0 0 108.93 10.074 Q 108.936 11.141 108.941 12.033 A 293.093 293.093 0 0 1 108.945 12.902 A 247.385 247.385 0 0 1 108.947 13.724 L 108.947 15.251 L 108.947 16.711 A 10.816 10.816 0 0 1 108.929 17.354 A 8.086 8.086 0 0 1 108.874 17.935 Z M 17.334 10.495 A 6.967 6.967 0 0 0 16.79 13.241 A 8.609 8.609 0 0 0 16.834 14.121 A 7.001 7.001 0 0 0 17.346 16.155 A 7.706 7.706 0 0 0 17.435 16.357 A 6.691 6.691 0 0 0 18.856 18.39 Q 19.811 19.316 21.08 19.827 Q 22.349 20.338 23.764 20.338 A 7.193 7.193 0 0 0 25.589 20.108 A 7.029 7.029 0 0 0 27.245 19.446 A 6.831 6.831 0 0 0 28.666 18.39 A 6.547 6.547 0 0 0 29.772 16.98 A 6.478 6.478 0 0 0 29.924 16.706 A 7.096 7.096 0 0 0 30.485 15.251 A 7.081 7.081 0 0 0 30.602 14.741 A 8.022 8.022 0 0 0 30.738 13.241 A 8.568 8.568 0 0 0 30.737 13.127 A 7.558 7.558 0 0 0 30.244 10.495 Q 29.75 9.209 28.834 8.249 A 6.411 6.411 0 0 0 28.659 8.072 A 6.686 6.686 0 0 0 26.633 6.733 A 6.507 6.507 0 0 0 25.451 6.353 A 7.809 7.809 0 0 0 23.764 6.177 Q 22.315 6.177 21.046 6.733 A 7.08 7.08 0 0 0 18.828 8.249 Q 17.879 9.209 17.334 10.495 Z M 77.732 10.495 A 6.967 6.967 0 0 0 77.187 13.241 A 8.609 8.609 0 0 0 77.231 14.121 A 7.001 7.001 0 0 0 77.743 16.155 A 7.706 7.706 0 0 0 77.832 16.357 A 6.691 6.691 0 0 0 79.253 18.39 Q 80.208 19.316 81.477 19.827 Q 82.746 20.338 84.161 20.338 A 7.193 7.193 0 0 0 85.986 20.108 A 7.029 7.029 0 0 0 87.643 19.446 A 6.831 6.831 0 0 0 89.063 18.39 A 6.547 6.547 0 0 0 90.169 16.98 A 6.478 6.478 0 0 0 90.322 16.706 A 7.096 7.096 0 0 0 90.883 15.251 A 7.081 7.081 0 0 0 90.999 14.741 A 8.022 8.022 0 0 0 91.135 13.241 A 8.568 8.568 0 0 0 91.135 13.127 A 7.558 7.558 0 0 0 90.641 10.495 Q 90.147 9.209 89.232 8.249 A 6.411 6.411 0 0 0 89.057 8.072 A 6.686 6.686 0 0 0 87.031 6.733 A 6.507 6.507 0 0 0 85.848 6.353 A 7.809 7.809 0 0 0 84.161 6.177 Q 82.712 6.177 81.443 6.733 A 7.08 7.08 0 0 0 79.225 8.249 Q 78.276 9.209 77.732 10.495 Z M 53.176 19.17 Q 53.176 18.89 53.204 18.699 A 15.084 15.084 0 0 0 53.232 18.498 A 19.868 19.868 0 0 0 53.261 18.278 Q 53.289 18.047 53.317 17.733 Q 53.345 17.418 53.345 16.879 A 704.704 704.704 0 0 0 53.334 12.887 A 264.372 264.372 0 0 0 53.314 10.847 A 311.802 311.802 0 0 0 53.277 8.692 A 22.846 22.846 0 0 1 53.11 8.703 Q 53.009 8.709 52.896 8.715 Q 52.682 8.726 52.452 8.732 Q 52.222 8.737 52.008 8.743 A 17.652 17.652 0 0 1 51.818 8.747 Q 51.729 8.748 51.649 8.749 A 10.362 10.362 0 0 1 51.627 8.749 A 1.414 1.414 0 0 1 51.268 8.701 A 1.6 1.6 0 0 1 51.217 8.687 A 1.007 1.007 0 0 1 50.84 8.479 A 1.088 1.088 0 0 1 50.639 8.245 A 1.367 1.367 0 0 1 50.56 8.103 A 1.042 1.042 0 0 1 50.477 7.855 Q 50.454 7.741 50.449 7.61 A 1.916 1.916 0 0 1 50.447 7.536 Q 50.447 7.099 50.619 6.817 A 0.924 0.924 0 0 1 50.767 6.632 A 1.055 1.055 0 0 1 51.525 6.323 A 9.119 9.119 0 0 1 52.373 6.362 A 8.881 8.881 0 0 0 53.199 6.401 A 8.82 8.82 0 0 0 54.03 6.362 A 8.944 8.944 0 0 1 54.532 6.328 A 7.48 7.48 0 0 1 54.816 6.323 Q 55.389 6.323 55.636 6.626 Q 55.883 6.929 55.883 7.468 A 5.171 5.171 0 0 1 55.804 8.372 Q 55.726 8.816 55.726 9.321 Q 55.726 10.332 55.714 11.354 A 366.547 366.547 0 0 0 55.698 13.432 A 9935.448 9935.448 0 0 0 55.686 15.588 Q 55.681 16.688 55.703 17.856 A 1.574 1.574 0 0 0 55.89 17.834 A 1.229 1.229 0 0 0 56.029 17.8 Q 56.175 17.755 56.31 17.705 Q 56.444 17.654 56.596 17.615 A 1.189 1.189 0 0 1 56.768 17.584 A 1.605 1.605 0 0 1 56.939 17.576 Q 57.231 17.576 57.416 17.643 A 0.906 0.906 0 0 1 57.569 17.715 A 0.671 0.671 0 0 1 57.713 17.828 A 0.716 0.716 0 0 1 57.85 18.037 A 0.882 0.882 0 0 1 57.882 18.12 A 3.901 3.901 0 0 1 57.948 18.349 A 4.697 4.697 0 0 1 57.983 18.497 Q 58.028 18.797 57.938 19.028 A 0.835 0.835 0 0 1 57.725 19.339 Q 57.388 19.653 56.804 19.833 A 60.032 60.032 0 0 1 56.113 20.013 A 36.676 36.676 0 0 1 55.769 20.098 A 30.503 30.503 0 0 1 55.445 20.176 A 12.298 12.298 0 0 1 55.144 20.242 A 9.005 9.005 0 0 1 54.872 20.293 A 4.614 4.614 0 0 1 54.75 20.313 Q 54.618 20.332 54.523 20.337 A 1.155 1.155 0 0 1 54.468 20.338 A 2.254 2.254 0 0 1 54.109 20.312 Q 53.713 20.248 53.491 20.03 Q 53.18 19.724 53.176 19.183 A 1.915 1.915 0 0 1 53.176 19.17 Z M 62.835 13.274 Q 62.835 14.274 63.132 15.127 A 4.633 4.633 0 0 0 63.654 16.187 A 4.114 4.114 0 0 0 63.974 16.604 Q 64.519 17.228 65.294 17.576 A 3.963 3.963 0 0 0 66.478 17.893 A 4.926 4.926 0 0 0 67.035 17.924 A 5.803 5.803 0 0 0 67.999 17.847 A 4.327 4.327 0 0 0 68.955 17.576 A 3.962 3.962 0 0 0 70.011 16.933 A 3.644 3.644 0 0 0 70.348 16.604 A 4.159 4.159 0 0 0 71.134 15.311 A 4.826 4.826 0 0 0 71.201 15.127 A 5.469 5.469 0 0 0 71.475 13.765 A 6.49 6.49 0 0 0 71.493 13.274 A 6.948 6.948 0 0 0 71.311 11.666 A 6.4 6.4 0 0 0 71.246 11.416 A 4.503 4.503 0 0 0 70.783 10.321 A 4.009 4.009 0 0 0 70.477 9.877 A 3.671 3.671 0 0 0 69.291 8.908 A 4.311 4.311 0 0 0 69.14 8.833 Q 68.35 8.457 67.269 8.446 A 6.435 6.435 0 0 0 67.203 8.445 Q 66.204 8.445 65.401 8.822 A 4.16 4.16 0 0 0 64.025 9.849 Q 63.452 10.5 63.143 11.382 A 5.573 5.573 0 0 0 62.842 12.962 A 6.426 6.426 0 0 0 62.835 13.274 Z M 19.384 13.241 A 6.499 6.499 0 0 0 19.469 14.317 A 5.163 5.163 0 0 0 19.687 15.172 A 4.398 4.398 0 0 0 20.191 16.188 A 3.866 3.866 0 0 0 20.557 16.649 Q 21.125 17.261 21.933 17.593 A 4.413 4.413 0 0 0 23.081 17.885 A 5.585 5.585 0 0 0 23.752 17.924 Q 24.651 17.924 25.448 17.621 A 4.007 4.007 0 0 0 26.846 16.728 Q 27.447 16.138 27.801 15.262 A 4.732 4.732 0 0 0 28.087 14.191 A 6.384 6.384 0 0 0 28.155 13.241 A 5.369 5.369 0 0 0 27.857 11.449 A 4.431 4.431 0 0 0 27.199 10.216 A 4.142 4.142 0 0 0 26.998 9.973 A 4.041 4.041 0 0 0 25.731 9.027 A 4.667 4.667 0 0 0 25.617 8.973 A 4.144 4.144 0 0 0 24.444 8.646 A 5.294 5.294 0 0 0 23.752 8.603 A 5.02 5.02 0 0 0 22.767 8.695 A 3.919 3.919 0 0 0 21.899 8.973 A 4.122 4.122 0 0 0 20.61 9.885 A 3.977 3.977 0 0 0 20.529 9.973 A 4.254 4.254 0 0 0 19.713 11.344 A 4.871 4.871 0 0 0 19.676 11.449 Q 19.384 12.297 19.384 13.241 Z M 79.781 13.241 A 6.499 6.499 0 0 0 79.867 14.317 A 5.163 5.163 0 0 0 80.085 15.172 A 4.398 4.398 0 0 0 80.589 16.188 A 3.866 3.866 0 0 0 80.955 16.649 Q 81.522 17.261 82.331 17.593 A 4.413 4.413 0 0 0 83.479 17.885 A 5.585 5.585 0 0 0 84.15 17.924 Q 85.048 17.924 85.846 17.621 A 4.007 4.007 0 0 0 87.244 16.728 Q 87.845 16.138 88.199 15.262 A 4.732 4.732 0 0 0 88.485 14.191 A 6.384 6.384 0 0 0 88.552 13.241 A 5.369 5.369 0 0 0 88.255 11.449 A 4.431 4.431 0 0 0 87.597 10.216 A 4.142 4.142 0 0 0 87.396 9.973 A 4.041 4.041 0 0 0 86.128 9.027 A 4.667 4.667 0 0 0 86.014 8.973 A 4.144 4.144 0 0 0 84.841 8.646 A 5.294 5.294 0 0 0 84.15 8.603 A 5.02 5.02 0 0 0 83.164 8.695 A 3.919 3.919 0 0 0 82.297 8.973 A 4.122 4.122 0 0 0 81.007 9.885 A 3.977 3.977 0 0 0 80.927 9.973 A 4.254 4.254 0 0 0 80.111 11.344 A 4.871 4.871 0 0 0 80.073 11.449 Q 79.781 12.297 79.781 13.241 Z M 35.803 13.274 A 5.383 5.383 0 0 0 36.084 14.998 A 4.67 4.67 0 0 0 36.898 16.486 Q 37.431 17.138 38.195 17.531 A 3.555 3.555 0 0 0 39.454 17.899 A 4.404 4.404 0 0 0 39.924 17.924 A 4.762 4.762 0 0 0 41.407 17.682 Q 42.148 17.441 42.771 16.997 A 4.701 4.701 0 0 0 43.855 15.919 A 3.716 3.716 0 0 0 44.484 14.487 L 44.484 13.735 Q 44.484 13.534 44.481 13.373 A 13.15 13.15 0 0 0 44.478 13.235 Q 44.473 13.027 44.473 12.853 L 44.473 12.455 A 5.42 5.42 0 0 0 43.894 10.944 A 4.856 4.856 0 0 0 42.923 9.726 A 4.485 4.485 0 0 0 41.637 8.911 Q 40.924 8.614 40.127 8.614 A 4.52 4.52 0 0 0 38.885 8.78 A 4.079 4.079 0 0 0 38.403 8.951 Q 37.611 9.288 37.033 9.9 A 4.262 4.262 0 0 0 36.248 11.083 A 5.017 5.017 0 0 0 36.128 11.371 A 5.017 5.017 0 0 0 35.835 12.64 A 6.183 6.183 0 0 0 35.803 13.274 Z M 55.097 4.537 Q 54.827 4.661 54.535 4.655 A 1.311 1.311 0 0 1 54.166 4.597 A 1.177 1.177 0 0 1 54.002 4.531 A 1.211 1.211 0 0 1 53.615 4.23 A 1.41 1.41 0 0 1 53.581 4.189 A 1.058 1.058 0 0 1 53.378 3.765 A 1.302 1.302 0 0 1 53.356 3.65 A 1.116 1.116 0 0 1 53.343 3.516 Q 53.34 3.415 53.352 3.302 A 1.962 1.962 0 0 1 53.373 3.161 A 5.467 5.467 0 0 1 53.487 2.671 A 6.035 6.035 0 0 1 53.508 2.6 A 21.833 21.833 0 0 0 53.665 2.038 A 3.865 3.865 0 0 0 53.722 1.791 Q 53.745 1.675 53.757 1.569 A 2.308 2.308 0 0 0 53.76 1.539 A 1.735 1.735 0 0 1 53.835 1.129 A 1.327 1.327 0 0 1 54.064 0.696 Q 54.333 0.359 54.872 0.281 Q 55.265 0.213 55.613 0.326 A 0.801 0.801 0 0 1 56.06 0.686 A 1.139 1.139 0 0 1 56.13 0.82 A 1.367 1.367 0 0 1 56.182 0.953 Q 56.206 1.025 56.225 1.106 Q 56.265 1.269 56.287 1.393 A 0.888 0.888 0 0 1 56.291 1.446 Q 56.295 1.543 56.282 1.673 Q 56.265 1.842 56.22 2.027 A 4.596 4.596 0 0 1 56.113 2.398 A 6.182 6.182 0 0 1 56.068 2.53 Q 56.044 2.595 56.022 2.652 A 3.356 3.356 0 0 1 55.995 2.718 A 1.363 1.363 0 0 0 55.877 3.128 Q 55.849 3.347 55.815 3.526 A 9.365 9.365 0 0 1 55.782 3.698 A 6.952 6.952 0 0 1 55.748 3.852 Q 55.714 3.998 55.641 4.122 A 0.759 0.759 0 0 1 55.516 4.279 A 0.944 0.944 0 0 1 55.439 4.346 A 1.103 1.103 0 0 1 55.32 4.426 Q 55.26 4.462 55.188 4.497 A 2.238 2.238 0 0 1 55.097 4.537 Z" vector-effect="non-scaling-stroke"/></g></svg>