<?xml version="1.0" standalone="no"?>
<!DOCTYPE svg PUBLIC "-//W3C//DTD SVG 20010904//EN"
 "http://www.w3.org/TR/2001/REC-SVG-20010904/DTD/svg10.dtd">
<svg width="96.38" height="23.427" viewBox="0 0 96.38 23.427" xmlns="http://www.w3.org/2000/svg">
    <g id="svgGroup" stroke-linecap="round" fill-rule="evenodd" font-size="9pt"  fill="none" style="stroke:#000;stroke-width:0.25mm;fill:none">
        <path stroke="white" stroke-width="0.5mm" d="M 59.566 5.66 L 61.992 5.66 L 61.97 18.328 A 8 8 0 0 1 61.828 19.412 Q 61.712 19.976 61.515 20.45 A 4.65 4.65 0 0 1 61.42 20.664 A 5.243 5.243 0 0 1 60.782 21.692 A 4.443 4.443 0 0 1 60.24 22.259 A 4.273 4.273 0 0 1 58.578 23.157 A 7.1 7.1 0 0 1 57.022 23.414 A 8.287 8.287 0 0 1 56.557 23.427 A 7.319 7.319 0 0 1 54.075 22.989 Q 52.851 22.551 52.042 21.518 L 53.614 19.968 Q 53.839 20.35 54.187 20.597 A 3.114 3.114 0 0 0 54.739 20.912 A 2.793 2.793 0 0 0 54.906 20.979 A 3.857 3.857 0 0 0 55.647 21.17 Q 55.979 21.22 56.247 21.225 A 3.169 3.169 0 0 0 56.31 21.226 A 3.855 3.855 0 0 0 57.214 21.126 A 2.577 2.577 0 0 0 58.488 20.417 A 2.304 2.304 0 0 0 58.967 19.65 Q 59.244 18.953 59.271 17.893 A 9.195 9.195 0 0 0 59.274 17.655 L 59.274 6.941 L 59.566 5.66 Z M 86.901 1.775 L 86.901 18.328 L 84.161 18.328 L 84.161 5.638 L 81.893 7.907 L 79.961 5.975 L 84.161 1.775 L 86.901 1.775 Z M 96.38 1.775 L 96.38 18.328 L 93.64 18.328 L 93.64 5.638 L 91.371 7.907 L 89.44 5.975 L 93.64 1.775 L 96.38 1.775 Z M 36.993 6.155 L 36.993 8.535 A 3.233 3.233 0 0 0 36.14 7.884 A 2.181 2.181 0 0 0 35.281 7.644 A 2.632 2.632 0 0 0 35.084 7.637 A 2.371 2.371 0 0 0 34.332 7.753 A 2.119 2.119 0 0 0 33.849 7.985 Q 33.31 8.333 32.939 8.94 A 4.742 4.742 0 0 0 32.525 9.813 A 5.841 5.841 0 0 0 32.366 10.332 A 6.49 6.49 0 0 0 32.177 11.575 A 7.628 7.628 0 0 0 32.164 12.017 A 6.337 6.337 0 0 0 32.261 13.143 A 5.42 5.42 0 0 0 32.389 13.69 A 5.542 5.542 0 0 0 32.691 14.502 A 4.457 4.457 0 0 0 32.995 15.049 A 3.07 3.07 0 0 0 33.6 15.735 A 2.784 2.784 0 0 0 33.927 15.97 A 2.258 2.258 0 0 0 35.129 16.307 A 2.353 2.353 0 0 0 36.872 15.562 A 3.118 3.118 0 0 0 36.993 15.431 L 36.993 17.767 Q 36.454 18.059 35.747 18.25 A 5.632 5.632 0 0 1 34.448 18.438 A 6.356 6.356 0 0 1 34.253 18.441 A 4.966 4.966 0 0 1 32.49 18.115 A 3.877 3.877 0 0 1 31.125 17.23 A 4.615 4.615 0 0 1 30.951 17.048 A 5.645 5.645 0 0 1 29.99 15.502 A 7.153 7.153 0 0 1 29.693 14.656 A 10.378 10.378 0 0 1 29.289 11.815 A 10.602 10.602 0 0 1 29.357 10.58 Q 29.431 9.947 29.587 9.41 A 5.476 5.476 0 0 1 29.772 8.872 A 6.532 6.532 0 0 1 30.286 7.855 A 4.877 4.877 0 0 1 31.019 6.941 A 4.757 4.757 0 0 1 32.19 6.097 A 4.345 4.345 0 0 1 32.714 5.874 Q 33.647 5.548 34.545 5.548 A 5.555 5.555 0 0 1 35.632 5.652 A 5.041 5.041 0 0 1 35.87 5.705 A 4.507 4.507 0 0 1 36.595 5.951 A 3.765 3.765 0 0 1 36.993 6.155 Z M 58.354 6.155 L 58.354 8.535 Q 57.994 8.131 57.511 7.884 A 2.26 2.26 0 0 0 56.467 7.637 A 2.243 2.243 0 0 0 55.243 7.985 A 3.039 3.039 0 0 0 54.384 8.81 A 3.531 3.531 0 0 0 54.311 8.917 A 4.186 4.186 0 0 0 53.904 9.726 A 5.305 5.305 0 0 0 53.727 10.287 A 6.529 6.529 0 0 0 53.529 11.678 A 7.415 7.415 0 0 0 53.524 11.949 A 6.748 6.748 0 0 0 53.645 13.24 A 5.994 5.994 0 0 0 53.738 13.645 A 5.137 5.137 0 0 0 54.015 14.432 A 4.037 4.037 0 0 0 54.344 15.027 A 3.307 3.307 0 0 0 54.983 15.738 A 3 3 0 0 0 55.288 15.959 A 2.243 2.243 0 0 0 56.512 16.307 A 2.298 2.298 0 0 0 57.131 16.226 A 1.987 1.987 0 0 0 57.523 16.071 Q 57.972 15.835 58.354 15.453 L 58.354 17.789 A 5.991 5.991 0 0 1 57.707 18.064 A 7.865 7.865 0 0 1 57.118 18.25 Q 56.422 18.441 55.636 18.441 A 4.861 4.861 0 0 1 54.474 18.307 A 3.892 3.892 0 0 1 53.435 17.89 Q 52.491 17.34 51.862 16.419 Q 51.233 15.498 50.941 14.308 Q 50.649 13.117 50.649 11.815 A 10.602 10.602 0 0 1 50.717 10.58 Q 50.792 9.947 50.947 9.41 A 5.476 5.476 0 0 1 51.132 8.872 A 6.782 6.782 0 0 1 51.644 7.853 A 5.067 5.067 0 0 1 52.368 6.929 A 4.503 4.503 0 0 1 53.46 6.116 A 4.079 4.079 0 0 1 54.052 5.863 A 5.959 5.959 0 0 1 55.318 5.579 A 5.252 5.252 0 0 1 55.883 5.548 A 5.555 5.555 0 0 1 56.97 5.652 A 5.041 5.041 0 0 1 57.208 5.705 A 4.741 4.741 0 0 1 58.054 6.001 A 4.185 4.185 0 0 1 58.354 6.155 Z M 6.357 1.528 L 6.357 3.774 A 3.762 3.762 0 0 0 4.964 4.279 A 3.367 3.367 0 0 0 4.194 4.926 A 4.357 4.357 0 0 0 3.818 5.413 Q 3.324 6.155 3.044 7.289 A 9.432 9.432 0 0 0 2.847 8.361 Q 2.777 8.916 2.752 9.545 A 17.183 17.183 0 0 0 2.74 9.973 A 15.662 15.662 0 0 0 2.801 11.176 Q 2.853 11.744 2.948 12.236 A 8.153 8.153 0 0 0 3.044 12.668 A 7.703 7.703 0 0 0 3.33 13.582 Q 3.54 14.125 3.818 14.555 A 4.18 4.18 0 0 0 4.355 15.229 A 3.271 3.271 0 0 0 4.975 15.723 Q 5.638 16.127 6.357 16.217 L 6.357 18.418 Q 4.986 18.328 3.83 17.744 Q 2.673 17.16 1.819 16.105 A 7.012 7.012 0 0 1 0.937 14.681 A 9.185 9.185 0 0 1 0.483 13.511 A 10.136 10.136 0 0 1 0.11 11.774 Q 0.002 10.939 0 10.003 A 16.493 16.493 0 0 1 0 9.973 A 14.07 14.07 0 0 1 0.103 8.23 Q 0.215 7.33 0.451 6.55 A 8.6 8.6 0 0 1 0.483 6.447 A 8.901 8.901 0 0 1 1.059 5.037 A 6.909 6.909 0 0 1 1.819 3.864 Q 2.673 2.808 3.83 2.224 A 6.745 6.745 0 0 1 6.229 1.539 A 7.685 7.685 0 0 1 6.357 1.528 Z M 37.914 0.876 L 40.654 0.876 L 40.654 18.328 L 38.071 18.328 L 37.914 16.823 L 37.914 0.876 Z M 21.181 7.704 L 21.181 5.593 A 5.655 5.655 0 0 1 22.769 5.902 A 5.093 5.093 0 0 1 23.427 6.188 A 5.213 5.213 0 0 1 25.123 7.581 Q 25.808 8.446 26.19 9.591 A 7.569 7.569 0 0 1 26.565 11.696 A 8.683 8.683 0 0 1 26.571 12.039 A 7.64 7.64 0 0 1 26.359 13.862 A 6.852 6.852 0 0 1 26.178 14.476 A 6.622 6.622 0 0 1 25.513 15.869 A 5.812 5.812 0 0 1 25.089 16.453 A 5.338 5.338 0 0 1 23.382 17.812 A 5.733 5.733 0 0 1 21.181 18.418 L 21.181 16.262 A 2.625 2.625 0 0 0 22.6 15.41 A 3.811 3.811 0 0 0 23.011 14.847 A 4.793 4.793 0 0 0 23.619 13.203 A 6.515 6.515 0 0 0 23.719 12.039 A 7.279 7.279 0 0 0 23.639 10.944 A 6.253 6.253 0 0 0 23.55 10.478 A 5.022 5.022 0 0 0 23.257 9.583 A 4.312 4.312 0 0 0 23.045 9.164 A 3.651 3.651 0 0 0 22.571 8.513 A 3.138 3.138 0 0 0 22.236 8.198 A 2.365 2.365 0 0 0 21.181 7.704 Z M 72.324 7.704 L 72.324 5.593 A 5.655 5.655 0 0 1 73.913 5.902 A 5.093 5.093 0 0 1 74.57 6.188 A 5.213 5.213 0 0 1 76.266 7.581 Q 76.951 8.446 77.333 9.591 A 7.569 7.569 0 0 1 77.708 11.696 A 8.683 8.683 0 0 1 77.715 12.039 A 7.64 7.64 0 0 1 77.503 13.862 A 6.852 6.852 0 0 1 77.322 14.476 A 6.622 6.622 0 0 1 76.657 15.869 A 5.812 5.812 0 0 1 76.232 16.453 A 5.338 5.338 0 0 1 74.525 17.812 A 5.733 5.733 0 0 1 72.324 18.418 L 72.324 16.262 A 2.625 2.625 0 0 0 73.743 15.41 A 3.811 3.811 0 0 0 74.155 14.847 A 4.793 4.793 0 0 0 74.763 13.203 A 6.515 6.515 0 0 0 74.862 12.039 A 7.279 7.279 0 0 0 74.783 10.944 A 6.253 6.253 0 0 0 74.694 10.478 A 5.022 5.022 0 0 0 74.4 9.583 A 4.312 4.312 0 0 0 74.189 9.164 A 3.651 3.651 0 0 0 73.715 8.513 A 3.138 3.138 0 0 0 73.38 8.198 A 2.365 2.365 0 0 0 72.324 7.704 Z M 20.26 5.615 L 20.26 7.704 A 2.552 2.552 0 0 0 18.816 8.608 A 3.694 3.694 0 0 0 18.463 9.119 A 4.906 4.906 0 0 0 17.9 10.673 A 6.749 6.749 0 0 0 17.789 11.927 A 7.329 7.329 0 0 0 17.882 13.111 A 6.446 6.446 0 0 0 17.958 13.499 A 5.729 5.729 0 0 0 18.193 14.283 A 4.67 4.67 0 0 0 18.441 14.824 A 3.421 3.421 0 0 0 18.891 15.475 A 2.952 2.952 0 0 0 19.215 15.79 A 2.111 2.111 0 0 0 20.26 16.262 L 20.26 18.418 A 5.857 5.857 0 0 1 18.812 18.135 A 5.085 5.085 0 0 1 18.036 17.801 Q 17.048 17.273 16.352 16.419 A 5.933 5.933 0 0 1 15.435 14.839 A 6.968 6.968 0 0 1 15.285 14.42 A 7.782 7.782 0 0 1 14.916 12.154 A 8.76 8.76 0 0 1 14.914 11.994 A 7.834 7.834 0 0 1 15.095 10.288 A 6.872 6.872 0 0 1 15.296 9.569 A 6.222 6.222 0 0 1 16.052 8.042 A 5.663 5.663 0 0 1 16.385 7.603 A 5.548 5.548 0 0 1 18.081 6.244 A 5.773 5.773 0 0 1 20.038 5.64 A 6.658 6.658 0 0 1 20.26 5.615 Z M 71.403 5.615 L 71.403 7.704 A 2.552 2.552 0 0 0 69.959 8.608 A 3.694 3.694 0 0 0 69.607 9.119 A 4.906 4.906 0 0 0 69.044 10.673 A 6.749 6.749 0 0 0 68.933 11.927 A 7.329 7.329 0 0 0 69.025 13.111 A 6.446 6.446 0 0 0 69.101 13.499 A 5.729 5.729 0 0 0 69.337 14.283 A 4.67 4.67 0 0 0 69.584 14.824 A 3.421 3.421 0 0 0 70.034 15.475 A 2.952 2.952 0 0 0 70.359 15.79 A 2.111 2.111 0 0 0 71.403 16.262 L 71.403 18.418 A 5.857 5.857 0 0 1 69.956 18.135 A 5.085 5.085 0 0 1 69.18 17.801 Q 68.191 17.273 67.495 16.419 A 5.933 5.933 0 0 1 66.579 14.839 A 6.968 6.968 0 0 1 66.428 14.42 A 7.782 7.782 0 0 1 66.059 12.154 A 8.76 8.76 0 0 1 66.058 11.994 A 7.834 7.834 0 0 1 66.238 10.288 A 6.872 6.872 0 0 1 66.44 9.569 A 6.222 6.222 0 0 1 67.195 8.042 A 5.663 5.663 0 0 1 67.529 7.603 A 5.548 5.548 0 0 1 69.225 6.244 A 5.773 5.773 0 0 1 71.182 5.64 A 6.658 6.658 0 0 1 71.403 5.615 Z M 47.213 5.66 L 47.213 18.328 L 44.473 18.328 L 44.473 5.66 L 47.213 5.66 Z M 11.5 3.302 L 9.636 4.964 A 4.254 4.254 0 0 0 9.111 4.46 A 3.24 3.24 0 0 0 8.535 4.088 A 3.27 3.27 0 0 0 7.277 3.751 L 7.277 1.528 A 6.646 6.646 0 0 1 9.714 2.081 A 6.135 6.135 0 0 1 11.5 3.302 Z M 7.277 18.441 L 7.277 16.217 A 3.691 3.691 0 0 0 8.546 15.858 A 3.34 3.34 0 0 0 9.35 15.299 A 4.095 4.095 0 0 0 9.636 15.004 L 11.5 16.644 A 6.201 6.201 0 0 1 9.591 17.924 Q 8.535 18.373 7.277 18.441 Z M 47.46 1.617 Q 47.46 2.291 46.988 2.752 Q 46.517 3.212 45.843 3.212 Q 45.169 3.212 44.709 2.74 Q 44.248 2.269 44.248 1.617 A 1.558 1.558 0 0 1 44.705 0.487 A 1.857 1.857 0 0 1 44.72 0.472 A 1.591 1.591 0 0 1 45.303 0.092 A 1.567 1.567 0 0 1 45.843 0 A 1.558 1.558 0 0 1 46.974 0.457 A 1.857 1.857 0 0 1 46.988 0.472 Q 47.46 0.944 47.46 1.617 Z" vector-effect="non-scaling-stroke"/>
    </g>
</svg>
