<?xml version="1.0" standalone="no"?>
<!DOCTYPE svg PUBLIC "-//W3C//DTD SVG 20010904//EN"
 "http://www.w3.org/TR/2001/REC-SVG-20010904/DTD/svg10.dtd">
<svg width="113.473" height="17.07" viewBox="0 0 113.473 17.07" xmlns="http://www.w3.org/2000/svg"><g id="svgGroup" stroke-linecap="round" fill-rule="evenodd" font-size="9pt" stroke="#000" stroke-width="0.5mm" fill="none" style="stroke:#000;stroke-width:0.5mm;fill:none"><path stroke="white" d="M 60.723 0.64 L 60.723 0.696 A 0.221 0.221 0 0 1 60.777 0.686 A 0.261 0.261 0 0 1 60.796 0.685 L 60.869 0.685 A 0.929 0.929 0 0 1 61.217 0.752 A 0.929 0.929 0 0 0 61.565 0.82 Q 61.745 0.82 61.942 0.803 Q 62.138 0.786 62.335 0.736 Q 62.531 0.685 62.694 0.595 Q 62.857 0.505 62.969 0.371 A 0.441 0.441 0 0 1 63.309 0.527 A 0.69 0.69 0 0 1 63.374 0.612 A 1.835 1.835 0 0 1 63.54 0.938 A 2.347 2.347 0 0 1 63.621 1.179 Q 63.71 1.505 63.75 1.836 Q 63.782 2.109 63.788 2.279 A 2.034 2.034 0 0 1 63.789 2.347 Q 63.789 2.617 63.75 2.886 A 2.391 2.391 0 0 1 63.609 3.414 Q 63.632 3.56 63.705 3.672 A 2.933 2.933 0 0 0 63.862 3.891 A 1.816 1.816 0 0 1 64.014 4.116 A 0.516 0.516 0 0 1 64.08 4.353 A 0.616 0.616 0 0 1 64.081 4.38 A 1.049 1.049 0 0 0 64.038 4.523 Q 63.997 4.7 63.986 4.958 Q 63.969 5.334 63.918 5.711 Q 63.868 6.087 63.727 6.362 Q 63.607 6.598 63.35 6.632 A 0.685 0.685 0 0 1 63.261 6.637 A 0.53 0.53 0 0 1 62.879 6.486 A 1.014 1.014 0 0 1 62.664 6.19 A 0.968 0.968 0 0 1 62.644 6.143 L 62.666 6.154 A 0.229 0.229 0 0 0 62.722 6.148 Q 62.812 6.125 62.812 6.02 Q 62.812 5.988 62.749 5.937 A 0.585 0.585 0 0 0 62.739 5.93 A 3.33 3.33 0 0 0 62.662 5.872 A 4.289 4.289 0 0 0 62.576 5.812 L 62.396 5.688 A 0.939 0.939 0 0 1 62.34 5.646 Q 62.291 5.607 62.262 5.57 A 0.995 0.995 0 0 1 62.188 5.464 Q 62.139 5.382 62.093 5.278 Q 62.015 5.099 61.958 4.891 A 4.119 4.119 0 0 1 61.869 4.475 A 2.696 2.696 0 0 1 61.841 4.25 A 2.125 2.125 0 0 1 61.835 4.088 L 61.835 3.987 Q 61.835 3.942 61.846 3.897 L 61.835 3.908 Q 61.802 3.897 61.7 3.769 A 2.88 2.88 0 0 1 61.695 3.762 A 374.095 374.095 0 0 0 61.582 3.62 A 500.062 500.062 0 0 0 61.459 3.465 A 43.509 43.509 0 0 1 61.271 3.227 A 38.534 38.534 0 0 1 61.212 3.15 A 59.679 59.679 0 0 0 61.16 3.084 Q 61.101 3.009 61.067 2.966 A 5.951 5.951 0 0 0 61.049 2.942 A 3.544 3.544 0 0 0 60.566 2.538 A 3.544 3.544 0 0 1 60.083 2.134 A 1.24 1.24 0 0 1 59.898 2.229 A 0.512 0.512 0 0 1 59.701 2.269 A 0.336 0.336 0 0 1 59.64 2.263 Q 59.591 2.254 59.555 2.229 A 1.137 1.137 0 0 1 59.471 2.164 A 1.317 1.317 0 0 1 59.443 2.139 A 1.064 1.064 0 0 0 59.336 2.055 A 1.186 1.186 0 0 0 59.319 2.044 A 0.246 0.246 0 0 0 59.247 2.012 Q 59.2 1.999 59.14 1.999 A 2.007 2.007 0 0 0 58.662 2.055 A 2.007 2.007 0 0 1 58.185 2.111 A 1.365 1.365 0 0 1 57.676 2.011 A 1.382 1.382 0 0 1 57.674 2.01 Q 57.421 1.909 57.152 1.909 A 0.125 0.125 0 0 0 57.136 1.91 Q 57.117 1.913 57.09 1.92 A 0.596 0.596 0 0 0 57.067 1.927 Q 57.045 1.935 57.03 1.942 A 0.174 0.174 0 0 0 57.028 1.943 A 0.562 0.562 0 0 0 57.084 2.134 A 0.421 0.421 0 0 1 57.129 2.325 A 0.402 0.402 0 0 1 57.078 2.519 A 0.593 0.593 0 0 1 57 2.628 A 2.077 2.077 0 0 1 56.806 2.819 A 2.5 2.5 0 0 1 56.697 2.909 A 21.326 21.326 0 0 1 56.349 3.173 Q 56.227 3.263 56.146 3.346 A 0.916 0.916 0 0 0 56.085 3.414 Q 55.961 3.571 55.888 3.751 Q 55.815 3.931 55.748 4.105 A 1.648 1.648 0 0 1 55.574 4.436 A 0.762 0.762 0 0 1 55.377 4.633 A 0.959 0.959 0 0 1 55.276 4.694 A 1.442 1.442 0 0 1 55.344 4.925 A 1.115 1.115 0 0 1 55.366 5.144 A 1.975 1.975 0 0 1 55.356 5.352 A 1.701 1.701 0 0 1 55.344 5.441 A 1.809 1.809 0 0 0 55.323 5.656 A 2.11 2.11 0 0 0 55.321 5.739 A 4.542 4.542 0 0 0 55.377 6.452 A 4.542 4.542 0 0 1 55.434 7.165 A 3.322 3.322 0 0 1 55.383 7.743 A 10.364 10.364 0 0 1 55.265 8.316 Q 55.198 8.603 55.147 8.889 A 3.322 3.322 0 0 0 55.097 9.467 A 1.953 1.953 0 0 0 55.151 9.932 A 1.822 1.822 0 0 0 55.158 9.961 A 5.978 5.978 0 0 0 55.299 10.422 A 11.995 11.995 0 0 1 55.391 10.694 A 10.031 10.031 0 0 1 55.439 10.849 Q 55.501 11.051 55.501 11.23 A 1.379 1.379 0 0 1 55.479 11.478 A 1.379 1.379 0 0 0 55.456 11.725 A 1.813 1.813 0 0 0 55.493 12.102 A 1.297 1.297 0 0 0 55.669 12.539 Q 55.883 12.87 56.158 13.162 A 19.443 19.443 0 0 1 56.691 13.752 A 1.552 1.552 0 0 1 57.018 14.375 A 1.851 1.851 0 0 1 57.04 14.465 A 1.716 1.716 0 0 1 57.286 14.433 A 1.509 1.509 0 0 1 57.365 14.431 A 1.859 1.859 0 0 1 57.77 14.476 A 4.322 4.322 0 0 1 58.163 14.583 A 4.322 4.322 0 0 0 58.556 14.689 A 1.859 1.859 0 0 0 58.96 14.734 A 2.272 2.272 0 0 0 59.608 14.637 A 2.742 2.742 0 0 0 59.83 14.56 Q 60.274 14.386 60.65 14.094 A 3.395 3.395 0 0 0 61.307 13.42 A 2.375 2.375 0 0 0 61.588 12.93 A 2.052 2.052 0 0 0 61.689 12.623 Q 61.779 12.219 61.947 11.859 A 0.796 0.796 0 0 1 61.981 11.798 Q 62.031 11.716 62.082 11.691 A 0.635 0.635 0 0 1 62.137 11.666 Q 62.164 11.656 62.189 11.65 A 0.351 0.351 0 0 1 62.206 11.646 A 1.235 1.235 0 0 0 62.238 11.639 Q 62.271 11.632 62.294 11.624 A 0.357 0.357 0 0 0 62.295 11.624 A 0.04 0.04 0 0 0 62.318 11.603 Q 62.329 11.583 62.329 11.545 A 0.128 0.128 0 0 0 62.305 11.471 Q 62.292 11.452 62.272 11.434 A 0.289 0.289 0 0 0 62.256 11.421 A 0.191 0.191 0 0 1 62.206 11.366 A 0.177 0.177 0 0 1 62.183 11.276 Q 62.183 11.242 62.228 11.191 Q 62.259 11.156 62.298 11.114 A 14.253 14.253 0 0 1 62.335 11.073 A 0.598 0.598 0 0 0 62.407 10.975 A 0.747 0.747 0 0 0 62.441 10.91 A 0.478 0.478 0 0 0 62.486 10.717 A 0.553 0.553 0 0 0 62.486 10.703 A 0.672 0.672 0 0 0 62.466 10.533 A 0.489 0.489 0 0 0 62.352 10.321 Q 62.217 10.175 62.015 10.068 A 3.459 3.459 0 0 0 61.639 9.899 A 3.856 3.856 0 0 0 61.582 9.877 Q 61.352 9.793 61.15 9.669 A 1.158 1.158 0 0 1 60.813 9.361 Q 60.695 9.198 60.68 8.944 A 1.272 1.272 0 0 1 60.678 8.872 A 0.779 0.779 0 0 1 60.7 8.685 A 0.576 0.576 0 0 1 60.807 8.462 A 0.976 0.976 0 0 1 61.109 8.211 A 1.125 1.125 0 0 1 61.133 8.198 A 1.763 1.763 0 0 1 61.554 8.047 A 8.288 8.288 0 0 1 61.826 7.99 A 6.955 6.955 0 0 1 61.981 7.962 Q 62.114 7.94 62.268 7.88 A 1.971 1.971 0 0 0 62.273 7.878 L 62.587 7.755 A 12.157 12.157 0 0 1 62.74 7.696 A 10.094 10.094 0 0 1 62.885 7.642 Q 63.025 7.592 63.138 7.592 A 0.843 0.843 0 0 1 63.418 7.641 A 0.972 0.972 0 0 1 63.452 7.654 A 1.412 1.412 0 0 0 63.737 7.733 A 1.303 1.303 0 0 0 63.767 7.738 A 20.183 20.183 0 0 1 63.88 7.756 Q 64.054 7.785 64.285 7.825 A 54.953 54.953 0 0 1 64.3 7.828 Q 64.62 7.884 64.912 7.996 A 1.736 1.736 0 0 1 65.229 8.155 A 1.462 1.462 0 0 1 65.412 8.294 A 0.611 0.611 0 0 1 65.618 8.726 A 0.839 0.839 0 0 1 65.62 8.782 A 0.581 0.581 0 0 1 65.618 8.825 Q 65.614 8.872 65.604 8.937 A 2.618 2.618 0 0 1 65.597 8.979 Q 65.575 9.108 65.53 9.231 A 0.992 0.992 0 0 1 65.465 9.375 A 0.833 0.833 0 0 1 65.417 9.45 A 0.292 0.292 0 0 1 65.375 9.499 Q 65.323 9.546 65.26 9.546 Q 65.215 9.546 65.182 9.535 A 0.209 0.209 0 0 0 65.145 9.526 Q 65.128 9.524 65.109 9.523 A 0.35 0.35 0 0 0 65.103 9.523 A 0.164 0.164 0 0 0 65.001 9.56 A 0.25 0.25 0 0 0 64.963 9.596 Q 64.903 9.667 64.833 9.759 A 6.087 6.087 0 0 0 64.828 9.765 Q 64.755 9.86 64.659 9.933 A 0.347 0.347 0 0 1 64.516 9.997 A 0.489 0.489 0 0 1 64.418 10.006 A 0.417 0.417 0 0 1 64.382 10.005 Q 64.346 10.001 64.297 9.993 A 1.988 1.988 0 0 1 64.25 9.984 Q 64.294 10.208 64.317 10.433 A 4.512 4.512 0 0 1 64.339 10.882 Q 64.339 11.242 64.294 11.584 A 23.655 23.655 0 0 1 64.193 12.275 Q 64.137 12.623 64.092 12.971 A 5.436 5.436 0 0 0 64.047 13.667 A 5.421 5.421 0 0 0 64.109 14.487 A 5.421 5.421 0 0 1 64.171 15.307 A 2.132 2.132 0 0 1 64.153 15.574 A 2.5 2.5 0 0 1 64.137 15.683 A 1.31 1.31 0 0 1 64.03 16.027 A 1.23 1.23 0 0 1 64.019 16.048 A 0.801 0.801 0 0 1 63.789 16.329 A 0.536 0.536 0 0 1 63.539 16.433 A 0.719 0.719 0 0 1 63.43 16.441 A 0.807 0.807 0 0 1 63.226 16.417 A 0.56 0.56 0 0 1 62.941 16.245 Q 62.767 16.048 62.649 15.818 A 25.64 25.64 0 0 1 62.537 15.596 A 19.911 19.911 0 0 1 62.436 15.391 A 0.522 0.522 0 0 0 62.384 15.305 Q 62.35 15.26 62.309 15.233 A 0.223 0.223 0 0 0 62.183 15.195 A 0.194 0.194 0 0 0 62.127 15.204 Q 62.077 15.219 62.014 15.26 A 0.83 0.83 0 0 0 61.987 15.279 A 7.73 7.73 0 0 0 61.87 15.364 Q 61.809 15.409 61.742 15.461 A 12.913 12.913 0 0 0 61.723 15.476 Q 61.577 15.588 61.403 15.689 A 1.166 1.166 0 0 1 61.166 15.794 A 1.019 1.019 0 0 1 61.049 15.824 A 1.254 1.254 0 0 0 60.951 15.848 Q 60.851 15.878 60.793 15.918 A 0.253 0.253 0 0 0 60.757 15.947 Q 60.678 16.026 60.6 16.099 A 0.466 0.466 0 0 1 60.53 16.151 Q 60.464 16.193 60.369 16.228 Q 60.254 16.271 60.013 16.281 A 3.917 3.917 0 0 1 59.847 16.284 A 5.272 5.272 0 0 1 59.359 16.262 A 5.272 5.272 0 0 0 58.87 16.239 A 2.762 2.762 0 0 0 58.516 16.262 A 2.762 2.762 0 0 1 58.163 16.284 A 2.578 2.578 0 0 1 57.982 16.278 Q 57.82 16.267 57.702 16.234 A 1.618 1.618 0 0 1 57.512 16.168 A 1.294 1.294 0 0 1 57.382 16.104 Q 57.242 16.026 57.09 15.942 A 1.333 1.333 0 0 0 56.965 15.881 Q 56.85 15.832 56.703 15.79 A 15.301 15.301 0 0 1 56.617 15.763 Q 56.495 15.724 56.411 15.695 A 1.379 1.379 0 0 1 56.285 15.644 A 1.112 1.112 0 0 1 56.208 15.605 A 1.218 1.218 0 0 1 56.085 15.525 A 1.452 1.452 0 0 1 56.029 15.481 Q 55.939 15.408 55.793 15.285 A 2.139 2.139 0 0 0 55.685 15.209 A 2.692 2.692 0 0 0 55.591 15.15 Q 55.479 15.083 55.377 15.01 A 0.926 0.926 0 0 1 55.233 14.881 A 0.838 0.838 0 0 1 55.203 14.847 Q 55.13 14.757 55.119 14.622 A 0.967 0.967 0 0 0 55.113 14.575 Q 55.105 14.528 55.094 14.497 A 0.189 0.189 0 0 0 55.085 14.476 A 0.17 0.17 0 0 0 55.057 14.435 A 0.145 0.145 0 0 0 55.024 14.409 A 0.448 0.448 0 0 0 54.976 14.385 A 0.573 0.573 0 0 0 54.934 14.369 Q 54.883 14.353 54.805 14.308 Q 54.67 14.105 54.603 13.892 Q 54.535 13.679 54.468 13.471 Q 54.4 13.263 54.299 13.067 A 1.067 1.067 0 0 0 54.144 12.843 A 1.405 1.405 0 0 0 53.996 12.702 A 0.796 0.796 0 0 0 54.026 12.547 A 0.99 0.99 0 0 0 54.03 12.455 Q 54.03 12.219 53.94 12 A 7.499 7.499 0 0 0 53.743 11.562 Q 53.637 11.343 53.547 11.113 Q 53.457 10.882 53.457 10.624 Q 53.457 10.467 53.485 10.31 Q 53.513 10.152 53.513 9.995 A 1.707 1.707 0 0 0 53.463 9.58 A 12.387 12.387 0 0 0 53.356 9.181 A 12.387 12.387 0 0 1 53.249 8.782 Q 53.199 8.58 53.199 8.367 Q 53.199 8.299 53.204 8.226 A 1.622 1.622 0 0 1 53.218 8.103 A 1.458 1.458 0 0 1 53.221 8.086 Q 53.289 7.682 53.322 7.266 A 750.643 750.643 0 0 1 53.39 6.441 A 30.339 30.339 0 0 1 53.468 5.621 Q 53.513 5.211 53.603 4.807 Q 53.693 4.414 53.766 4.032 A 4.117 4.117 0 0 0 53.839 3.257 Q 53.916 3.151 54.039 3.036 A 2.383 2.383 0 0 1 54.08 2.999 A 20.158 20.158 0 0 0 54.384 2.723 A 2.492 2.492 0 0 0 54.608 2.488 A 2.243 2.243 0 0 0 54.653 2.431 A 0.982 0.982 0 0 0 54.735 2.309 Q 54.775 2.237 54.796 2.166 A 0.572 0.572 0 0 0 54.805 2.134 A 0.601 0.601 0 0 1 54.837 2.036 Q 54.879 1.937 54.962 1.815 A 2.24 2.24 0 0 1 54.99 1.774 A 4.173 4.173 0 0 1 55.231 1.468 A 4.874 4.874 0 0 1 55.338 1.348 A 3.234 3.234 0 0 1 55.614 1.081 A 2.758 2.758 0 0 1 55.742 0.977 A 1.556 1.556 0 0 1 55.854 0.899 Q 55.971 0.826 56.064 0.804 A 0.386 0.386 0 0 1 56.096 0.797 A 0.792 0.792 0 0 1 56.168 0.789 A 1.084 1.084 0 0 1 56.247 0.786 A 0.558 0.558 0 0 0 56.358 0.776 A 0.485 0.485 0 0 0 56.405 0.764 A 0.391 0.391 0 0 0 56.518 0.708 A 0.368 0.368 0 0 0 56.534 0.696 A 0.138 0.138 0 0 0 56.578 0.632 Q 56.587 0.608 56.589 0.579 A 0.322 0.322 0 0 0 56.59 0.55 A 0.42 0.42 0 0 0 56.58 0.461 A 0.571 0.571 0 0 0 56.557 0.382 A 9.332 9.332 0 0 0 57.758 0.191 Q 58.354 0.056 58.96 0.056 A 4.846 4.846 0 0 1 59.037 0.057 Q 59.161 0.059 59.365 0.067 A 32.266 32.266 0 0 1 59.387 0.067 A 3.574 3.574 0 0 1 59.976 0.14 A 2.287 2.287 0 0 1 60.256 0.216 A 1.739 1.739 0 0 1 60.499 0.32 A 0.555 0.555 0 0 1 60.607 0.393 A 0.317 0.317 0 0 1 60.723 0.64 Z M 10.613 12.376 L 10.523 12.365 A 0.363 0.363 0 0 0 10.408 12.382 A 0.288 0.288 0 0 0 10.253 12.505 A 1.011 1.011 0 0 0 10.167 12.675 A 1.366 1.366 0 0 0 10.113 12.842 A 3.574 3.574 0 0 0 10.034 13.241 A 4.235 4.235 0 0 1 10.016 13.359 Q 9.996 13.48 9.973 13.564 A 1.234 1.234 0 0 1 9.973 13.566 A 1.408 1.408 0 0 0 9.95 13.662 Q 9.94 13.71 9.936 13.753 A 0.749 0.749 0 0 0 9.933 13.785 A 11.831 11.831 0 0 1 9.928 13.865 Q 9.926 13.901 9.924 13.933 A 6.636 6.636 0 0 1 9.922 13.954 Q 9.917 14.026 9.873 14.103 A 0.499 0.499 0 0 1 9.872 14.105 Q 9.827 14.184 9.715 14.273 A 41.47 41.47 0 0 1 9.451 14.47 A 37.103 37.103 0 0 1 9.366 14.532 Q 9.198 14.656 9.063 14.824 A 1.342 1.342 0 0 0 9.006 14.898 Q 8.951 14.976 8.928 15.038 A 4.206 4.206 0 0 1 8.886 15.146 A 3.537 3.537 0 0 1 8.861 15.206 Q 8.827 15.285 8.754 15.346 Q 8.689 15.401 8.549 15.452 A 1.629 1.629 0 0 1 8.513 15.464 Q 8.254 15.554 8.019 15.667 Q 7.783 15.779 7.536 15.869 A 4.691 4.691 0 0 0 7.05 16.087 A 4.285 4.285 0 0 0 6.985 16.121 Q 6.727 16.262 6.458 16.385 A 4.128 4.128 0 0 1 5.902 16.593 A 2.105 2.105 0 0 1 5.41 16.674 A 2.437 2.437 0 0 1 5.29 16.677 Q 4.998 16.677 4.711 16.587 A 2.235 2.235 0 0 1 4.178 16.34 A 0.677 0.677 0 0 1 4.023 16.308 A 0.454 0.454 0 0 1 3.818 16.172 A 1.145 1.145 0 0 1 3.67 15.945 A 1.402 1.402 0 0 1 3.616 15.824 Q 3.549 15.667 3.487 15.599 A 0.407 0.407 0 0 0 3.422 15.542 A 0.32 0.32 0 0 0 3.352 15.504 Q 3.279 15.476 3.189 15.453 A 0.479 0.479 0 0 1 3.124 15.431 Q 3.09 15.417 3.054 15.398 A 1.196 1.196 0 0 1 2.976 15.352 A 4.15 4.15 0 0 1 2.121 14.613 A 4.673 4.673 0 0 1 2.055 14.538 A 16.465 16.465 0 0 1 1.28 13.555 A 0.759 0.759 0 0 1 1.192 13.384 A 0.942 0.942 0 0 1 1.162 13.291 Q 1.123 13.14 1.089 12.988 A 5.609 5.609 0 0 0 1.026 12.731 A 5.103 5.103 0 0 0 1.016 12.696 Q 0.977 12.556 0.898 12.477 A 0.942 0.942 0 0 0 0.823 12.409 Q 0.743 12.344 0.674 12.326 A 0.216 0.216 0 0 0 0.64 12.32 A 0.667 0.667 0 0 1 0.561 12.307 Q 0.521 12.299 0.488 12.285 A 0.346 0.346 0 0 1 0.455 12.269 Q 0.391 12.235 0.352 12.113 A 0.718 0.718 0 0 1 0.343 12.078 A 0.793 0.793 0 0 1 0.326 11.989 Q 0.305 11.842 0.303 11.571 A 8.193 8.193 0 0 1 0.303 11.511 A 3.292 3.292 0 0 0 0.278 11.111 A 3.813 3.813 0 0 0 0.258 10.972 A 12.64 12.64 0 0 0 0.167 10.468 A 13.964 13.964 0 0 0 0.152 10.394 A 10.229 10.229 0 0 1 0.045 9.787 A 4.248 4.248 0 0 1 0 9.175 Q 0 8.85 0.039 8.524 Q 0.079 8.198 0.135 7.873 A 223.258 223.258 0 0 1 0.247 7.227 A 6.205 6.205 0 0 0 0.326 6.581 Q 0.348 6.278 0.354 5.963 A 17.645 17.645 0 0 1 0.376 5.334 Q 0.393 5.02 0.438 4.717 A 2.795 2.795 0 0 1 0.595 4.122 A 3.113 3.113 0 0 1 0.882 3.526 A 45.126 45.126 0 0 0 1.224 2.965 Q 1.393 2.684 1.539 2.392 A 2.831 2.831 0 0 0 1.753 1.805 A 3.134 3.134 0 0 0 1.763 1.763 Q 1.808 1.55 2.044 1.365 A 2.464 2.464 0 0 1 2.29 1.196 Q 2.443 1.103 2.628 1.016 A 5.838 5.838 0 0 1 3.136 0.808 A 6.909 6.909 0 0 1 3.386 0.724 Q 3.796 0.595 4.2 0.5 A 10.266 10.266 0 0 1 4.589 0.416 A 7.813 7.813 0 0 1 4.947 0.354 A 6.37 6.37 0 0 1 5.148 0.327 Q 5.356 0.303 5.503 0.303 A 3.996 3.996 0 0 1 6.275 0.376 A 3.525 3.525 0 0 1 6.559 0.444 A 7.398 7.398 0 0 1 7.4 0.74 A 8.291 8.291 0 0 1 7.558 0.809 A 2.576 2.576 0 0 0 7.917 0.938 A 2.989 2.989 0 0 0 8.047 0.971 A 2.393 2.393 0 0 0 8.35 1.023 A 1.944 1.944 0 0 0 8.546 1.033 Q 8.782 1.033 8.9 0.949 A 0.648 0.648 0 0 0 9.052 0.799 A 0.605 0.605 0 0 0 9.085 0.747 A 2.322 2.322 0 0 0 9.154 0.618 A 1.826 1.826 0 0 0 9.198 0.522 A 0.37 0.37 0 0 1 9.259 0.422 A 0.325 0.325 0 0 1 9.333 0.359 L 9.299 0.371 Q 9.319 0.35 9.368 0.344 A 0.294 0.294 0 0 1 9.377 0.343 Q 9.434 0.337 9.501 0.337 Q 9.563 0.345 9.643 0.363 A 2.576 2.576 0 0 1 9.72 0.382 A 4.091 4.091 0 0 1 9.95 0.449 A 4.492 4.492 0 0 1 9.984 0.46 A 3.398 3.398 0 0 1 10.169 0.528 A 2.914 2.914 0 0 1 10.237 0.556 A 1.389 1.389 0 0 1 10.301 0.585 Q 10.361 0.615 10.399 0.642 A 0.336 0.336 0 0 1 10.411 0.651 Q 10.444 0.674 10.523 0.797 A 6.54 6.54 0 0 1 10.603 0.927 A 8.077 8.077 0 0 1 10.686 1.067 A 6.001 6.001 0 0 1 10.764 1.207 A 4.454 4.454 0 0 1 10.832 1.336 Q 10.894 1.46 10.894 1.494 A 1.664 1.664 0 0 0 10.945 1.912 A 1.517 1.517 0 0 0 10.978 2.021 Q 11.062 2.269 11.062 2.549 A 1.983 1.983 0 0 1 10.978 3.122 A 1.983 1.983 0 0 0 10.894 3.695 A 14.293 14.293 0 0 0 10.91 4.397 A 14.293 14.293 0 0 1 10.927 5.099 A 7.386 7.386 0 0 1 10.899 5.744 Q 10.871 6.064 10.804 6.379 A 2.543 2.543 0 0 0 10.787 6.451 Q 10.78 6.483 10.773 6.518 A 4.609 4.609 0 0 0 10.759 6.592 A 1.556 1.556 0 0 1 10.698 6.826 A 1.949 1.949 0 0 1 10.697 6.828 A 0.754 0.754 0 0 1 10.652 6.932 A 0.579 0.579 0 0 1 10.596 7.019 A 0.203 0.203 0 0 1 10.523 7.079 Q 10.483 7.098 10.433 7.098 A 0.518 0.518 0 0 1 10.338 7.089 A 0.4 0.4 0 0 1 10.253 7.064 A 1.704 1.704 0 0 1 10.203 7.073 Q 10.18 7.077 10.158 7.08 A 1.005 1.005 0 0 1 10.152 7.081 A 0.698 0.698 0 0 1 10.105 7.085 A 0.961 0.961 0 0 1 10.052 7.086 A 0.469 0.469 0 0 1 10.012 7.085 Q 9.945 7.079 9.928 7.053 Q 9.906 7.02 9.905 6.971 A 0.225 0.225 0 0 1 9.905 6.969 Q 9.905 6.921 9.89 6.864 A 0.601 0.601 0 0 0 9.888 6.856 Q 9.873 6.801 9.79 6.75 A 0.531 0.531 0 0 0 9.771 6.738 A 0.296 0.296 0 0 0 9.703 6.705 Q 9.67 6.694 9.631 6.687 A 0.606 0.606 0 0 0 9.591 6.682 A 3.879 3.879 0 0 1 9.372 6.654 A 0.531 0.531 0 0 1 9.266 6.627 A 0.426 0.426 0 0 1 9.187 6.587 Q 9.108 6.536 9.108 6.424 A 0.458 0.458 0 0 1 9.11 6.382 Q 9.116 6.313 9.145 6.299 A 0.038 0.038 0 0 1 9.158 6.295 A 0.104 0.104 0 0 1 9.17 6.294 Q 9.216 6.294 9.279 6.332 A 0.466 0.466 0 0 1 9.282 6.334 A 1.224 1.224 0 0 0 9.38 6.388 A 1.499 1.499 0 0 0 9.445 6.418 Q 9.493 6.439 9.538 6.439 A 0.188 0.188 0 0 0 9.613 6.424 Q 9.456 6.244 9.338 6.048 A 37.525 37.525 0 0 1 9.102 5.649 A 23 23 0 0 0 8.861 5.245 A 2.296 2.296 0 0 0 8.58 4.874 Q 8.445 4.728 8.355 4.537 A 12.153 12.153 0 0 1 8.181 4.15 A 4.352 4.352 0 0 0 8.037 3.845 A 3.896 3.896 0 0 0 8.002 3.779 A 0.933 0.933 0 0 0 7.838 3.561 A 0.851 0.851 0 0 0 7.76 3.493 A 6.46 6.46 0 0 0 6.703 2.842 A 7.163 7.163 0 0 0 6.62 2.802 Q 5.997 2.504 5.323 2.504 Q 4.852 2.504 4.453 2.645 A 4.244 4.244 0 0 0 3.809 2.936 A 4.828 4.828 0 0 0 3.661 3.021 A 5.207 5.207 0 0 1 3.49 3.115 A 4.15 4.15 0 0 1 3.364 3.178 A 2.371 2.371 0 0 0 3.094 3.33 Q 2.965 3.414 2.869 3.532 A 0.595 0.595 0 0 0 2.793 3.656 Q 2.766 3.715 2.746 3.785 A 1.161 1.161 0 0 0 2.729 3.852 A 1.401 1.401 0 0 0 2.678 4.229 A 1.471 1.471 0 0 0 2.678 4.268 A 0.769 0.769 0 0 1 2.679 4.288 A 0.69 0.69 0 0 1 2.572 4.661 A 0.353 0.353 0 0 1 2.484 4.755 A 0.498 0.498 0 0 1 2.398 4.807 A 0.318 0.318 0 0 0 2.317 4.86 A 0.253 0.253 0 0 0 2.246 4.975 A 1.997 1.997 0 0 0 2.139 5.514 A 14.087 14.087 0 0 0 2.117 6.087 A 31.904 31.904 0 0 1 2.1 6.677 A 2.347 2.347 0 0 1 2.022 7.201 A 2.181 2.181 0 0 1 2.01 7.244 Q 1.943 7.468 1.915 7.693 Q 1.887 7.917 1.887 8.142 Q 1.887 8.569 1.915 8.979 A 12.076 12.076 0 0 1 1.943 9.804 A 9.491 9.491 0 0 0 1.993 10.792 A 5.856 5.856 0 0 0 2.179 11.758 A 3.343 3.343 0 0 0 2.459 12.449 A 2.938 2.938 0 0 1 2.729 13.14 Q 2.773 13.325 2.885 13.531 A 2.223 2.223 0 0 0 2.892 13.544 A 2.085 2.085 0 0 0 3.173 13.937 Q 3.335 14.117 3.538 14.235 A 0.871 0.871 0 0 0 3.778 14.332 A 0.765 0.765 0 0 0 3.953 14.353 Q 4.11 14.353 4.256 14.313 A 1.161 1.161 0 0 1 4.56 14.274 A 2.046 2.046 0 0 1 4.896 14.302 A 2.046 2.046 0 0 0 5.233 14.33 A 2.602 2.602 0 0 0 5.664 14.293 A 3.115 3.115 0 0 0 5.868 14.251 A 1.101 1.101 0 0 0 6.424 13.937 A 0.9 0.9 0 0 1 6.647 13.761 A 0.815 0.815 0 0 1 6.783 13.701 A 3.905 3.905 0 0 1 7.193 13.589 Q 7.401 13.544 7.592 13.471 Q 7.783 13.398 7.929 13.207 A 0.868 0.868 0 0 0 7.985 13.117 Q 8.039 13.019 8.096 12.874 A 3.417 3.417 0 0 0 8.114 12.825 A 66.048 66.048 0 0 0 8.26 12.425 A 74.373 74.373 0 0 0 8.311 12.286 A 6.97 6.97 0 0 1 8.426 11.986 A 5.462 5.462 0 0 1 8.518 11.775 A 1.297 1.297 0 0 1 8.572 11.671 Q 8.63 11.571 8.689 11.521 A 0.245 0.245 0 0 1 8.737 11.489 Q 8.838 11.433 8.866 11.202 A 3.414 3.414 0 0 0 8.884 11.018 Q 8.89 10.916 8.893 10.8 A 6.4 6.4 0 0 0 8.895 10.658 L 8.895 10.141 Q 8.895 9.917 8.906 9.703 A 2.58 2.58 0 0 1 8.924 9.504 A 1.878 1.878 0 0 1 8.956 9.321 Q 8.988 9.187 9.044 9.095 A 0.487 0.487 0 0 1 9.074 9.052 A 0.251 0.251 0 0 1 9.258 8.952 A 0.336 0.336 0 0 1 9.288 8.951 A 0.293 0.293 0 0 1 9.376 8.964 A 0.234 0.234 0 0 1 9.484 9.035 A 0.233 0.233 0 0 0 9.652 9.119 A 0.288 0.288 0 0 0 9.669 9.119 Q 9.782 9.119 9.888 9.046 A 0.4 0.4 0 0 1 10.119 8.973 Q 10.287 8.973 10.427 9.119 Q 10.568 9.265 10.686 9.445 Q 10.791 9.606 10.861 9.744 A 2.087 2.087 0 0 1 10.877 9.776 Q 10.95 9.928 10.983 9.939 A 0.141 0.141 0 0 1 11.088 10.025 Q 11.106 10.066 11.113 10.124 A 4.273 4.273 0 0 1 11.121 10.22 Q 11.129 10.319 11.129 10.388 A 6.232 6.232 0 0 1 11.113 10.843 Q 11.096 11.073 11.04 11.298 A 2.041 2.041 0 0 1 10.96 11.558 A 1.777 1.777 0 0 1 10.922 11.652 A 1.185 1.185 0 0 0 10.833 11.957 A 1.353 1.353 0 0 0 10.826 12.005 A 8.829 8.829 0 0 0 10.804 12.122 A 10.809 10.809 0 0 0 10.781 12.247 A 0.175 0.175 0 0 1 10.759 12.309 Q 10.731 12.354 10.675 12.369 A 0.246 0.246 0 0 1 10.613 12.376 Z M 48.561 2.212 L 48.639 2.134 A 0.735 0.735 0 0 0 48.577 2.16 Q 48.516 2.188 48.483 2.221 A 0.168 0.168 0 0 0 48.471 2.235 Q 48.426 2.291 48.409 2.358 A 1.342 1.342 0 0 0 48.39 2.447 A 1.639 1.639 0 0 0 48.381 2.504 A 0.416 0.416 0 0 1 48.349 2.612 A 0.516 0.516 0 0 1 48.325 2.662 Q 48.269 2.774 48.151 2.796 A 0.584 0.584 0 0 0 48.005 2.846 A 0.761 0.761 0 0 0 47.915 2.897 Q 47.833 2.952 47.764 3.07 A 1.068 1.068 0 0 0 47.707 3.184 A 0.793 0.793 0 0 0 47.664 3.322 Q 47.63 3.471 47.621 3.695 A 4.367 4.367 0 0 0 47.617 3.875 A 3.761 3.761 0 0 0 47.64 4.29 A 3.658 3.658 0 0 1 47.662 4.694 A 4.81 4.81 0 0 1 47.595 5.497 A 4.877 4.877 0 0 0 47.527 6.312 A 1.516 1.516 0 0 1 47.454 6.783 A 1.516 1.516 0 0 0 47.381 7.255 A 0.64 0.64 0 0 0 47.408 7.447 Q 47.47 7.644 47.673 7.738 A 0.157 0.157 0 0 0 47.617 7.78 Q 47.577 7.826 47.55 7.912 A 1.917 1.917 0 0 0 47.506 8.075 A 2.509 2.509 0 0 0 47.477 8.226 A 2.762 2.762 0 0 0 47.446 8.502 A 2.458 2.458 0 0 0 47.443 8.563 Q 47.437 8.726 47.437 8.793 L 47.437 8.917 A 1.206 1.206 0 0 0 47.445 9.048 A 1.358 1.358 0 0 0 47.449 9.08 Q 47.46 9.164 47.471 9.237 A 0.31 0.31 0 0 0 47.48 9.278 Q 47.486 9.298 47.494 9.313 A 0.124 0.124 0 0 0 47.516 9.344 A 0.303 0.303 0 0 1 47.606 9.56 A 0.398 0.398 0 0 1 47.606 9.568 A 0.798 0.798 0 0 1 47.561 9.832 A 0.798 0.798 0 0 0 47.516 10.096 A 8.234 8.234 0 0 0 47.589 11.191 A 8.234 8.234 0 0 1 47.662 12.286 A 3.602 3.602 0 0 1 47.589 13.005 A 3.602 3.602 0 0 0 47.516 13.724 A 1.538 1.538 0 0 0 47.528 13.923 Q 47.541 14.023 47.569 14.107 A 0.687 0.687 0 0 0 47.628 14.24 A 0.758 0.758 0 0 0 47.932 14.532 A 1.211 1.211 0 0 0 48.205 14.635 A 1.522 1.522 0 0 0 48.37 14.667 A 3.739 3.739 0 0 0 48.786 14.699 A 4.213 4.213 0 0 0 48.886 14.701 A 4.956 4.956 0 0 0 49.734 14.628 A 4.891 4.891 0 0 1 50.571 14.555 A 1.072 1.072 0 0 1 50.84 14.587 A 0.741 0.741 0 0 1 51.217 14.813 A 0.895 0.895 0 0 1 51.431 15.271 A 1.238 1.238 0 0 1 51.447 15.476 A 1.704 1.704 0 0 1 51.393 15.908 A 1.542 1.542 0 0 1 51.351 16.043 A 1.437 1.437 0 0 1 51.149 16.421 A 1.333 1.333 0 0 1 51.082 16.503 A 1.241 1.241 0 0 1 50.661 16.812 Q 50.414 16.924 50.099 16.924 Q 49.89 16.924 49.633 16.876 A 3.631 3.631 0 0 1 49.594 16.868 Q 49.145 16.778 48.695 16.739 Q 48.246 16.7 47.774 16.7 A 18.358 18.358 0 0 0 46.988 16.717 A 18.358 18.358 0 0 1 46.202 16.733 Q 45.73 16.733 45.27 16.722 Q 44.81 16.711 44.338 16.711 A 0.961 0.961 0 0 1 44.012 16.655 A 0.939 0.939 0 0 0 43.737 16.6 A 0.881 0.881 0 0 0 43.698 16.599 A 0.783 0.783 0 0 0 43.593 16.606 Q 43.522 16.616 43.439 16.638 A 47.76 47.76 0 0 0 43.289 16.679 A 56.393 56.393 0 0 0 43.131 16.722 A 6.357 6.357 0 0 1 42.877 16.786 A 7.221 7.221 0 0 1 42.788 16.806 A 1.677 1.677 0 0 1 42.429 16.846 A 1.564 1.564 0 0 1 42.064 16.805 A 1.217 1.217 0 0 1 41.71 16.66 A 0.601 0.601 0 0 1 41.44 16.289 Q 41.407 16.167 41.407 16.015 Q 41.407 15.869 41.44 15.734 A 0.393 0.393 0 0 1 41.453 15.671 Q 41.479 15.582 41.547 15.453 A 2.774 2.774 0 0 1 41.752 15.127 A 3.064 3.064 0 0 1 41.772 15.099 Q 41.901 14.925 42.041 14.802 Q 42.172 14.686 42.279 14.679 A 0.21 0.21 0 0 1 42.294 14.678 A 0.363 0.363 0 0 1 42.46 14.719 A 0.425 0.425 0 0 1 42.468 14.723 A 5.103 5.103 0 0 1 42.546 14.766 Q 42.599 14.795 42.659 14.83 Q 42.764 14.891 42.907 14.935 A 1.706 1.706 0 0 0 42.912 14.937 A 0.945 0.945 0 0 0 43.055 14.968 Q 43.126 14.978 43.206 14.981 A 1.718 1.718 0 0 0 43.26 14.981 A 4.599 4.599 0 0 0 43.885 14.937 A 5.332 5.332 0 0 0 44.102 14.903 Q 44.54 14.824 44.905 14.628 A 1.787 1.787 0 0 0 45.506 14.111 A 1.182 1.182 0 0 0 45.711 13.637 A 1.661 1.661 0 0 0 45.742 13.308 A 2.762 2.762 0 0 0 45.719 12.954 A 89.88 89.88 0 0 1 45.674 12.601 A 12.307 12.307 0 0 1 45.596 11.421 A 63.103 63.103 0 0 1 45.584 10.231 Q 45.584 9.838 45.686 9.473 Q 45.787 9.108 45.787 8.715 A 1.167 1.167 0 0 0 45.708 8.288 A 1.137 1.137 0 0 1 45.629 7.873 Q 45.629 7.771 45.657 7.67 A 0.783 0.783 0 0 0 45.685 7.485 A 0.882 0.882 0 0 0 45.686 7.457 A 2.22 2.22 0 0 0 45.635 6.98 A 2.167 2.167 0 0 1 45.584 6.514 A 3.742 3.742 0 0 1 45.669 5.728 A 3.742 3.742 0 0 0 45.753 4.941 A 2.03 2.03 0 0 0 45.697 4.47 Q 45.641 4.234 45.579 4.009 Q 45.517 3.785 45.461 3.549 A 2.03 2.03 0 0 1 45.405 3.077 A 1.394 1.394 0 0 1 45.424 2.852 A 1.622 1.622 0 0 1 45.438 2.774 A 0.636 0.636 0 0 0 45.351 2.626 A 0.536 0.536 0 0 0 45.248 2.527 A 2.305 2.305 0 0 0 45.032 2.388 A 2.612 2.612 0 0 0 44.978 2.358 A 19.747 19.747 0 0 1 44.692 2.201 Q 44.551 2.123 44.473 1.977 A 0.181 0.181 0 0 0 44.428 1.988 A 0.11 0.11 0 0 0 44.36 2.061 A 0.923 0.923 0 0 0 44.335 2.166 A 1.086 1.086 0 0 0 44.327 2.218 A 0.713 0.713 0 0 1 44.3 2.338 A 0.634 0.634 0 0 1 44.287 2.375 A 0.121 0.121 0 0 1 44.214 2.446 Q 44.19 2.456 44.158 2.459 Q 43.844 2.493 43.524 2.516 A 9.062 9.062 0 0 1 42.889 2.538 A 3.696 3.696 0 0 1 42.743 2.535 Q 42.677 2.532 42.603 2.527 A 7.873 7.873 0 0 1 42.446 2.516 Q 42.182 2.493 41.94 2.415 A 1.283 1.283 0 0 1 41.692 2.305 A 1.056 1.056 0 0 1 41.53 2.19 A 0.477 0.477 0 0 1 41.37 1.893 A 0.691 0.691 0 0 1 41.362 1.786 A 0.765 0.765 0 0 1 41.387 1.596 A 1.019 1.019 0 0 1 41.435 1.454 A 2.306 2.306 0 0 1 41.611 1.117 A 2.438 2.438 0 0 1 41.615 1.112 A 2.819 2.819 0 0 1 41.85 0.792 A 16.368 16.368 0 0 1 41.958 0.667 Q 42.007 0.61 42.052 0.56 A 8.995 8.995 0 0 1 42.081 0.528 A 0.433 0.433 0 0 1 42.154 0.47 Q 42.221 0.427 42.316 0.393 Q 42.474 0.337 42.67 0.314 A 6.175 6.175 0 0 1 42.927 0.291 A 7.479 7.479 0 0 1 43.091 0.281 A 8.994 8.994 0 0 1 43.541 0.27 A 25.227 25.227 0 0 1 43.811 0.271 A 20.132 20.132 0 0 1 44.063 0.275 A 27.918 27.918 0 0 0 44.178 0.278 Q 44.333 0.281 44.446 0.281 A 9.113 9.113 0 0 0 44.461 0.281 A 11.979 11.979 0 0 0 44.69 0.278 Q 44.793 0.276 44.909 0.273 A 25.063 25.063 0 0 0 45.152 0.264 A 16.865 16.865 0 0 0 45.748 0.229 A 14.889 14.889 0 0 0 45.938 0.213 Q 46.226 0.188 46.455 0.158 A 8.799 8.799 0 0 0 46.59 0.14 A 2.796 2.796 0 0 0 46.676 0.127 Q 46.834 0.099 46.868 0.069 A 0.026 0.026 0 0 0 46.876 0.056 A 0.665 0.665 0 0 1 46.926 0.084 Q 46.951 0.099 46.979 0.119 A 1.676 1.676 0 0 1 47.039 0.163 A 2.75 2.75 0 0 0 47.241 0.303 A 4.449 4.449 0 0 0 47.398 0.398 A 3.9 3.9 0 0 0 47.449 0.427 A 0.784 0.784 0 0 0 47.496 0.451 Q 47.544 0.474 47.58 0.48 A 0.146 0.146 0 0 0 47.606 0.483 A 0.145 0.145 0 0 0 47.656 0.475 A 0.126 0.126 0 0 0 47.713 0.432 A 0.477 0.477 0 0 0 47.759 0.359 A 0.585 0.585 0 0 0 47.78 0.314 Q 47.808 0.247 47.819 0.174 Q 47.831 0.101 47.831 0.056 L 47.909 0.056 Q 48.156 0.056 48.24 0.202 Q 48.325 0.348 48.325 0.55 A 0.608 0.608 0 0 1 48.324 0.587 Q 48.323 0.604 48.321 0.619 A 0.337 0.337 0 0 1 48.319 0.629 Q 48.313 0.663 48.313 0.696 Q 48.426 0.674 48.476 0.59 A 1.064 1.064 0 0 0 48.561 0.416 A 0.681 0.681 0 0 1 48.606 0.317 A 0.561 0.561 0 0 1 48.645 0.258 A 0.153 0.153 0 0 1 48.716 0.207 Q 48.742 0.197 48.776 0.193 A 0.384 0.384 0 0 1 48.819 0.191 Q 48.864 0.191 48.954 0.213 L 49.032 0.213 A 86.876 86.876 0 0 0 49.149 0.309 Q 49.263 0.401 49.348 0.47 A 23.867 23.867 0 0 0 49.42 0.528 Q 49.527 0.614 49.598 0.664 A 1.275 1.275 0 0 0 49.639 0.691 A 5.23 5.23 0 0 0 49.666 0.708 Q 49.719 0.742 49.738 0.752 A 0.138 0.138 0 0 0 49.74 0.752 Q 49.762 0.764 49.773 0.764 A 0.157 0.157 0 0 1 49.786 0.764 Q 49.81 0.766 49.858 0.775 Q 49.912 0.785 49.919 0.777 A 0.004 0.004 0 0 0 49.919 0.775 A 0.084 0.084 0 0 0 49.905 0.729 Q 49.893 0.709 49.869 0.691 A 3.832 3.832 0 0 0 49.816 0.65 A 4.992 4.992 0 0 0 49.757 0.606 A 0.722 0.722 0 0 1 49.644 0.505 A 0.208 0.208 0 0 1 49.61 0.454 A 0.169 0.169 0 0 1 49.594 0.382 A 0.75 0.75 0 0 0 49.676 0.378 Q 49.716 0.373 49.75 0.364 A 0.311 0.311 0 0 0 49.807 0.343 A 0.668 0.668 0 0 0 49.888 0.295 A 0.532 0.532 0 0 0 49.942 0.253 A 1.458 1.458 0 0 1 50.06 0.157 A 0.221 0.221 0 0 1 50.134 0.123 Q 50.164 0.115 50.199 0.113 A 0.424 0.424 0 0 1 50.223 0.112 A 0.765 0.765 0 0 1 50.305 0.116 Q 50.346 0.121 50.38 0.13 A 0.29 0.29 0 0 1 50.447 0.157 A 0.891 0.891 0 0 1 50.52 0.204 A 0.678 0.678 0 0 1 50.582 0.253 Q 50.638 0.303 50.683 0.348 A 0.149 0.149 0 0 0 50.757 0.388 A 0.223 0.223 0 0 0 50.807 0.393 A 0.473 0.473 0 0 0 50.846 0.391 Q 50.867 0.39 50.884 0.386 A 0.24 0.24 0 0 0 50.902 0.382 A 0.266 0.266 0 0 1 50.938 0.374 Q 50.965 0.371 50.998 0.371 Q 51.073 0.371 51.097 0.433 A 0.131 0.131 0 0 1 51.099 0.438 A 1.222 1.222 0 0 1 51.118 0.502 A 0.887 0.887 0 0 1 51.132 0.561 Q 51.158 0.69 51.177 0.773 A 2.788 2.788 0 0 0 51.188 0.82 A 0.901 0.901 0 0 0 51.213 0.903 A 0.66 0.66 0 0 0 51.245 0.977 A 1.04 1.04 0 0 0 51.288 1.055 A 1.331 1.331 0 0 0 51.329 1.117 Q 51.368 1.173 51.429 1.265 A 28.631 28.631 0 0 1 51.469 1.325 Q 51.537 1.415 51.537 1.516 A 0.34 0.34 0 0 1 51.46 1.731 A 0.429 0.429 0 0 1 51.452 1.741 A 1.335 1.335 0 0 1 51.334 1.865 A 1.657 1.657 0 0 1 51.25 1.937 Q 51.132 2.033 51.009 2.111 A 2.461 2.461 0 0 0 50.922 2.169 Q 50.856 2.215 50.807 2.257 A 0.687 0.687 0 0 1 50.404 2.413 A 0.882 0.882 0 0 1 50.346 2.415 Q 50.167 2.415 50.004 2.37 A 1.274 1.274 0 0 0 49.684 2.325 A 1.424 1.424 0 0 0 49.661 2.325 Q 49.583 2.325 49.538 2.358 Q 49.392 2.448 49.257 2.459 Q 49.122 2.471 48.965 2.471 A 0.266 0.266 0 0 1 48.904 2.463 Q 48.845 2.449 48.769 2.41 A 1.212 1.212 0 0 1 48.723 2.386 A 0.641 0.641 0 0 1 48.66 2.347 Q 48.596 2.3 48.573 2.253 A 0.129 0.129 0 0 1 48.561 2.212 Z M 99.322 16.61 L 98.94 16.61 Q 98.851 16.644 98.772 16.644 A 0.184 0.184 0 0 1 98.723 16.638 Q 98.663 16.621 98.643 16.559 A 0.548 0.548 0 0 1 98.618 16.437 A 0.673 0.673 0 0 1 98.615 16.374 A 1.008 1.008 0 0 1 98.618 16.296 A 0.869 0.869 0 0 1 98.62 16.267 A 1.149 1.149 0 0 0 98.624 16.233 Q 98.625 16.217 98.626 16.203 A 0.495 0.495 0 0 0 98.626 16.183 A 0.487 0.487 0 0 0 98.62 16.106 A 0.353 0.353 0 0 0 98.598 16.026 A 0.101 0.101 0 0 0 98.532 15.967 Q 98.513 15.961 98.488 15.959 A 0.272 0.272 0 0 0 98.469 15.958 Q 98.3 15.958 98.205 16.054 Q 98.109 16.149 98.025 16.262 Q 97.941 16.374 97.84 16.469 A 0.325 0.325 0 0 1 97.712 16.543 Q 97.64 16.565 97.548 16.565 A 1.501 1.501 0 0 1 97.104 16.498 Q 96.885 16.43 96.661 16.408 A 18.949 18.949 0 0 0 95.74 16.363 A 72.478 72.478 0 0 1 94.824 16.335 Q 94.37 16.318 93.915 16.273 A 7.451 7.451 0 0 1 93.011 16.127 Q 92.91 16.104 92.809 16.093 A 1.858 1.858 0 0 0 92.687 16.084 A 1.542 1.542 0 0 0 92.618 16.082 Q 92.157 16.082 91.714 16.177 A 4.136 4.136 0 0 1 91.212 16.252 A 5.533 5.533 0 0 1 90.72 16.273 A 3.563 3.563 0 0 0 89.979 16.352 A 3.563 3.563 0 0 1 89.237 16.43 A 1.082 1.082 0 0 1 89.076 16.417 Q 88.958 16.399 88.822 16.357 Q 88.586 16.284 88.367 16.161 Q 88.148 16.037 87.996 15.857 A 0.697 0.697 0 0 1 87.896 15.703 A 0.533 0.533 0 0 1 87.845 15.476 A 0.353 0.353 0 0 1 87.873 15.341 Q 87.908 15.256 87.985 15.167 A 2.28 2.28 0 0 1 88.191 14.958 A 2.76 2.76 0 0 1 88.316 14.852 A 5.331 5.331 0 0 1 88.704 14.572 Q 88.854 14.473 88.955 14.403 A 6.922 6.922 0 0 0 89.013 14.364 Q 89.698 14.454 90.383 14.566 A 8.525 8.525 0 0 0 91.764 14.678 A 2.78 2.78 0 0 0 92.025 14.667 Q 92.15 14.655 92.254 14.631 A 1.135 1.135 0 0 0 92.444 14.572 A 1.041 1.041 0 0 0 92.635 14.468 A 0.757 0.757 0 0 0 92.825 14.28 A 0.977 0.977 0 0 0 92.965 13.978 A 1.214 1.214 0 0 0 92.994 13.842 A 3.293 3.293 0 0 0 93.028 13.51 A 4.022 4.022 0 0 0 93.033 13.297 Q 93.033 13.128 93.028 12.96 Q 93.022 12.792 93.022 12.601 Q 93.022 10.849 93.117 9.114 Q 93.213 7.378 93.213 5.626 A 37.346 37.346 0 0 0 93.174 3.908 Q 93.134 3.055 93.011 2.201 A 13.552 13.552 0 0 1 92.858 2.167 A 11.529 11.529 0 0 1 92.713 2.134 A 1.129 1.129 0 0 0 92.581 2.111 Q 92.489 2.1 92.382 2.1 Q 92.326 2.1 92.326 2.111 A 0.168 0.168 0 0 0 92.219 2.061 A 1.36 1.36 0 0 0 92.133 2.056 A 1.171 1.171 0 0 0 92.101 2.055 A 1.662 1.662 0 0 0 91.607 2.128 A 1.624 1.624 0 0 1 91.124 2.201 A 0.329 0.329 0 0 1 91.083 2.199 Q 91.062 2.196 91.045 2.191 A 0.143 0.143 0 0 1 91.017 2.179 Q 90.978 2.156 90.939 2.123 A 0.361 0.361 0 0 0 90.858 2.071 A 0.406 0.406 0 0 0 90.849 2.066 Q 90.798 2.044 90.72 2.044 A 3.563 3.563 0 0 0 89.979 2.123 A 3.616 3.616 0 0 1 89.226 2.201 A 1.859 1.859 0 0 1 88.693 2.123 A 1.415 1.415 0 0 1 88.215 1.875 A 0.8 0.8 0 0 0 88.276 1.684 Q 88.294 1.585 88.294 1.471 Q 88.294 1.292 88.26 1.117 A 2.769 2.769 0 0 1 88.215 0.764 Q 88.294 0.797 88.384 0.797 Q 88.552 0.797 88.704 0.713 A 2.852 2.852 0 0 0 89.001 0.522 A 2.572 2.572 0 0 1 89.305 0.331 A 0.693 0.693 0 0 1 89.557 0.251 A 0.663 0.663 0 0 1 89.63 0.247 Q 89.967 0.247 90.299 0.348 Q 90.63 0.449 90.967 0.449 Q 91.158 0.449 91.292 0.376 Q 91.384 0.327 91.46 0.311 A 0.334 0.334 0 0 1 91.528 0.303 A 0.3 0.3 0 0 1 91.6 0.311 A 0.2 0.2 0 0 1 91.702 0.371 A 0.195 0.195 0 0 0 91.791 0.425 Q 91.833 0.438 91.888 0.438 A 1.032 1.032 0 0 0 92.178 0.395 A 1.214 1.214 0 0 0 92.253 0.371 A 10.538 10.538 0 0 0 92.618 0.23 A 8.509 8.509 0 0 1 92.988 0.09 A 1.173 1.173 0 0 1 93.381 0.022 A 2.329 2.329 0 0 1 93.937 0.09 A 2.284 2.284 0 0 0 94.482 0.157 Q 94.628 0.157 94.763 0.124 L 94.774 0.124 Q 94.756 0.169 94.752 0.26 A 1.166 1.166 0 0 0 94.751 0.303 A 0.839 0.839 0 0 0 94.764 0.452 A 0.653 0.653 0 0 0 94.802 0.584 A 6.483 6.483 0 0 0 94.877 0.759 A 7.577 7.577 0 0 0 94.914 0.842 A 1.599 1.599 0 0 1 94.966 0.971 Q 94.99 1.038 95.012 1.115 A 2.926 2.926 0 0 1 95.027 1.168 A 1.325 1.325 0 0 1 95.057 1.325 Q 95.077 1.468 95.077 1.651 A 21.641 21.641 0 0 0 95.1 2.645 A 21.641 21.641 0 0 1 95.122 3.639 A 3.11 3.11 0 0 1 95.084 4.131 A 2.891 2.891 0 0 1 95.083 4.138 Q 95.043 4.38 94.931 4.604 Q 95.032 4.694 95.06 4.812 A 1.041 1.041 0 0 1 95.086 4.99 A 1.229 1.229 0 0 1 95.088 5.065 L 95.088 5.245 Q 95.088 5.368 95.116 5.503 A 0.38 0.38 0 0 0 95.257 5.728 L 95.268 5.851 Q 95.268 5.997 95.218 6.109 A 2.867 2.867 0 0 1 95.125 6.297 A 2.609 2.609 0 0 1 95.111 6.323 A 5.261 5.261 0 0 0 95.004 6.525 A 0.483 0.483 0 0 0 94.955 6.711 A 0.579 0.579 0 0 0 94.954 6.75 Q 94.954 7.008 95.027 7.272 A 2.06 2.06 0 0 1 95.099 7.782 A 2.31 2.31 0 0 1 95.1 7.828 A 5.655 5.655 0 0 1 95.055 8.541 A 22.973 22.973 0 0 1 94.954 9.248 Q 94.897 9.602 94.853 9.956 A 5.655 5.655 0 0 0 94.808 10.669 Q 94.808 10.759 94.78 10.815 A 0.121 0.121 0 0 1 94.76 10.844 A 0.085 0.085 0 0 1 94.695 10.871 Q 94.686 10.871 94.635 10.855 A 2.338 2.338 0 0 1 94.617 10.849 A 3.835 3.835 0 0 0 94.662 11.433 Q 94.707 11.725 94.757 12.011 Q 94.808 12.297 94.853 12.589 Q 94.897 12.881 94.897 13.185 L 94.897 13.342 L 94.886 13.499 A 1.422 1.422 0 0 0 94.925 13.84 A 0.898 0.898 0 0 0 95.279 14.375 A 1.484 1.484 0 0 0 95.889 14.626 A 2.019 2.019 0 0 0 96.245 14.656 Q 96.581 14.656 96.774 14.599 A 0.75 0.75 0 0 0 96.823 14.583 A 1.406 1.406 0 0 0 96.936 14.535 Q 96.991 14.509 97.035 14.482 A 0.545 0.545 0 0 0 97.115 14.42 A 1.961 1.961 0 0 0 97.182 14.355 Q 97.232 14.303 97.267 14.257 Q 97.323 14.184 97.436 14.184 A 3.154 3.154 0 0 1 98.013 14.239 A 3.55 3.55 0 0 1 98.104 14.257 A 6.414 6.414 0 0 0 98.69 14.355 A 5.809 5.809 0 0 0 98.772 14.364 A 2.546 2.546 0 0 0 99.109 14.386 A 1.85 1.85 0 0 1 99.433 14.414 A 1.977 1.977 0 0 1 99.435 14.414 A 1.076 1.076 0 0 1 99.705 14.499 A 1.006 1.006 0 0 1 99.727 14.51 A 0.527 0.527 0 0 1 99.848 14.595 Q 99.896 14.64 99.941 14.7 A 1.017 1.017 0 0 1 99.974 14.746 A 20.527 20.527 0 0 0 100.093 14.922 A 27.503 27.503 0 0 0 100.226 15.116 A 0.831 0.831 0 0 1 100.326 15.305 A 0.657 0.657 0 0 1 100.367 15.532 A 0.629 0.629 0 0 1 100.322 15.768 Q 100.277 15.88 100.221 15.992 A 3.558 3.558 0 0 1 100.145 16.128 Q 100.111 16.188 100.077 16.238 A 1.5 1.5 0 0 1 100.013 16.329 A 0.967 0.967 0 0 1 99.934 16.419 Q 99.876 16.478 99.816 16.514 A 0.57 0.57 0 0 1 99.597 16.593 A 1.553 1.553 0 0 1 99.487 16.605 Q 99.43 16.609 99.366 16.61 A 2.782 2.782 0 0 1 99.322 16.61 Z M 112.428 16.61 L 112.046 16.61 Q 111.957 16.644 111.878 16.644 A 0.184 0.184 0 0 1 111.829 16.638 Q 111.769 16.621 111.749 16.559 A 0.548 0.548 0 0 1 111.724 16.437 A 0.673 0.673 0 0 1 111.721 16.374 A 1.008 1.008 0 0 1 111.724 16.296 A 0.869 0.869 0 0 1 111.726 16.267 A 1.149 1.149 0 0 0 111.73 16.233 Q 111.731 16.217 111.731 16.203 A 0.495 0.495 0 0 0 111.732 16.183 A 0.487 0.487 0 0 0 111.726 16.106 A 0.353 0.353 0 0 0 111.704 16.026 A 0.101 0.101 0 0 0 111.638 15.967 Q 111.619 15.961 111.594 15.959 A 0.272 0.272 0 0 0 111.575 15.958 Q 111.406 15.958 111.311 16.054 Q 111.215 16.149 111.131 16.262 Q 111.047 16.374 110.946 16.469 A 0.325 0.325 0 0 1 110.818 16.543 Q 110.746 16.565 110.654 16.565 A 1.501 1.501 0 0 1 110.21 16.498 Q 109.991 16.43 109.767 16.408 A 18.949 18.949 0 0 0 108.846 16.363 A 72.478 72.478 0 0 1 107.93 16.335 Q 107.476 16.318 107.021 16.273 A 7.451 7.451 0 0 1 106.117 16.127 Q 106.016 16.104 105.915 16.093 A 1.858 1.858 0 0 0 105.793 16.084 A 1.542 1.542 0 0 0 105.724 16.082 Q 105.263 16.082 104.82 16.177 A 4.136 4.136 0 0 1 104.318 16.252 A 5.533 5.533 0 0 1 103.826 16.273 A 3.563 3.563 0 0 0 103.084 16.352 A 3.563 3.563 0 0 1 102.343 16.43 A 1.082 1.082 0 0 1 102.182 16.417 Q 102.064 16.399 101.928 16.357 Q 101.692 16.284 101.473 16.161 Q 101.254 16.037 101.102 15.857 A 0.697 0.697 0 0 1 101.002 15.703 A 0.533 0.533 0 0 1 100.951 15.476 A 0.353 0.353 0 0 1 100.979 15.341 Q 101.014 15.256 101.091 15.167 A 2.28 2.28 0 0 1 101.297 14.958 A 2.76 2.76 0 0 1 101.422 14.852 A 5.331 5.331 0 0 1 101.81 14.572 Q 101.96 14.473 102.061 14.403 A 6.922 6.922 0 0 0 102.119 14.364 Q 102.804 14.454 103.489 14.566 A 8.525 8.525 0 0 0 104.87 14.678 A 2.78 2.78 0 0 0 105.131 14.667 Q 105.256 14.655 105.36 14.631 A 1.135 1.135 0 0 0 105.55 14.572 A 1.041 1.041 0 0 0 105.741 14.468 A 0.757 0.757 0 0 0 105.931 14.28 A 0.977 0.977 0 0 0 106.071 13.978 A 1.214 1.214 0 0 0 106.1 13.842 A 3.293 3.293 0 0 0 106.134 13.51 A 4.022 4.022 0 0 0 106.139 13.297 Q 106.139 13.128 106.134 12.96 Q 106.128 12.792 106.128 12.601 Q 106.128 10.849 106.223 9.114 Q 106.319 7.378 106.319 5.626 A 37.346 37.346 0 0 0 106.28 3.908 Q 106.24 3.055 106.117 2.201 A 13.552 13.552 0 0 1 105.964 2.167 A 11.529 11.529 0 0 1 105.819 2.134 A 1.129 1.129 0 0 0 105.687 2.111 Q 105.595 2.1 105.488 2.1 Q 105.432 2.1 105.432 2.111 A 0.168 0.168 0 0 0 105.325 2.061 A 1.36 1.36 0 0 0 105.239 2.056 A 1.171 1.171 0 0 0 105.207 2.055 A 1.662 1.662 0 0 0 104.713 2.128 A 1.624 1.624 0 0 1 104.23 2.201 A 0.329 0.329 0 0 1 104.189 2.199 Q 104.168 2.196 104.151 2.191 A 0.143 0.143 0 0 1 104.123 2.179 Q 104.084 2.156 104.045 2.123 A 0.361 0.361 0 0 0 103.964 2.071 A 0.406 0.406 0 0 0 103.955 2.066 Q 103.904 2.044 103.826 2.044 A 3.563 3.563 0 0 0 103.084 2.123 A 3.616 3.616 0 0 1 102.332 2.201 A 1.859 1.859 0 0 1 101.799 2.123 A 1.415 1.415 0 0 1 101.321 1.875 A 0.8 0.8 0 0 0 101.381 1.684 Q 101.4 1.585 101.4 1.471 Q 101.4 1.292 101.366 1.117 A 2.769 2.769 0 0 1 101.321 0.764 Q 101.4 0.797 101.49 0.797 Q 101.658 0.797 101.81 0.713 A 2.852 2.852 0 0 0 102.107 0.522 A 2.572 2.572 0 0 1 102.411 0.331 A 0.693 0.693 0 0 1 102.663 0.251 A 0.663 0.663 0 0 1 102.736 0.247 Q 103.073 0.247 103.405 0.348 Q 103.736 0.449 104.073 0.449 Q 104.264 0.449 104.398 0.376 Q 104.49 0.327 104.566 0.311 A 0.334 0.334 0 0 1 104.634 0.303 A 0.3 0.3 0 0 1 104.706 0.311 A 0.2 0.2 0 0 1 104.808 0.371 A 0.195 0.195 0 0 0 104.897 0.425 Q 104.939 0.438 104.994 0.438 A 1.032 1.032 0 0 0 105.284 0.395 A 1.214 1.214 0 0 0 105.359 0.371 A 10.538 10.538 0 0 0 105.724 0.23 A 8.509 8.509 0 0 1 106.094 0.09 A 1.173 1.173 0 0 1 106.487 0.022 A 2.329 2.329 0 0 1 107.043 0.09 A 2.284 2.284 0 0 0 107.588 0.157 Q 107.734 0.157 107.869 0.124 L 107.88 0.124 Q 107.862 0.169 107.858 0.26 A 1.166 1.166 0 0 0 107.857 0.303 A 0.839 0.839 0 0 0 107.87 0.452 A 0.653 0.653 0 0 0 107.908 0.584 A 6.483 6.483 0 0 0 107.983 0.759 A 7.577 7.577 0 0 0 108.02 0.842 A 1.599 1.599 0 0 1 108.072 0.971 Q 108.096 1.038 108.118 1.115 A 2.926 2.926 0 0 1 108.133 1.168 A 1.325 1.325 0 0 1 108.163 1.325 Q 108.183 1.468 108.183 1.651 A 21.641 21.641 0 0 0 108.206 2.645 A 21.641 21.641 0 0 1 108.228 3.639 A 3.11 3.11 0 0 1 108.19 4.131 A 2.891 2.891 0 0 1 108.189 4.138 Q 108.149 4.38 108.037 4.604 Q 108.138 4.694 108.166 4.812 A 1.041 1.041 0 0 1 108.192 4.99 A 1.229 1.229 0 0 1 108.194 5.065 L 108.194 5.245 Q 108.194 5.368 108.222 5.503 A 0.38 0.38 0 0 0 108.363 5.728 L 108.374 5.851 Q 108.374 5.997 108.323 6.109 A 2.867 2.867 0 0 1 108.231 6.297 A 2.609 2.609 0 0 1 108.217 6.323 A 5.261 5.261 0 0 0 108.11 6.525 A 0.483 0.483 0 0 0 108.061 6.711 A 0.579 0.579 0 0 0 108.06 6.75 Q 108.06 7.008 108.133 7.272 A 2.06 2.06 0 0 1 108.205 7.782 A 2.31 2.31 0 0 1 108.206 7.828 A 5.655 5.655 0 0 1 108.161 8.541 A 22.973 22.973 0 0 1 108.06 9.248 Q 108.003 9.602 107.958 9.956 A 5.655 5.655 0 0 0 107.914 10.669 Q 107.914 10.759 107.885 10.815 A 0.121 0.121 0 0 1 107.866 10.844 A 0.085 0.085 0 0 1 107.801 10.871 Q 107.792 10.871 107.741 10.855 A 2.338 2.338 0 0 1 107.723 10.849 A 3.835 3.835 0 0 0 107.768 11.433 Q 107.812 11.725 107.863 12.011 Q 107.914 12.297 107.958 12.589 Q 108.003 12.881 108.003 13.185 L 108.003 13.342 L 107.992 13.499 A 1.422 1.422 0 0 0 108.031 13.84 A 0.898 0.898 0 0 0 108.385 14.375 A 1.484 1.484 0 0 0 108.995 14.626 A 2.019 2.019 0 0 0 109.351 14.656 Q 109.687 14.656 109.88 14.599 A 0.75 0.75 0 0 0 109.929 14.583 A 1.406 1.406 0 0 0 110.042 14.535 Q 110.097 14.509 110.141 14.482 A 0.545 0.545 0 0 0 110.221 14.42 A 1.961 1.961 0 0 0 110.288 14.355 Q 110.338 14.303 110.373 14.257 Q 110.429 14.184 110.542 14.184 A 3.154 3.154 0 0 1 111.119 14.239 A 3.55 3.55 0 0 1 111.21 14.257 A 6.414 6.414 0 0 0 111.796 14.355 A 5.809 5.809 0 0 0 111.878 14.364 A 2.546 2.546 0 0 0 112.215 14.386 A 1.85 1.85 0 0 1 112.539 14.414 A 1.977 1.977 0 0 1 112.541 14.414 A 1.076 1.076 0 0 1 112.811 14.499 A 1.006 1.006 0 0 1 112.833 14.51 A 0.527 0.527 0 0 1 112.954 14.595 Q 113.002 14.64 113.047 14.7 A 1.017 1.017 0 0 1 113.08 14.746 A 20.527 20.527 0 0 0 113.199 14.922 A 27.503 27.503 0 0 0 113.332 15.116 A 0.831 0.831 0 0 1 113.432 15.305 A 0.657 0.657 0 0 1 113.473 15.532 A 0.629 0.629 0 0 1 113.428 15.768 Q 113.383 15.88 113.327 15.992 A 3.558 3.558 0 0 1 113.251 16.128 Q 113.216 16.188 113.183 16.238 A 1.5 1.5 0 0 1 113.119 16.329 A 0.967 0.967 0 0 1 113.04 16.419 Q 112.982 16.478 112.922 16.514 A 0.57 0.57 0 0 1 112.703 16.593 A 1.553 1.553 0 0 1 112.593 16.605 Q 112.536 16.609 112.472 16.61 A 2.782 2.782 0 0 1 112.428 16.61 Z M 31.423 16.756 L 29.839 16.542 Q 29.66 16.587 29.48 16.604 A 3.848 3.848 0 0 1 29.121 16.621 Q 28.896 16.621 28.677 16.599 Q 28.458 16.576 28.233 16.542 A 1.341 1.341 0 0 0 28.127 16.222 A 7.74 7.74 0 0 1 27.986 15.914 Q 27.919 15.756 27.863 15.594 A 1.01 1.01 0 0 1 27.807 15.262 A 0.922 0.922 0 0 1 27.818 15.111 Q 27.832 15.031 27.86 14.968 A 0.375 0.375 0 0 1 27.953 14.841 A 0.748 0.748 0 0 1 28.172 14.708 A 0.988 0.988 0 0 1 28.323 14.661 A 4.208 4.208 0 0 1 28.668 14.599 A 4.886 4.886 0 0 1 28.801 14.583 Q 29.053 14.555 29.278 14.454 A 0.882 0.882 0 0 0 29.648 14.139 A 0.702 0.702 0 0 0 29.736 13.954 Q 29.794 13.769 29.794 13.499 A 3.429 3.429 0 0 0 29.755 12.982 A 13.879 13.879 0 0 0 29.665 12.46 A 13.879 13.879 0 0 1 29.575 11.938 A 3.429 3.429 0 0 1 29.536 11.421 A 2.099 2.099 0 0 1 29.57 11.045 A 2.099 2.099 0 0 0 29.604 10.669 A 4.726 4.726 0 0 0 29.553 9.978 A 4.726 4.726 0 0 1 29.502 9.288 Q 29.502 8.883 29.547 8.485 Q 29.592 8.086 29.592 7.682 A 3.799 3.799 0 0 0 29.519 6.935 Q 29.446 6.57 29.446 6.177 A 8.118 8.118 0 0 1 29.458 5.75 A 8.118 8.118 0 0 0 29.469 5.323 A 4.977 4.977 0 0 0 29.452 4.904 A 4.516 4.516 0 0 0 29.446 4.846 A 2.607 2.607 0 0 0 29.365 4.409 A 2.868 2.868 0 0 0 29.356 4.38 Q 29.278 4.099 29.267 3.83 A 2.683 2.683 0 0 0 29.242 3.557 A 2.056 2.056 0 0 0 29.199 3.341 Q 29.143 3.122 28.986 2.959 Q 28.835 2.803 28.488 2.724 A 2.197 2.197 0 0 0 28.458 2.718 A 0.659 0.659 0 0 1 28.387 2.701 Q 28.315 2.68 28.273 2.645 A 3.304 3.304 0 0 1 28.157 2.545 A 3.476 3.476 0 0 1 28.155 2.544 Q 28.102 2.496 28.025 2.454 A 0.983 0.983 0 0 0 28.014 2.448 A 0.417 0.417 0 0 0 27.954 2.422 Q 27.878 2.396 27.762 2.381 Q 27.336 2.323 27.277 1.957 A 0.792 0.792 0 0 1 27.268 1.831 Q 27.268 1.561 27.369 1.353 A 1.528 1.528 0 0 1 27.627 0.977 A 2.352 2.352 0 0 1 27.981 0.668 A 14.78 14.78 0 0 0 28.368 0.382 Q 28.66 0.157 28.918 0.107 A 2.74 2.74 0 0 1 29.307 0.06 A 3.216 3.216 0 0 1 29.469 0.056 L 29.952 0.056 A 7.386 7.386 0 0 0 30.597 0.028 A 7.386 7.386 0 0 1 31.243 0 Q 31.434 0 31.631 0.022 A 2.294 2.294 0 0 1 32.018 0.101 A 3.045 3.045 0 0 1 32.215 0.174 A 0.512 0.512 0 0 0 32.411 0.213 A 0.431 0.431 0 0 0 32.564 0.187 A 0.392 0.392 0 0 0 32.681 0.118 Q 32.788 0.026 32.875 0.023 A 0.172 0.172 0 0 1 32.883 0.022 Q 32.905 0.022 32.905 0.045 Q 32.905 0.066 32.9 0.092 A 0.363 0.363 0 0 1 32.9 0.095 Q 32.895 0.121 32.894 0.142 A 0.185 0.185 0 0 0 32.894 0.146 A 0.071 0.071 0 0 0 32.9 0.177 Q 32.915 0.207 32.962 0.212 A 0.197 0.197 0 0 0 32.984 0.213 Q 33.04 0.213 33.068 0.146 Q 33.096 0.079 33.197 0.056 Q 33.256 0.082 33.297 0.11 A 0.309 0.309 0 0 1 33.321 0.129 A 12.186 12.186 0 0 0 33.364 0.167 A 9.845 9.845 0 0 0 33.405 0.202 Q 33.442 0.234 33.498 0.255 A 0.461 0.461 0 0 0 33.506 0.258 Q 33.55 0.274 33.614 0.279 A 0.767 0.767 0 0 0 33.669 0.281 Q 33.905 0.281 34.141 0.241 Q 34.376 0.202 34.612 0.202 A 1.596 1.596 0 0 1 35.007 0.25 A 1.414 1.414 0 0 1 35.174 0.303 A 2.625 2.625 0 0 1 35.662 0.556 Q 35.893 0.708 36.106 0.898 Q 36.319 1.089 36.533 1.269 Q 36.69 1.404 36.853 1.477 A 8.377 8.377 0 0 1 37.088 1.586 A 7.321 7.321 0 0 1 37.162 1.623 Q 37.308 1.696 37.442 1.802 A 0.673 0.673 0 0 1 37.554 1.916 Q 37.6 1.976 37.642 2.051 A 1.336 1.336 0 0 1 37.678 2.123 A 3.262 3.262 0 0 0 37.942 2.577 A 21.065 21.065 0 0 0 38.245 3.004 A 12.272 12.272 0 0 1 38.543 3.431 Q 38.689 3.65 38.801 3.897 Q 39.082 4.537 39.2 5.239 A 117.675 117.675 0 0 0 39.441 6.626 Q 39.498 6.918 39.565 7.216 A 2.663 2.663 0 0 1 39.632 7.805 A 0.838 0.838 0 0 1 39.576 8.108 A 0.838 0.838 0 0 0 39.52 8.412 A 0.518 0.518 0 0 0 39.528 8.507 A 0.4 0.4 0 0 0 39.554 8.591 A 1.531 1.531 0 0 0 39.627 8.739 A 1.682 1.682 0 0 0 39.632 8.749 A 0.897 0.897 0 0 1 39.679 8.844 A 1.146 1.146 0 0 1 39.711 8.928 Q 39.743 9.023 39.744 9.147 A 1.053 1.053 0 0 1 39.745 9.164 A 4.126 4.126 0 0 1 39.732 9.479 Q 39.719 9.641 39.695 9.822 A 7.534 7.534 0 0 1 39.677 9.945 A 10.49 10.49 0 0 1 39.561 10.576 A 12.427 12.427 0 0 1 39.492 10.877 A 21.149 21.149 0 0 1 39.26 11.753 A 23.442 23.442 0 0 1 39.222 11.882 A 19.636 19.636 0 0 1 38.944 12.756 A 17.898 17.898 0 0 1 38.902 12.876 A 16.454 16.454 0 0 1 38.69 13.446 A 13.567 13.567 0 0 1 38.56 13.763 A 9.634 9.634 0 0 1 38.432 14.052 Q 38.327 14.278 38.229 14.454 A 0.704 0.704 0 0 1 38.162 14.546 Q 38.104 14.614 38.021 14.684 Q 37.88 14.802 37.734 14.931 A 3.693 3.693 0 0 0 37.581 15.074 A 2.926 2.926 0 0 0 37.476 15.184 Q 37.404 15.262 37.379 15.337 A 0.25 0.25 0 0 0 37.364 15.419 Q 37.277 15.43 37.097 15.467 A 10.367 10.367 0 0 0 37.083 15.47 A 4.563 4.563 0 0 0 36.813 15.535 A 5.348 5.348 0 0 0 36.684 15.571 Q 36.477 15.633 36.302 15.706 Q 36.128 15.779 36.095 15.846 A 9.634 9.634 0 0 0 36.045 15.942 Q 35.965 16.099 35.943 16.161 A 0.418 0.418 0 0 1 35.93 16.194 Q 35.907 16.243 35.881 16.256 A 0.089 0.089 0 0 1 35.863 16.262 Q 35.827 16.272 35.755 16.268 A 0.995 0.995 0 0 1 35.752 16.267 A 0.304 0.304 0 0 0 35.738 16.267 Q 35.642 16.266 35.404 16.314 A 5.9 5.9 0 0 0 35.387 16.318 A 2.529 2.529 0 0 0 35.312 16.336 Q 35.273 16.346 35.229 16.358 A 5.838 5.838 0 0 0 35.135 16.385 Q 34.983 16.43 34.82 16.475 A 4.319 4.319 0 0 1 34.623 16.525 A 3.563 3.563 0 0 1 34.511 16.548 A 2.139 2.139 0 0 1 34.425 16.563 Q 34.343 16.575 34.284 16.576 A 0.601 0.601 0 0 1 34.275 16.576 A 1.467 1.467 0 0 1 33.798 16.498 A 1.467 1.467 0 0 0 33.321 16.419 A 0.942 0.942 0 0 0 33.172 16.43 A 0.717 0.717 0 0 0 33.04 16.464 A 4.945 4.945 0 0 1 32.585 16.612 A 3.944 3.944 0 0 1 32.248 16.688 A 4.22 4.22 0 0 1 31.802 16.743 A 5.383 5.383 0 0 1 31.423 16.756 Z M 13.241 6.345 L 13.263 6.3 A 3.223 3.223 0 0 0 13.331 6.179 Q 13.361 6.121 13.385 6.068 A 1.906 1.906 0 0 0 13.392 6.053 Q 13.443 5.941 13.465 5.84 A 9.518 9.518 0 0 0 13.488 5.736 A 11.071 11.071 0 0 0 13.51 5.626 A 7.234 7.234 0 0 1 13.532 5.522 Q 13.544 5.468 13.557 5.409 A 12.63 12.63 0 0 1 13.566 5.368 A 7.894 7.894 0 0 1 13.797 4.47 A 49.646 49.646 0 0 0 14.072 3.583 Q 14.218 3.066 14.431 2.673 Q 14.638 2.292 15.066 1.964 A 3.336 3.336 0 0 1 15.094 1.943 A 2.971 2.971 0 0 0 15.442 1.606 A 1.05 1.05 0 0 0 15.653 1.225 A 1.229 1.229 0 0 0 15.667 1.179 A 0.268 0.268 0 0 1 15.769 1.127 A 0.262 0.262 0 0 1 15.79 1.123 A 0.818 0.818 0 0 1 15.925 1.112 L 16.015 1.112 A 0.672 0.672 0 0 0 16.166 1.095 Q 16.239 1.078 16.307 1.022 A 2.263 2.263 0 0 1 16.408 0.932 Q 16.461 0.888 16.51 0.855 A 0.901 0.901 0 0 1 16.604 0.797 Q 16.697 0.749 16.838 0.735 A 1.246 1.246 0 0 1 16.958 0.73 A 1.611 1.611 0 0 1 17.243 0.755 A 1.496 1.496 0 0 1 17.261 0.758 A 14.256 14.256 0 0 1 17.487 0.803 A 16.001 16.001 0 0 1 17.564 0.82 Q 17.621 0.764 17.727 0.668 A 1.217 1.217 0 0 1 17.791 0.615 Q 17.853 0.566 17.904 0.543 A 0.335 0.335 0 0 1 17.913 0.539 L 17.913 0.573 A 0.212 0.212 0 0 0 17.929 0.657 Q 17.946 0.695 17.998 0.696 A 0.154 0.154 0 0 0 18.002 0.696 A 0.62 0.62 0 0 0 18.283 0.629 A 0.946 0.946 0 0 1 18.564 0.539 Q 18.89 0.483 19.215 0.365 A 1.933 1.933 0 0 1 19.878 0.247 A 6.555 6.555 0 0 1 20.347 0.265 A 8.053 8.053 0 0 1 20.647 0.292 Q 21.057 0.337 21.45 0.46 Q 21.843 0.584 22.18 0.803 A 1.663 1.663 0 0 1 22.719 1.37 A 1.493 1.493 0 0 0 22.784 1.474 Q 22.841 1.558 22.899 1.612 A 1.648 1.648 0 0 0 23.011 1.708 A 1.373 1.373 0 0 0 23.079 1.758 L 23.258 1.881 Q 23.348 1.943 23.449 2.055 A 2.193 2.193 0 0 1 23.792 2.589 A 1.622 1.622 0 0 0 24.157 3.1 Q 24.449 3.369 24.589 3.751 Q 24.729 4.133 24.729 4.526 Q 24.729 4.649 24.696 4.773 Q 24.662 4.896 24.662 5.031 A 0.561 0.561 0 0 0 24.68 5.169 A 0.736 0.736 0 0 0 24.713 5.267 A 3.53 3.53 0 0 0 24.782 5.426 A 4.23 4.23 0 0 0 24.831 5.525 Q 24.898 5.66 24.954 5.806 A 1.573 1.573 0 0 1 25.009 5.976 A 1.284 1.284 0 0 1 25.033 6.087 A 4.967 4.967 0 0 0 25.134 6.677 A 48.655 48.655 0 0 1 25.266 7.257 A 54.229 54.229 0 0 1 25.269 7.266 Q 25.358 7.648 25.403 8.041 A 5.534 5.534 0 0 1 25.439 8.67 A 5.505 5.505 0 0 1 25.437 8.827 A 2.26 2.26 0 0 1 25.393 9.279 A 2.102 2.102 0 0 1 25.392 9.282 Q 25.347 9.501 25.291 9.72 Q 25.235 9.939 25.19 10.164 A 2.285 2.285 0 0 0 25.145 10.613 A 0.886 0.886 0 0 0 25.162 10.787 A 0.886 0.886 0 0 1 25.179 10.961 A 1.247 1.247 0 0 1 25.106 11.388 A 3.061 3.061 0 0 1 24.932 11.781 A 0.923 0.923 0 0 0 24.83 12.09 A 0.881 0.881 0 0 0 24.825 12.129 A 5.785 5.785 0 0 0 24.802 12.488 Q 24.797 12.668 24.763 12.848 A 0.937 0.937 0 0 1 24.628 13.185 A 8.294 8.294 0 0 0 24.616 13.247 Q 24.596 13.352 24.567 13.516 Q 24.527 13.735 24.471 13.825 A 0.037 0.037 0 0 1 24.46 13.838 Q 24.442 13.851 24.404 13.858 A 3.427 3.427 0 0 1 24.345 13.87 A 4.463 4.463 0 0 1 24.28 13.881 A 0.542 0.542 0 0 0 24.21 13.898 Q 24.174 13.909 24.134 13.926 Q 24.056 13.959 24 14.027 Q 23.943 14.083 23.91 14.184 Q 23.876 14.285 23.831 14.386 A 0.795 0.795 0 0 1 23.775 14.491 A 0.639 0.639 0 0 1 23.724 14.56 A 0.2 0.2 0 0 1 23.578 14.633 A 0.267 0.267 0 0 1 23.562 14.633 Q 23.46 14.633 23.382 14.594 L 23.225 14.515 A 0.93 0.93 0 0 0 23.097 14.463 A 0.839 0.839 0 0 0 23.067 14.454 A 0.236 0.236 0 0 0 23.018 14.445 Q 22.956 14.441 22.876 14.465 A 0.049 0.049 0 0 1 22.894 14.487 Q 22.906 14.515 22.899 14.572 A 0.516 0.516 0 0 0 22.894 14.64 Q 22.894 14.692 22.905 14.746 A 0.288 0.288 0 0 0 22.95 14.853 A 0.403 0.403 0 0 0 23 14.914 A 0.217 0.217 0 0 0 23.072 14.96 Q 23.151 14.993 23.281 14.993 A 1.681 1.681 0 0 0 23.477 14.981 A 1.931 1.931 0 0 0 23.642 14.954 A 2.159 2.159 0 0 0 23.674 14.948 A 1.676 1.676 0 0 1 23.602 15.117 Q 23.562 15.198 23.517 15.263 A 0.817 0.817 0 0 1 23.46 15.335 A 1.566 1.566 0 0 1 23.185 15.582 A 11.45 11.45 0 0 1 22.871 15.796 A 1.582 1.582 0 0 0 22.689 15.935 A 2.043 2.043 0 0 0 22.551 16.071 A 1.304 1.304 0 0 1 22.433 16.176 Q 22.369 16.226 22.307 16.259 A 0.56 0.56 0 0 1 22.186 16.307 A 12.469 12.469 0 0 0 22.047 16.343 Q 21.923 16.377 21.776 16.419 Q 21.506 16.498 21.394 16.61 A 2.288 2.288 0 0 1 21.164 16.811 A 2.513 2.513 0 0 1 21.147 16.823 Q 21.042 16.902 20.88 16.963 A 1.868 1.868 0 0 1 20.782 16.997 A 1.145 1.145 0 0 1 20.632 17.033 Q 20.413 17.07 20.058 17.07 Q 19.608 17.07 19.165 17.037 A 17.137 17.137 0 0 1 18.283 16.947 A 1.904 1.904 0 0 1 18.147 16.927 Q 18.084 16.915 18.03 16.9 A 0.868 0.868 0 0 1 17.952 16.874 A 2.098 2.098 0 0 1 17.753 16.784 A 1.868 1.868 0 0 1 17.71 16.761 A 6.896 6.896 0 0 1 17.486 16.632 A 1.476 1.476 0 0 0 17.385 16.578 Q 17.305 16.538 17.205 16.498 A 5.768 5.768 0 0 1 17.133 16.47 Q 17.069 16.445 16.992 16.413 A 41.8 41.8 0 0 1 16.8 16.334 A 47.607 47.607 0 0 1 16.733 16.307 A 2.734 2.734 0 0 1 16.574 16.234 A 2.248 2.248 0 0 1 16.486 16.189 A 1.627 1.627 0 0 1 16.409 16.144 Q 16.373 16.121 16.344 16.1 A 0.741 0.741 0 0 1 16.307 16.071 Q 16.228 16.003 16.2 15.919 A 1.982 1.982 0 0 1 16.162 15.789 A 2.3 2.3 0 0 1 16.149 15.74 A 2.151 2.151 0 0 0 16.114 15.608 A 1.852 1.852 0 0 0 16.099 15.56 A 0.273 0.273 0 0 0 16.01 15.433 A 0.342 0.342 0 0 0 15.992 15.419 Q 15.824 15.397 15.667 15.358 Q 15.509 15.318 15.352 15.262 Q 15.307 15.139 15.268 15.021 A 9.445 9.445 0 0 0 15.186 14.787 A 10.051 10.051 0 0 0 15.184 14.779 A 3.032 3.032 0 0 0 15.049 14.643 Q 14.984 14.581 14.921 14.53 A 1.853 1.853 0 0 0 14.903 14.515 A 2.062 2.062 0 0 1 14.748 14.38 A 1.7 1.7 0 0 1 14.667 14.296 Q 14.566 14.184 14.493 14.032 Q 14.438 13.918 14.412 13.75 A 1.819 1.819 0 0 1 14.397 13.634 A 2.455 2.455 0 0 0 14.263 13.067 Q 14.162 12.792 14.055 12.522 A 6.815 6.815 0 0 1 13.864 11.972 A 1.983 1.983 0 0 1 13.78 11.399 A 1.613 1.613 0 0 1 13.849 10.938 A 1.94 1.94 0 0 1 13.903 10.781 A 2.284 2.284 0 0 1 13.499 9.776 A 7.655 7.655 0 0 1 13.42 8.681 A 10.974 10.974 0 0 1 13.426 8.327 Q 13.432 8.153 13.432 7.985 A 0.697 0.697 0 0 0 13.423 7.869 Q 13.412 7.807 13.39 7.757 A 0.336 0.336 0 0 0 13.347 7.687 A 0.387 0.387 0 0 1 13.269 7.503 A 0.52 0.52 0 0 1 13.263 7.423 A 1.624 1.624 0 0 1 13.336 6.94 Q 13.409 6.705 13.432 6.458 A 0.418 0.418 0 0 1 13.361 6.441 Q 13.274 6.411 13.241 6.345 Z M 67.282 6.345 L 67.304 6.3 A 3.223 3.223 0 0 0 67.372 6.179 Q 67.402 6.121 67.427 6.068 A 1.906 1.906 0 0 0 67.433 6.053 Q 67.484 5.941 67.506 5.84 A 9.518 9.518 0 0 0 67.529 5.736 A 11.071 11.071 0 0 0 67.551 5.626 A 7.234 7.234 0 0 1 67.573 5.522 Q 67.585 5.468 67.598 5.409 A 12.63 12.63 0 0 1 67.607 5.368 A 7.894 7.894 0 0 1 67.838 4.47 A 49.646 49.646 0 0 0 68.113 3.583 Q 68.259 3.066 68.472 2.673 Q 68.679 2.292 69.107 1.964 A 3.336 3.336 0 0 1 69.135 1.943 A 2.971 2.971 0 0 0 69.483 1.606 A 1.05 1.05 0 0 0 69.694 1.225 A 1.229 1.229 0 0 0 69.708 1.179 A 0.268 0.268 0 0 1 69.81 1.127 A 0.262 0.262 0 0 1 69.831 1.123 A 0.818 0.818 0 0 1 69.966 1.112 L 70.056 1.112 A 0.672 0.672 0 0 0 70.207 1.095 Q 70.28 1.078 70.348 1.022 A 2.263 2.263 0 0 1 70.449 0.932 Q 70.502 0.888 70.551 0.855 A 0.901 0.901 0 0 1 70.645 0.797 Q 70.738 0.749 70.879 0.735 A 1.246 1.246 0 0 1 70.999 0.73 A 1.611 1.611 0 0 1 71.284 0.755 A 1.496 1.496 0 0 1 71.302 0.758 A 14.256 14.256 0 0 1 71.528 0.803 A 16.001 16.001 0 0 1 71.605 0.82 Q 71.662 0.764 71.768 0.668 A 1.217 1.217 0 0 1 71.832 0.615 Q 71.894 0.566 71.945 0.543 A 0.335 0.335 0 0 1 71.954 0.539 L 71.954 0.573 A 0.212 0.212 0 0 0 71.97 0.657 Q 71.987 0.695 72.039 0.696 A 0.154 0.154 0 0 0 72.043 0.696 A 0.62 0.62 0 0 0 72.324 0.629 A 0.946 0.946 0 0 1 72.605 0.539 Q 72.931 0.483 73.256 0.365 A 1.933 1.933 0 0 1 73.919 0.247 A 6.555 6.555 0 0 1 74.388 0.265 A 8.053 8.053 0 0 1 74.688 0.292 Q 75.098 0.337 75.491 0.46 Q 75.884 0.584 76.221 0.803 A 1.663 1.663 0 0 1 76.76 1.37 A 1.493 1.493 0 0 0 76.825 1.474 Q 76.882 1.558 76.94 1.612 A 1.648 1.648 0 0 0 77.052 1.708 A 1.373 1.373 0 0 0 77.12 1.758 L 77.299 1.881 Q 77.389 1.943 77.49 2.055 A 2.193 2.193 0 0 1 77.833 2.589 A 1.622 1.622 0 0 0 78.198 3.1 Q 78.49 3.369 78.63 3.751 Q 78.771 4.133 78.771 4.526 Q 78.771 4.649 78.737 4.773 Q 78.703 4.896 78.703 5.031 A 0.561 0.561 0 0 0 78.721 5.169 A 0.736 0.736 0 0 0 78.754 5.267 A 3.53 3.53 0 0 0 78.823 5.426 A 4.23 4.23 0 0 0 78.872 5.525 Q 78.939 5.66 78.995 5.806 A 1.573 1.573 0 0 1 79.05 5.976 A 1.284 1.284 0 0 1 79.074 6.087 A 4.967 4.967 0 0 0 79.175 6.677 A 48.655 48.655 0 0 1 79.307 7.257 A 54.229 54.229 0 0 1 79.31 7.266 Q 79.399 7.648 79.444 8.041 A 5.534 5.534 0 0 1 79.48 8.67 A 5.505 5.505 0 0 1 79.478 8.827 A 2.26 2.26 0 0 1 79.434 9.279 A 2.102 2.102 0 0 1 79.433 9.282 Q 79.388 9.501 79.332 9.72 Q 79.276 9.939 79.231 10.164 A 2.285 2.285 0 0 0 79.186 10.613 A 0.886 0.886 0 0 0 79.203 10.787 A 0.886 0.886 0 0 1 79.22 10.961 A 1.247 1.247 0 0 1 79.147 11.388 A 3.061 3.061 0 0 1 78.973 11.781 A 0.923 0.923 0 0 0 78.871 12.09 A 0.881 0.881 0 0 0 78.866 12.129 A 5.785 5.785 0 0 0 78.844 12.488 Q 78.838 12.668 78.804 12.848 A 0.937 0.937 0 0 1 78.669 13.185 A 8.294 8.294 0 0 0 78.657 13.247 Q 78.637 13.352 78.608 13.516 Q 78.568 13.735 78.512 13.825 A 0.037 0.037 0 0 1 78.501 13.838 Q 78.483 13.851 78.445 13.858 A 3.427 3.427 0 0 1 78.386 13.87 A 4.463 4.463 0 0 1 78.321 13.881 A 0.542 0.542 0 0 0 78.251 13.898 Q 78.215 13.909 78.175 13.926 Q 78.097 13.959 78.041 14.027 Q 77.984 14.083 77.951 14.184 Q 77.917 14.285 77.872 14.386 A 0.795 0.795 0 0 1 77.816 14.491 A 0.639 0.639 0 0 1 77.765 14.56 A 0.2 0.2 0 0 1 77.619 14.633 A 0.267 0.267 0 0 1 77.603 14.633 Q 77.501 14.633 77.423 14.594 L 77.266 14.515 A 0.93 0.93 0 0 0 77.138 14.463 A 0.839 0.839 0 0 0 77.108 14.454 A 0.236 0.236 0 0 0 77.059 14.445 Q 76.997 14.441 76.917 14.465 A 0.049 0.049 0 0 1 76.935 14.487 Q 76.947 14.515 76.94 14.572 A 0.516 0.516 0 0 0 76.935 14.64 Q 76.935 14.692 76.946 14.746 A 0.288 0.288 0 0 0 76.991 14.853 A 0.403 0.403 0 0 0 77.041 14.914 A 0.217 0.217 0 0 0 77.113 14.96 Q 77.192 14.993 77.322 14.993 A 1.681 1.681 0 0 0 77.518 14.981 A 1.931 1.931 0 0 0 77.683 14.954 A 2.159 2.159 0 0 0 77.715 14.948 A 1.676 1.676 0 0 1 77.643 15.117 Q 77.603 15.198 77.558 15.263 A 0.817 0.817 0 0 1 77.501 15.335 A 1.566 1.566 0 0 1 77.226 15.582 A 11.45 11.45 0 0 1 76.912 15.796 A 1.582 1.582 0 0 0 76.73 15.935 A 2.043 2.043 0 0 0 76.592 16.071 A 1.304 1.304 0 0 1 76.474 16.176 Q 76.41 16.226 76.348 16.259 A 0.56 0.56 0 0 1 76.227 16.307 A 12.469 12.469 0 0 0 76.088 16.343 Q 75.964 16.377 75.817 16.419 Q 75.547 16.498 75.435 16.61 A 2.288 2.288 0 0 1 75.205 16.811 A 2.513 2.513 0 0 1 75.188 16.823 Q 75.083 16.902 74.921 16.963 A 1.868 1.868 0 0 1 74.823 16.997 A 1.145 1.145 0 0 1 74.673 17.033 Q 74.454 17.07 74.099 17.07 Q 73.649 17.07 73.206 17.037 A 17.137 17.137 0 0 1 72.324 16.947 A 1.904 1.904 0 0 1 72.188 16.927 Q 72.125 16.915 72.071 16.9 A 0.868 0.868 0 0 1 71.993 16.874 A 2.098 2.098 0 0 1 71.794 16.784 A 1.868 1.868 0 0 1 71.751 16.761 A 6.896 6.896 0 0 1 71.527 16.632 A 1.476 1.476 0 0 0 71.426 16.578 Q 71.346 16.538 71.246 16.498 A 5.768 5.768 0 0 1 71.174 16.47 Q 71.11 16.445 71.033 16.413 A 41.8 41.8 0 0 1 70.841 16.334 A 47.607 47.607 0 0 1 70.774 16.307 A 2.734 2.734 0 0 1 70.615 16.234 A 2.248 2.248 0 0 1 70.527 16.189 A 1.627 1.627 0 0 1 70.45 16.144 Q 70.414 16.121 70.385 16.1 A 0.741 0.741 0 0 1 70.348 16.071 Q 70.269 16.003 70.241 15.919 A 1.982 1.982 0 0 1 70.203 15.789 A 2.3 2.3 0 0 1 70.19 15.74 A 2.151 2.151 0 0 0 70.155 15.608 A 1.852 1.852 0 0 0 70.14 15.56 A 0.273 0.273 0 0 0 70.051 15.433 A 0.342 0.342 0 0 0 70.033 15.419 Q 69.865 15.397 69.708 15.358 Q 69.55 15.318 69.393 15.262 Q 69.348 15.139 69.309 15.021 A 9.445 9.445 0 0 0 69.227 14.787 A 10.051 10.051 0 0 0 69.225 14.779 A 3.032 3.032 0 0 0 69.09 14.643 Q 69.025 14.581 68.962 14.53 A 1.853 1.853 0 0 0 68.944 14.515 A 2.062 2.062 0 0 1 68.789 14.38 A 1.7 1.7 0 0 1 68.708 14.296 Q 68.607 14.184 68.534 14.032 Q 68.479 13.918 68.453 13.75 A 1.819 1.819 0 0 1 68.438 13.634 A 2.455 2.455 0 0 0 68.304 13.067 Q 68.203 12.792 68.096 12.522 A 6.815 6.815 0 0 1 67.905 11.972 A 1.983 1.983 0 0 1 67.821 11.399 A 1.613 1.613 0 0 1 67.89 10.938 A 1.94 1.94 0 0 1 67.944 10.781 A 2.284 2.284 0 0 1 67.54 9.776 A 7.655 7.655 0 0 1 67.461 8.681 A 10.974 10.974 0 0 1 67.467 8.327 Q 67.473 8.153 67.473 7.985 A 0.697 0.697 0 0 0 67.464 7.869 Q 67.453 7.807 67.431 7.757 A 0.336 0.336 0 0 0 67.388 7.687 A 0.387 0.387 0 0 1 67.31 7.503 A 0.52 0.52 0 0 1 67.304 7.423 A 1.624 1.624 0 0 1 67.377 6.94 Q 67.45 6.705 67.473 6.458 A 0.418 0.418 0 0 1 67.402 6.441 Q 67.315 6.411 67.282 6.345 Z M 19.182 2.628 L 19.328 2.617 L 19.204 2.628 A 5.272 5.272 0 0 1 18.716 2.605 A 5.272 5.272 0 0 0 18.227 2.583 A 2.816 2.816 0 0 0 17.828 2.611 A 0.73 0.73 0 0 0 17.475 2.763 A 131.512 131.512 0 0 1 17.115 3.045 A 107.386 107.386 0 0 1 16.778 3.307 A 1.744 1.744 0 0 0 16.415 3.696 A 2.29 2.29 0 0 0 16.239 3.998 A 0.918 0.918 0 0 1 16.196 4.081 Q 16.173 4.12 16.149 4.149 A 0.352 0.352 0 0 1 16.094 4.205 A 5.391 5.391 0 0 0 15.942 4.329 A 0.767 0.767 0 0 0 15.812 4.47 Q 15.763 4.539 15.74 4.685 A 1.291 1.291 0 0 0 15.734 4.728 Q 15.678 5.054 15.605 5.374 A 2.895 2.895 0 0 0 15.532 6.02 A 3.884 3.884 0 0 1 15.47 6.71 A 3.253 3.253 0 0 1 15.273 7.378 Q 15.24 7.468 15.212 7.547 A 0.49 0.49 0 0 0 15.184 7.693 A 0.562 0.562 0 0 0 15.184 7.715 A 0.601 0.601 0 0 0 15.199 7.853 A 0.452 0.452 0 0 0 15.262 8.002 A 0.647 0.647 0 0 1 15.303 8.071 Q 15.341 8.147 15.341 8.209 A 0.108 0.108 0 0 1 15.34 8.227 Q 15.338 8.235 15.335 8.242 A 0.03 0.03 0 0 1 15.313 8.26 A 0.165 0.165 0 0 0 15.275 8.273 A 0.205 0.205 0 0 0 15.257 8.282 Q 15.229 8.299 15.2 8.355 A 0.184 0.184 0 0 0 15.188 8.392 Q 15.172 8.45 15.172 8.558 Q 15.172 8.883 15.178 9.22 Q 15.184 9.557 15.24 9.883 A 1.388 1.388 0 0 0 15.358 10.248 A 0.828 0.828 0 0 1 15.442 10.613 A 0.576 0.576 0 0 1 15.405 10.814 A 0.688 0.688 0 0 1 15.386 10.86 A 0.617 0.617 0 0 0 15.33 11.118 A 0.447 0.447 0 0 0 15.342 11.227 A 0.319 0.319 0 0 0 15.419 11.371 A 2.051 2.051 0 0 1 15.526 11.494 A 2.579 2.579 0 0 1 15.599 11.59 Q 15.657 11.667 15.702 11.782 A 1.273 1.273 0 0 1 15.717 11.82 A 6.979 6.979 0 0 0 15.787 12.005 A 5.897 5.897 0 0 0 15.818 12.084 A 4.08 4.08 0 0 0 15.855 12.172 Q 15.876 12.22 15.896 12.261 A 2.205 2.205 0 0 0 15.914 12.297 A 0.309 0.309 0 0 0 15.935 12.333 Q 15.961 12.372 15.991 12.383 A 0.069 0.069 0 0 0 16.015 12.387 A 0.203 0.203 0 0 0 16.054 12.384 A 0.154 0.154 0 0 0 16.093 12.37 A 0.157 0.157 0 0 1 16.139 12.356 A 0.209 0.209 0 0 1 16.172 12.354 A 0.405 0.405 0 0 1 16.337 12.386 Q 16.444 12.433 16.514 12.55 A 0.896 0.896 0 0 1 16.595 12.721 A 0.666 0.666 0 0 1 16.632 12.938 A 0.455 0.455 0 0 0 16.65 13.068 A 0.369 0.369 0 0 0 16.722 13.201 A 1.163 1.163 0 0 0 16.883 13.358 A 1.346 1.346 0 0 0 16.936 13.398 A 6.029 6.029 0 0 0 17.188 13.572 Q 17.317 13.656 17.407 13.757 A 2.97 2.97 0 0 0 17.476 13.835 Q 17.544 13.907 17.595 13.95 A 0.5 0.5 0 0 0 17.637 13.982 A 0.722 0.722 0 0 0 17.696 14.017 Q 17.724 14.032 17.75 14.042 A 0.332 0.332 0 0 0 17.789 14.055 A 2.122 2.122 0 0 0 17.883 14.076 A 1.822 1.822 0 0 0 17.918 14.083 A 0.23 0.23 0 0 1 17.958 14.095 Q 18.01 14.114 18.081 14.162 A 5.024 5.024 0 0 1 18.27 14.306 A 5.765 5.765 0 0 1 18.334 14.358 A 5.384 5.384 0 0 0 18.524 14.509 A 4.684 4.684 0 0 0 18.586 14.555 Q 18.935 14.802 19.367 14.852 A 7.301 7.301 0 0 0 20.215 14.903 A 0.653 0.653 0 0 0 20.529 14.824 A 3.994 3.994 0 0 0 20.821 14.65 Q 20.967 14.555 21.119 14.476 A 0.709 0.709 0 0 1 21.45 14.397 Q 21.596 14.397 21.753 14.465 Q 22.012 14.072 22.248 13.836 Q 22.483 13.6 22.674 13.375 A 2.187 2.187 0 0 0 22.946 12.968 A 2.527 2.527 0 0 0 23 12.859 A 1.662 1.662 0 0 0 23.083 12.633 Q 23.119 12.513 23.146 12.37 A 4.152 4.152 0 0 0 23.191 12.062 A 1.118 1.118 0 0 1 23.309 11.663 A 1.107 1.107 0 0 0 23.427 11.275 A 8.049 8.049 0 0 0 23.489 10.377 A 6.607 6.607 0 0 1 23.562 9.479 Q 23.584 9.299 23.595 9.119 A 5.911 5.911 0 0 0 23.606 8.772 A 6.436 6.436 0 0 0 23.606 8.749 A 7.311 7.311 0 0 0 23.5 7.502 Q 23.393 6.884 23.292 6.267 A 1.841 1.841 0 0 0 23.152 5.84 Q 23.056 5.638 22.989 5.424 Q 22.854 5.02 22.73 4.616 L 22.483 3.807 Q 22.405 3.56 22.169 3.375 A 2.162 2.162 0 0 0 21.812 3.149 A 2.632 2.632 0 0 0 21.619 3.06 A 4.22 4.22 0 0 0 21.119 2.892 A 4.896 4.896 0 0 0 20.939 2.847 Q 20.574 2.763 20.237 2.712 Q 19.9 2.662 19.614 2.645 Q 19.328 2.628 19.182 2.628 Z M 73.223 2.628 L 73.369 2.617 L 73.245 2.628 A 5.272 5.272 0 0 1 72.757 2.605 A 5.272 5.272 0 0 0 72.268 2.583 A 2.816 2.816 0 0 0 71.869 2.611 A 0.73 0.73 0 0 0 71.516 2.763 A 131.512 131.512 0 0 1 71.156 3.045 A 107.386 107.386 0 0 1 70.819 3.307 A 1.744 1.744 0 0 0 70.456 3.696 A 2.29 2.29 0 0 0 70.28 3.998 A 0.918 0.918 0 0 1 70.237 4.081 Q 70.214 4.12 70.19 4.149 A 0.352 0.352 0 0 1 70.135 4.205 A 5.391 5.391 0 0 0 69.983 4.329 A 0.767 0.767 0 0 0 69.854 4.47 Q 69.804 4.539 69.781 4.685 A 1.291 1.291 0 0 0 69.775 4.728 Q 69.719 5.054 69.646 5.374 A 2.895 2.895 0 0 0 69.573 6.02 A 3.884 3.884 0 0 1 69.511 6.71 A 3.253 3.253 0 0 1 69.314 7.378 Q 69.281 7.468 69.253 7.547 A 0.49 0.49 0 0 0 69.225 7.693 A 0.562 0.562 0 0 0 69.225 7.715 A 0.601 0.601 0 0 0 69.24 7.853 A 0.452 0.452 0 0 0 69.303 8.002 A 0.647 0.647 0 0 1 69.344 8.071 Q 69.382 8.147 69.382 8.209 A 0.108 0.108 0 0 1 69.381 8.227 Q 69.379 8.235 69.376 8.242 A 0.03 0.03 0 0 1 69.354 8.26 A 0.165 0.165 0 0 0 69.316 8.273 A 0.205 0.205 0 0 0 69.298 8.282 Q 69.27 8.299 69.241 8.355 A 0.184 0.184 0 0 0 69.229 8.392 Q 69.213 8.45 69.213 8.558 Q 69.213 8.883 69.219 9.22 Q 69.225 9.557 69.281 9.883 A 1.388 1.388 0 0 0 69.399 10.248 A 0.828 0.828 0 0 1 69.483 10.613 A 0.576 0.576 0 0 1 69.446 10.814 A 0.688 0.688 0 0 1 69.427 10.86 A 0.617 0.617 0 0 0 69.371 11.118 A 0.447 0.447 0 0 0 69.383 11.227 A 0.319 0.319 0 0 0 69.46 11.371 A 2.051 2.051 0 0 1 69.567 11.494 A 2.579 2.579 0 0 1 69.64 11.59 Q 69.698 11.667 69.744 11.782 A 1.273 1.273 0 0 1 69.758 11.82 A 6.979 6.979 0 0 0 69.828 12.005 A 5.897 5.897 0 0 0 69.859 12.084 A 4.08 4.08 0 0 0 69.896 12.172 Q 69.917 12.22 69.937 12.261 A 2.205 2.205 0 0 0 69.955 12.297 A 0.309 0.309 0 0 0 69.976 12.333 Q 70.002 12.372 70.032 12.383 A 0.069 0.069 0 0 0 70.056 12.387 A 0.203 0.203 0 0 0 70.095 12.384 A 0.154 0.154 0 0 0 70.134 12.37 A 0.157 0.157 0 0 1 70.18 12.356 A 0.209 0.209 0 0 1 70.213 12.354 A 0.405 0.405 0 0 1 70.378 12.386 Q 70.485 12.433 70.555 12.55 A 0.896 0.896 0 0 1 70.636 12.721 A 0.666 0.666 0 0 1 70.673 12.938 A 0.455 0.455 0 0 0 70.691 13.068 A 0.369 0.369 0 0 0 70.763 13.201 A 1.163 1.163 0 0 0 70.924 13.358 A 1.346 1.346 0 0 0 70.977 13.398 A 6.029 6.029 0 0 0 71.229 13.572 Q 71.358 13.656 71.448 13.757 A 2.97 2.97 0 0 0 71.517 13.835 Q 71.585 13.907 71.636 13.95 A 0.5 0.5 0 0 0 71.678 13.982 A 0.722 0.722 0 0 0 71.737 14.017 Q 71.765 14.032 71.791 14.042 A 0.332 0.332 0 0 0 71.83 14.055 A 2.122 2.122 0 0 0 71.924 14.076 A 1.822 1.822 0 0 0 71.959 14.083 A 0.23 0.23 0 0 1 71.999 14.095 Q 72.051 14.114 72.122 14.162 A 5.024 5.024 0 0 1 72.311 14.306 A 5.765 5.765 0 0 1 72.375 14.358 A 5.384 5.384 0 0 0 72.565 14.509 A 4.684 4.684 0 0 0 72.627 14.555 Q 72.976 14.802 73.408 14.852 A 7.301 7.301 0 0 0 74.256 14.903 A 0.653 0.653 0 0 0 74.57 14.824 A 3.994 3.994 0 0 0 74.862 14.65 Q 75.008 14.555 75.16 14.476 A 0.709 0.709 0 0 1 75.491 14.397 Q 75.637 14.397 75.794 14.465 Q 76.053 14.072 76.289 13.836 Q 76.524 13.6 76.715 13.375 A 2.187 2.187 0 0 0 76.987 12.968 A 2.527 2.527 0 0 0 77.041 12.859 A 1.662 1.662 0 0 0 77.124 12.633 Q 77.16 12.513 77.187 12.37 A 4.152 4.152 0 0 0 77.232 12.062 A 1.118 1.118 0 0 1 77.35 11.663 A 1.107 1.107 0 0 0 77.468 11.275 A 8.049 8.049 0 0 0 77.53 10.377 A 6.607 6.607 0 0 1 77.603 9.479 Q 77.625 9.299 77.636 9.119 A 5.911 5.911 0 0 0 77.647 8.772 A 6.436 6.436 0 0 0 77.647 8.749 A 7.311 7.311 0 0 0 77.541 7.502 Q 77.434 6.884 77.333 6.267 A 1.841 1.841 0 0 0 77.193 5.84 Q 77.097 5.638 77.03 5.424 Q 76.895 5.02 76.771 4.616 L 76.524 3.807 Q 76.446 3.56 76.21 3.375 A 2.162 2.162 0 0 0 75.853 3.149 A 2.632 2.632 0 0 0 75.66 3.06 A 4.22 4.22 0 0 0 75.16 2.892 A 4.896 4.896 0 0 0 74.98 2.847 Q 74.615 2.763 74.278 2.712 Q 73.941 2.662 73.655 2.645 Q 73.369 2.628 73.223 2.628 Z M 37.869 8.412 A 2.979 2.979 0 0 0 37.746 7.558 A 2.579 2.579 0 0 0 37.364 6.783 Q 37.487 6.66 37.521 6.491 A 1.716 1.716 0 0 0 37.553 6.245 A 1.509 1.509 0 0 0 37.555 6.166 A 3.384 3.384 0 0 0 37.538 5.829 Q 37.521 5.66 37.521 5.503 A 0.225 0.225 0 0 0 37.459 5.346 Q 37.397 5.278 37.324 5.217 A 5.391 5.391 0 0 0 37.173 5.093 A 0.344 0.344 0 0 1 37.061 4.941 A 1.572 1.572 0 0 1 37.031 4.861 Q 37.017 4.821 37.008 4.786 A 0.765 0.765 0 0 1 36.999 4.745 Q 36.982 4.661 36.971 4.582 A 0.708 0.708 0 0 0 36.952 4.495 A 0.941 0.941 0 0 0 36.926 4.414 A 0.788 0.788 0 0 0 36.896 4.345 Q 36.864 4.279 36.813 4.2 A 1.223 1.223 0 0 1 36.757 4.101 A 0.969 0.969 0 0 1 36.724 4.026 Q 36.69 3.942 36.69 3.818 A 0.838 0.838 0 0 1 36.704 3.666 A 1.027 1.027 0 0 1 36.724 3.583 A 0.345 0.345 0 0 0 36.64 3.477 A 0.459 0.459 0 0 0 36.578 3.431 Q 36.477 3.369 36.353 3.335 A 1.464 1.464 0 0 0 36.193 3.293 A 1.917 1.917 0 0 0 36.05 3.268 A 0.636 0.636 0 0 1 35.861 3.238 Q 35.785 3.214 35.707 3.173 A 1.089 1.089 0 0 1 35.696 3.167 Q 35.511 3.066 35.309 2.942 A 4.88 4.88 0 0 0 34.899 2.718 Q 34.691 2.617 34.478 2.617 A 3.634 3.634 0 0 0 33.837 2.673 A 16.349 16.349 0 0 1 33.197 2.774 A 4.206 4.206 0 0 1 32.905 2.803 A 5.33 5.33 0 0 1 32.658 2.813 A 2.949 2.949 0 0 0 32.309 2.84 A 2.464 2.464 0 0 0 32.114 2.875 A 1.023 1.023 0 0 0 31.882 2.955 A 0.831 0.831 0 0 0 31.692 3.083 Q 31.554 3.207 31.529 3.449 A 1.09 1.09 0 0 0 31.524 3.56 A 6.424 6.424 0 0 0 31.574 4.357 A 6.696 6.696 0 0 1 31.625 5.188 A 21.426 21.426 0 0 1 31.552 6.957 A 21.562 21.562 0 0 0 31.479 8.737 A 7.572 7.572 0 0 0 31.524 9.563 A 7.676 7.676 0 0 1 31.569 10.399 A 7.046 7.046 0 0 1 31.485 11.489 A 7.046 7.046 0 0 0 31.4 12.578 L 31.4 13.061 Q 31.4 13.319 31.445 13.555 A 1.191 1.191 0 0 0 31.599 13.958 A 1.142 1.142 0 0 0 31.614 13.982 A 0.671 0.671 0 0 0 31.862 14.208 A 0.896 0.896 0 0 0 31.984 14.263 A 77.638 77.638 0 0 0 32.675 14.504 A 2.209 2.209 0 0 0 33.396 14.622 A 1.588 1.588 0 0 0 33.399 14.622 A 0.964 0.964 0 0 0 33.817 14.525 A 1.122 1.122 0 0 0 33.837 14.515 A 2.736 2.736 0 0 1 34.275 14.341 A 3.273 3.273 0 0 1 34.431 14.298 Q 34.514 14.277 34.607 14.257 A 5.77 5.77 0 0 0 34.972 14.167 Q 35.151 14.117 35.314 14.032 A 1.016 1.016 0 0 0 35.51 13.902 A 0.892 0.892 0 0 0 35.589 13.825 A 5.381 5.381 0 0 1 35.755 13.645 A 4.163 4.163 0 0 1 35.915 13.488 A 0.711 0.711 0 0 1 36.1 13.366 Q 36.183 13.327 36.284 13.301 A 1.363 1.363 0 0 1 36.353 13.286 A 0.445 0.445 0 0 0 36.416 13.271 Q 36.491 13.247 36.522 13.2 A 0.128 0.128 0 0 0 36.527 13.19 A 0.51 0.51 0 0 0 36.567 13.092 A 0.65 0.65 0 0 0 36.583 13.022 A 1.465 1.465 0 0 1 36.61 12.901 A 1.817 1.817 0 0 1 36.634 12.82 A 0.321 0.321 0 0 1 36.707 12.697 A 0.457 0.457 0 0 1 36.78 12.634 A 1.01 1.01 0 0 0 36.97 12.451 A 0.879 0.879 0 0 0 37.055 12.32 A 1.506 1.506 0 0 0 37.195 11.938 A 4.936 4.936 0 0 0 37.268 11.528 A 3.062 3.062 0 0 1 37.353 11.118 A 13.33 13.33 0 0 1 37.639 10.208 Q 37.802 9.748 37.802 9.276 A 0.464 0.464 0 0 0 37.786 9.153 A 0.393 0.393 0 0 0 37.746 9.057 A 0.407 0.407 0 0 1 37.692 8.891 A 0.506 0.506 0 0 1 37.689 8.838 A 0.251 0.251 0 0 1 37.691 8.811 Q 37.694 8.783 37.704 8.768 A 0.042 0.042 0 0 1 37.718 8.754 A 0.39 0.39 0 0 0 37.743 8.738 Q 37.756 8.728 37.77 8.717 A 0.72 0.72 0 0 0 37.779 8.709 A 0.187 0.187 0 0 0 37.806 8.682 Q 37.817 8.667 37.828 8.649 A 0.397 0.397 0 0 0 37.841 8.625 A 0.178 0.178 0 0 0 37.854 8.589 Q 37.868 8.531 37.869 8.422 A 1.695 1.695 0 0 0 37.869 8.412 Z M 45.91 2.257 Q 45.978 2.167 45.876 2.055 A 0.398 0.398 0 0 0 45.804 1.991 A 0.267 0.267 0 0 0 45.652 1.943 Q 45.535 1.943 45.49 2.04 A 0.246 0.246 0 0 0 45.478 2.072 Q 45.445 2.18 45.44 2.268 A 0.558 0.558 0 0 0 45.438 2.302 A 0.359 0.359 0 0 0 45.46 2.36 Q 45.479 2.399 45.506 2.426 Q 45.54 2.471 45.584 2.504 A 0.164 0.164 0 0 0 45.686 2.538 A 0.328 0.328 0 0 0 45.735 2.535 Q 45.789 2.526 45.82 2.499 Q 45.865 2.459 45.888 2.403 Q 45.91 2.347 45.91 2.257 Z" vector-effect="non-scaling-stroke"/></g></svg>