<?xml version="1.0" standalone="no"?>
<!DOCTYPE svg PUBLIC "-//W3C//DTD SVG 20010904//EN"
 "http://www.w3.org/TR/2001/REC-SVG-20010904/DTD/svg10.dtd">
<svg width="112.424" height="18.952" viewBox="0 0 112.424 18.952" xmlns="http://www.w3.org/2000/svg"><g id="svgGroup" stroke-linecap="round" fill-rule="evenodd" font-size="9pt" stroke="#000" stroke-width="0.5mm" fill="none" style="stroke:#000;stroke-width:0.5mm;fill:none"><path stroke="white" d="M 67.88 9.767 A 1.39 1.39 0 0 0 67.459 9.706 A 5.834 5.834 0 0 0 67.041 9.722 Q 66.609 9.754 66.045 9.844 Q 65.182 9.982 64.285 10.201 A 28.165 28.165 0 0 0 63.789 10.326 A 24.149 24.149 0 0 0 62.595 10.672 Q 62.049 10.846 61.683 11.009 A 3.773 3.773 0 0 0 61.387 11.155 Q 61.571 11.753 62.089 12.098 Q 62.606 12.443 63.296 12.443 Q 63.825 12.443 64.412 12.317 A 846.814 846.814 0 0 1 64.708 12.253 A 975.409 975.409 0 0 1 65.642 12.052 A 4.845 4.845 0 0 1 65.466 12.904 A 6.429 6.429 0 0 1 65.125 13.789 Q 64.699 14.697 64.09 15.491 A 8.771 8.771 0 0 1 64.013 15.589 A 7.88 7.88 0 0 1 62.744 16.871 Q 62.399 17.145 62.054 17.327 A 3.106 3.106 0 0 1 61.272 17.618 A 1.812 1.812 0 0 1 60.837 17.527 A 2.005 2.005 0 0 1 60.249 17.204 A 2.829 2.829 0 0 1 59.805 16.769 A 3.686 3.686 0 0 1 59.432 16.215 A 5.182 5.182 0 0 1 59.122 15.542 A 6.841 6.841 0 0 1 58.88 14.766 A 6.631 6.631 0 0 1 58.731 13.949 A 8.574 8.574 0 0 1 58.673 12.926 A 16.82 16.82 0 0 1 58.792 10.888 A 13.071 13.071 0 0 1 59.455 8.039 A 12.561 12.561 0 0 1 60.325 6.144 A 15.542 15.542 0 0 1 61.939 3.818 Q 63.135 2.369 64.32 1.599 A 6.438 6.438 0 0 1 64.703 1.367 Q 65.673 0.828 66.539 0.828 A 2.718 2.718 0 0 1 66.712 0.833 Q 67.519 0.885 67.73 1.436 A 1.258 1.258 0 0 1 67.804 1.886 A 2.486 2.486 0 0 1 67.781 2.232 A 1.907 1.907 0 0 1 67.482 3.036 Q 67.261 3.368 66.822 3.744 A 7.685 7.685 0 0 1 66.378 4.094 Q 66.47 4.623 66.861 5.026 Q 67.252 5.428 67.781 5.589 A 9.652 9.652 0 0 0 68.222 5.157 Q 68.482 4.885 68.68 4.628 A 4.185 4.185 0 0 0 69.035 4.094 Q 69.414 3.404 69.414 2.599 A 3.087 3.087 0 0 0 69.4 2.298 A 2.159 2.159 0 0 0 68.529 0.713 Q 67.643 0.046 66.056 0.046 Q 64.032 0.046 62.158 1.093 Q 60.283 2.139 58.834 3.864 A 13.395 13.395 0 0 0 58.611 4.137 A 14.214 14.214 0 0 0 56.511 7.809 Q 55.637 10.028 55.637 12.397 A 12.058 12.058 0 0 0 55.734 13.979 Q 56.008 16.041 57.052 17.17 A 4.246 4.246 0 0 0 58.327 18.102 Q 59.607 18.725 61.548 18.768 A 5.145 5.145 0 0 0 62.609 18.361 A 7.04 7.04 0 0 0 63.549 17.779 Q 64.561 17.043 65.412 16.066 Q 66.263 15.088 66.861 13.973 A 8.922 8.922 0 0 0 66.87 13.956 Q 67.46 12.85 67.597 11.845 A 6.335 6.335 0 0 1 68.032 11.877 A 5.066 5.066 0 0 1 68.655 11.983 A 1.157 1.157 0 0 0 68.671 11.93 Q 68.705 11.809 68.724 11.65 Q 68.747 11.454 68.747 11.27 A 2.836 2.836 0 0 0 68.739 11.048 Q 68.693 10.469 68.402 10.12 A 1.1 1.1 0 0 0 67.88 9.767 Z M 24.107 0.546 A 5.885 5.885 0 0 0 23.552 0.276 A 4.144 4.144 0 0 0 23.546 0.274 Q 23.182 0.115 22.862 0.058 Q 22.54 0 22.172 0 Q 21.045 0 19.976 0.621 A 7.389 7.389 0 0 0 19.129 1.196 A 8.889 8.889 0 0 0 17.975 2.289 A 12.786 12.786 0 0 0 17.297 3.119 A 15.238 15.238 0 0 0 16.261 4.704 Q 15.479 6.072 14.916 7.59 Q 14.352 9.108 14.042 10.672 A 17.354 17.354 0 0 0 13.865 11.728 A 14.28 14.28 0 0 0 13.731 13.639 A 10.342 10.342 0 0 0 13.795 14.819 Q 13.882 15.578 14.089 16.2 A 4.31 4.31 0 0 0 14.847 17.607 Q 15.962 18.952 18.078 18.952 A 6.824 6.824 0 0 0 19.556 18.785 A 8.725 8.725 0 0 0 21.091 18.285 Q 22.655 17.618 24.035 16.399 A 12.76 12.76 0 0 0 24.555 15.92 A 14.434 14.434 0 0 0 26.013 14.26 Q 26.933 13.041 27.612 11.638 Q 28.29 10.235 28.67 8.683 Q 29.049 7.13 29.049 5.52 A 8.553 8.553 0 0 0 29.034 5.004 Q 29.015 4.69 28.972 4.422 A 3.661 3.661 0 0 0 28.854 3.91 A 4.869 4.869 0 0 0 28.782 3.698 Q 28.7 3.474 28.604 3.286 A 2.517 2.517 0 0 0 28.371 2.91 A 2.6 2.6 0 0 0 28.101 2.603 A 1.883 1.883 0 0 0 27.75 2.335 A 14.447 14.447 0 0 0 27.728 2.322 Q 27.568 2.228 27.421 2.148 A 8.832 8.832 0 0 0 27.14 2.001 Q 27.163 2.116 27.186 2.277 A 17.977 17.977 0 0 1 27.191 2.312 Q 27.207 2.423 27.227 2.577 A 61.731 61.731 0 0 1 27.244 2.703 Q 27.265 2.868 27.282 3.078 A 13.171 13.171 0 0 1 27.301 3.347 A 10.603 10.603 0 0 1 27.313 3.601 Q 27.324 3.899 27.324 4.278 A 16.243 16.243 0 0 1 27.324 4.3 A 17.546 17.546 0 0 1 27.083 7.142 Q 26.841 8.602 26.393 9.982 Q 25.944 11.362 25.3 12.593 A 13.937 13.937 0 0 1 24.968 13.191 A 11.932 11.932 0 0 1 23.851 14.789 Q 23.299 15.456 22.655 16.008 Q 22.011 16.56 21.344 16.951 A 8.12 8.12 0 0 1 20.888 17.199 A 6.676 6.676 0 0 1 20.033 17.561 A 4.442 4.442 0 0 1 19.449 17.717 A 3.23 3.23 0 0 1 18.837 17.779 A 2.716 2.716 0 0 1 18.491 17.758 A 1.922 1.922 0 0 1 17.089 16.905 A 2.314 2.314 0 0 1 17.007 16.775 Q 16.647 16.167 16.538 15.173 A 8.626 8.626 0 0 1 16.491 14.237 Q 16.491 12.857 16.813 11.431 Q 17.135 10.005 17.699 8.671 Q 18.262 7.337 19.044 6.164 A 13.463 13.463 0 0 1 19.495 5.528 A 11.426 11.426 0 0 1 20.746 4.117 A 9.043 9.043 0 0 1 21.22 3.697 A 7.612 7.612 0 0 1 22.69 2.737 A 5.392 5.392 0 0 1 23.09 2.559 A 4.464 4.464 0 0 1 24.748 2.231 Q 25.07 2.231 25.461 2.266 Q 25.852 2.3 26.243 2.392 A 0.39 0.39 0 0 0 26.221 2.306 Q 26.181 2.197 26.073 2.058 A 2.234 2.234 0 0 0 25.956 1.921 A 3.667 3.667 0 0 0 25.92 1.882 Q 25.793 1.748 25.639 1.612 A 6.122 6.122 0 0 0 25.3 1.334 A 9.868 9.868 0 0 0 25.087 1.176 A 11.418 11.418 0 0 0 24.449 0.748 A 7.21 7.21 0 0 0 24.107 0.546 Z M 80.825 0.546 A 5.885 5.885 0 0 0 80.27 0.276 A 4.144 4.144 0 0 0 80.264 0.274 Q 79.9 0.115 79.58 0.058 Q 79.258 0 78.89 0 Q 77.763 0 76.694 0.621 A 7.389 7.389 0 0 0 75.847 1.196 A 8.889 8.889 0 0 0 74.693 2.289 A 12.786 12.786 0 0 0 74.015 3.119 A 15.238 15.238 0 0 0 72.979 4.704 Q 72.197 6.072 71.634 7.59 Q 71.07 9.108 70.76 10.672 A 17.354 17.354 0 0 0 70.583 11.728 A 14.28 14.28 0 0 0 70.449 13.639 A 10.342 10.342 0 0 0 70.513 14.819 Q 70.6 15.578 70.807 16.2 A 4.31 4.31 0 0 0 71.565 17.607 Q 72.68 18.952 74.796 18.952 A 6.824 6.824 0 0 0 76.274 18.785 A 8.725 8.725 0 0 0 77.809 18.285 Q 79.373 17.618 80.753 16.399 A 12.76 12.76 0 0 0 81.273 15.92 A 14.434 14.434 0 0 0 82.731 14.26 Q 83.651 13.041 84.33 11.638 Q 85.008 10.235 85.388 8.683 Q 85.767 7.13 85.767 5.52 A 8.553 8.553 0 0 0 85.752 5.004 Q 85.733 4.69 85.69 4.422 A 3.661 3.661 0 0 0 85.572 3.91 A 4.869 4.869 0 0 0 85.5 3.698 Q 85.418 3.474 85.322 3.286 A 2.517 2.517 0 0 0 85.089 2.91 A 2.6 2.6 0 0 0 84.819 2.603 A 1.883 1.883 0 0 0 84.468 2.335 A 14.447 14.447 0 0 0 84.446 2.322 Q 84.286 2.228 84.139 2.148 A 8.832 8.832 0 0 0 83.858 2.001 Q 83.881 2.116 83.904 2.277 A 17.977 17.977 0 0 1 83.909 2.312 Q 83.925 2.423 83.945 2.577 A 61.731 61.731 0 0 1 83.962 2.703 Q 83.983 2.868 84 3.078 A 13.171 13.171 0 0 1 84.019 3.347 A 10.603 10.603 0 0 1 84.031 3.601 Q 84.042 3.899 84.042 4.278 A 16.243 16.243 0 0 1 84.042 4.3 A 17.546 17.546 0 0 1 83.801 7.142 Q 83.559 8.602 83.111 9.982 Q 82.662 11.362 82.018 12.593 A 13.937 13.937 0 0 1 81.686 13.191 A 11.932 11.932 0 0 1 80.569 14.789 Q 80.017 15.456 79.373 16.008 Q 78.729 16.56 78.062 16.951 A 8.12 8.12 0 0 1 77.606 17.199 A 6.676 6.676 0 0 1 76.751 17.561 A 4.442 4.442 0 0 1 76.167 17.717 A 3.23 3.23 0 0 1 75.555 17.779 A 2.716 2.716 0 0 1 75.209 17.758 A 1.922 1.922 0 0 1 73.807 16.905 A 2.314 2.314 0 0 1 73.725 16.775 Q 73.365 16.167 73.256 15.173 A 8.626 8.626 0 0 1 73.209 14.237 Q 73.209 12.857 73.531 11.431 Q 73.853 10.005 74.417 8.671 Q 74.98 7.337 75.762 6.164 A 13.463 13.463 0 0 1 76.213 5.528 A 11.426 11.426 0 0 1 77.464 4.117 A 9.043 9.043 0 0 1 77.938 3.697 A 7.612 7.612 0 0 1 79.408 2.737 A 5.392 5.392 0 0 1 79.808 2.559 A 4.464 4.464 0 0 1 81.466 2.231 Q 81.788 2.231 82.179 2.266 Q 82.57 2.3 82.961 2.392 A 0.39 0.39 0 0 0 82.939 2.306 Q 82.899 2.197 82.791 2.058 A 2.234 2.234 0 0 0 82.674 1.921 A 3.667 3.667 0 0 0 82.638 1.882 Q 82.511 1.748 82.357 1.612 A 6.122 6.122 0 0 0 82.018 1.334 A 9.868 9.868 0 0 0 81.805 1.176 A 11.418 11.418 0 0 0 81.167 0.748 A 7.21 7.21 0 0 0 80.825 0.546 Z M 0 12.512 Q 0 10.902 0.38 9.35 Q 0.759 7.797 1.449 6.406 Q 2.139 5.014 3.094 3.853 A 12.099 12.099 0 0 1 5.045 1.948 A 11.29 11.29 0 0 1 5.187 1.84 Q 6.325 0.989 7.613 0.518 Q 8.901 0.046 10.258 0.046 Q 11.845 0.046 12.731 0.713 A 2.146 2.146 0 0 1 13.602 2.285 A 2.982 2.982 0 0 1 13.616 2.576 A 3.627 3.627 0 0 1 13.533 3.339 A 4.152 4.152 0 0 1 13.49 3.519 A 4.681 4.681 0 0 1 13.151 4.415 A 5.179 5.179 0 0 1 13.122 4.474 Q 12.88 4.945 12.558 5.382 A 4.285 4.285 0 0 1 11.966 6.038 A 3.907 3.907 0 0 1 11.845 6.141 Q 11.247 6.049 10.81 5.601 Q 10.373 5.152 10.258 4.554 A 7.284 7.284 0 0 0 10.977 3.875 A 5.457 5.457 0 0 0 11.535 3.163 A 3.723 3.723 0 0 0 11.793 2.701 Q 11.91 2.45 11.962 2.216 A 1.707 1.707 0 0 0 12.006 1.84 A 1.145 1.145 0 0 0 11.927 1.397 Q 11.721 0.902 10.977 0.838 A 2.727 2.727 0 0 0 10.741 0.828 A 2.824 2.824 0 0 0 10.006 0.929 A 3.508 3.508 0 0 0 9.649 1.047 A 5.264 5.264 0 0 0 8.94 1.387 A 6.522 6.522 0 0 0 8.51 1.656 A 7.037 7.037 0 0 0 7.701 2.301 A 8.279 8.279 0 0 0 7.395 2.599 Q 6.854 3.151 6.394 3.818 A 19.054 19.054 0 0 0 4.16 8.011 A 14.787 14.787 0 0 0 3.197 13.225 Q 3.197 14.927 3.726 15.962 A 3.076 3.076 0 0 0 4.089 16.524 Q 4.527 17.054 5.129 17.181 A 4.265 4.265 0 0 0 5.799 16.959 Q 6.481 16.674 7.347 16.109 A 17.127 17.127 0 0 0 7.636 15.916 A 23.087 23.087 0 0 0 9.017 14.892 Q 9.708 14.34 10.449 13.678 A 41.956 41.956 0 0 0 10.948 13.225 Q 11.158 13.435 11.215 13.665 A 0.719 0.719 0 0 1 11.224 13.708 Q 10.557 14.582 9.844 15.387 A 25.063 25.063 0 0 1 8.869 16.429 A 21.393 21.393 0 0 1 8.43 16.859 A 16.415 16.415 0 0 1 7.564 17.628 A 13.414 13.414 0 0 1 7.05 18.032 A 9.883 9.883 0 0 1 6.495 18.418 Q 6.128 18.654 5.796 18.814 A 8.311 8.311 0 0 1 4.092 18.622 Q 3.057 18.387 2.278 17.867 A 4.511 4.511 0 0 1 1.472 17.181 Q 0 15.594 0 12.512 Z M 31.119 15.824 Q 31.464 15.065 31.947 13.869 Q 32.43 12.673 32.959 11.282 Q 33.488 9.89 34.04 8.43 A 385.025 385.025 0 0 0 34.575 7.006 A 325.892 325.892 0 0 0 35.075 5.658 A 144.846 144.846 0 0 0 35.473 4.564 Q 35.714 3.894 35.915 3.312 A 72.331 72.331 0 0 0 36.081 2.825 Q 36.239 2.353 36.346 2.01 A 17.007 17.007 0 0 0 36.432 1.725 Q 34.983 2.323 33.948 3.542 A 7.28 7.28 0 0 0 32.897 5.208 A 9.686 9.686 0 0 0 32.384 6.601 A 2.24 2.24 0 0 1 31.686 6.2 A 2.851 2.851 0 0 1 31.418 5.946 A 2.246 2.246 0 0 1 30.931 5.102 A 2.845 2.845 0 0 1 30.843 4.761 Q 31.073 3.703 31.706 2.829 A 5.816 5.816 0 0 1 33.185 1.413 A 6.631 6.631 0 0 1 33.304 1.334 A 7.263 7.263 0 0 1 34.737 0.629 A 8.931 8.931 0 0 1 35.535 0.38 A 10.207 10.207 0 0 1 37.533 0.067 A 12.016 12.016 0 0 1 38.249 0.046 A 10.922 10.922 0 0 1 40.38 0.247 A 9.168 9.168 0 0 1 41.63 0.587 Q 43.171 1.127 44.275 2.093 Q 45.379 3.059 46 4.416 Q 46.621 5.773 46.621 7.429 Q 46.621 9.683 45.793 11.73 Q 44.965 13.777 43.551 15.341 Q 42.136 16.905 40.273 17.837 Q 38.41 18.768 36.363 18.768 Q 34.477 18.768 33.132 18.021 Q 31.786 17.273 31.119 15.824 Z M 98.521 15.407 A 2.445 2.445 0 0 0 98.049 15.364 A 9.082 9.082 0 0 0 98.028 15.364 Q 97.714 15.365 97.325 15.387 A 20.515 20.515 0 0 0 96.902 15.416 A 27.073 27.073 0 0 0 96.439 15.456 Q 96.945 13.8 97.578 11.903 A 181.176 181.176 0 0 1 97.736 11.43 A 163.839 163.839 0 0 1 98.843 8.246 A 87.38 87.38 0 0 1 99.469 6.555 A 69.433 69.433 0 0 1 100.085 5.003 Q 100.504 3.983 100.852 3.273 A 12.941 12.941 0 0 1 101.154 2.691 Q 101.338 2.369 101.58 2.093 A 4.653 4.653 0 0 1 101.641 2.024 A 5.116 5.116 0 0 1 102.12 1.564 A 0.835 0.835 0 0 0 102.029 1.421 Q 101.88 1.232 101.603 1.081 A 4.258 4.258 0 0 0 101.292 0.928 A 5.21 5.21 0 0 0 100.752 0.725 Q 100.28 0.575 99.797 0.472 Q 99.494 0.407 99.255 0.346 A 8.698 8.698 0 0 1 98.992 0.276 Q 98.739 0.736 98.383 1.196 Q 98.026 1.656 97.773 1.909 A 87.025 87.025 0 0 0 96.761 2.892 A 68.871 68.871 0 0 0 95.841 3.818 A 17.509 17.509 0 0 0 95.188 4.527 A 21.384 21.384 0 0 0 94.116 5.865 Q 94.116 6.125 94.19 6.285 A 0.418 0.418 0 0 0 94.369 6.486 Q 94.967 5.957 95.807 5.348 A 11.762 11.762 0 0 1 96.556 4.845 A 8.934 8.934 0 0 1 97.428 4.37 Q 96.968 5.704 96.508 7.13 Q 96.048 8.556 95.623 10.017 Q 95.197 11.477 94.795 12.938 Q 94.392 14.398 94.07 15.778 Q 93.38 15.893 92.725 16.008 A 24.916 24.916 0 0 0 92.682 16.015 Q 92.052 16.127 91.552 16.25 Q 91.228 16.329 90.968 16.399 A 15.265 15.265 0 0 0 90.678 16.48 A 4.062 4.062 0 0 0 90.626 16.495 Q 90.314 16.59 90.229 16.675 A 1.66 1.66 0 0 0 90.626 17.275 A 2.1 2.1 0 0 0 91.103 17.618 A 2.817 2.817 0 0 0 91.908 17.897 A 3.905 3.905 0 0 0 92.644 17.963 A 7.389 7.389 0 0 0 93.145 17.945 A 9.46 9.46 0 0 0 93.84 17.871 A 178.186 178.186 0 0 0 94.165 17.824 A 198.11 198.11 0 0 0 95.174 17.676 Q 95.864 17.572 96.589 17.48 A 12.213 12.213 0 0 1 96.634 17.474 A 11.195 11.195 0 0 1 98.003 17.388 A 13.462 13.462 0 0 1 98.233 17.39 Q 98.418 17.393 98.582 17.401 A 7.047 7.047 0 0 1 98.877 17.423 Q 99.245 17.457 99.544 17.503 A 1.642 1.642 0 0 0 99.565 17.435 Q 99.598 17.319 99.625 17.17 A 2.416 2.416 0 0 0 99.634 17.109 A 2.143 2.143 0 0 0 99.659 16.79 A 1.809 1.809 0 0 0 99.636 16.493 A 1.245 1.245 0 0 0 99.234 15.744 Q 98.951 15.491 98.521 15.407 Z M 108.825 15.407 A 2.445 2.445 0 0 0 108.353 15.364 A 9.082 9.082 0 0 0 108.332 15.364 Q 108.018 15.365 107.629 15.387 A 20.515 20.515 0 0 0 107.206 15.416 A 27.073 27.073 0 0 0 106.743 15.456 Q 107.249 13.8 107.882 11.903 A 181.176 181.176 0 0 1 108.04 11.43 A 163.839 163.839 0 0 1 109.147 8.246 A 87.38 87.38 0 0 1 109.773 6.555 A 69.433 69.433 0 0 1 110.389 5.003 Q 110.808 3.983 111.156 3.273 A 12.941 12.941 0 0 1 111.458 2.691 Q 111.642 2.369 111.884 2.093 A 4.653 4.653 0 0 1 111.945 2.024 A 5.116 5.116 0 0 1 112.424 1.564 A 0.835 0.835 0 0 0 112.333 1.421 Q 112.184 1.232 111.907 1.081 A 4.258 4.258 0 0 0 111.596 0.928 A 5.21 5.21 0 0 0 111.056 0.725 Q 110.584 0.575 110.101 0.472 Q 109.798 0.407 109.559 0.346 A 8.698 8.698 0 0 1 109.296 0.276 Q 109.043 0.736 108.687 1.196 Q 108.33 1.656 108.077 1.909 A 87.025 87.025 0 0 0 107.065 2.892 A 68.871 68.871 0 0 0 106.145 3.818 A 17.509 17.509 0 0 0 105.492 4.527 A 21.384 21.384 0 0 0 104.42 5.865 Q 104.42 6.125 104.494 6.285 A 0.418 0.418 0 0 0 104.673 6.486 Q 105.271 5.957 106.111 5.348 A 11.762 11.762 0 0 1 106.86 4.845 A 8.934 8.934 0 0 1 107.732 4.37 Q 107.272 5.704 106.812 7.13 Q 106.352 8.556 105.927 10.017 Q 105.501 11.477 105.099 12.938 Q 104.696 14.398 104.374 15.778 Q 103.684 15.893 103.029 16.008 A 24.916 24.916 0 0 0 102.986 16.015 Q 102.356 16.127 101.856 16.25 Q 101.532 16.329 101.272 16.399 A 15.265 15.265 0 0 0 100.982 16.48 A 4.062 4.062 0 0 0 100.93 16.495 Q 100.618 16.59 100.533 16.675 A 1.66 1.66 0 0 0 100.93 17.275 A 2.1 2.1 0 0 0 101.407 17.618 A 2.817 2.817 0 0 0 102.212 17.897 A 3.905 3.905 0 0 0 102.948 17.963 A 7.389 7.389 0 0 0 103.449 17.945 A 9.46 9.46 0 0 0 104.144 17.871 A 178.186 178.186 0 0 0 104.469 17.824 A 198.11 198.11 0 0 0 105.478 17.676 Q 106.168 17.572 106.893 17.48 A 12.213 12.213 0 0 1 106.938 17.474 A 11.195 11.195 0 0 1 108.307 17.388 A 13.462 13.462 0 0 1 108.537 17.39 Q 108.722 17.393 108.886 17.401 A 7.047 7.047 0 0 1 109.181 17.423 Q 109.549 17.457 109.848 17.503 A 1.642 1.642 0 0 0 109.869 17.435 Q 109.902 17.319 109.929 17.17 A 2.416 2.416 0 0 0 109.938 17.109 A 2.143 2.143 0 0 0 109.963 16.79 A 1.809 1.809 0 0 0 109.94 16.493 A 1.245 1.245 0 0 0 109.538 15.744 Q 109.255 15.491 108.825 15.407 Z M 39.238 1.196 A 7.37 7.37 0 0 0 37.248 1.46 A 6.894 6.894 0 0 0 37.053 1.518 A 13.051 13.051 0 0 1 37.764 1.799 Q 38.108 1.948 38.4 2.102 A 6.612 6.612 0 0 1 38.732 2.289 A 14.673 14.673 0 0 1 39.04 2.479 Q 39.324 2.66 39.502 2.797 A 2.368 2.368 0 0 1 39.652 2.921 A 3.425 3.425 0 0 0 39.549 3.072 Q 39.38 3.334 39.114 3.813 A 27.381 27.381 0 0 0 39.112 3.818 A 40.757 40.757 0 0 0 38.828 4.34 Q 38.578 4.807 38.284 5.382 Q 37.812 6.302 37.283 7.395 Q 36.754 8.487 36.248 9.637 A 113.129 113.129 0 0 0 35.638 11.02 Q 34.989 12.519 34.579 13.608 A 28.201 28.201 0 0 0 34.351 14.237 Q 33.81 15.785 33.768 16.453 A 1.7 1.7 0 0 0 33.764 16.56 A 2.566 2.566 0 0 0 34.066 16.646 Q 34.223 16.681 34.402 16.704 A 4.845 4.845 0 0 0 34.546 16.721 A 9.236 9.236 0 0 0 35.148 16.761 A 11.3 11.3 0 0 0 35.535 16.767 Q 37.398 16.767 39.066 15.905 Q 40.733 15.042 41.987 13.593 A 10.949 10.949 0 0 0 43.824 10.579 A 12.525 12.525 0 0 0 43.965 10.224 Q 44.689 8.303 44.689 6.187 Q 44.689 3.818 43.217 2.507 A 4.966 4.966 0 0 0 41.104 1.412 Q 40.362 1.223 39.49 1.199 A 9.292 9.292 0 0 0 39.238 1.196 Z M 48.188 15.143 A 6.786 6.786 0 0 0 48.162 15.709 Q 48.162 15.845 48.182 16.03 A 5.931 5.931 0 0 0 48.208 16.238 Q 48.254 16.56 48.335 16.871 A 3.959 3.959 0 0 0 48.4 17.098 A 3.188 3.188 0 0 0 48.53 17.434 Q 48.598 17.584 48.683 17.67 A 0.391 0.391 0 0 0 48.806 17.756 A 0.815 0.815 0 0 1 48.892 17.8 A 0.635 0.635 0 0 1 49.117 18.021 A 4.153 4.153 0 0 0 49.143 18.064 A 4.545 4.545 0 0 0 49.347 18.366 A 0.974 0.974 0 0 0 49.375 18.402 Q 49.439 18.481 49.524 18.555 A 1.672 1.672 0 0 0 49.703 18.688 A 0.666 0.666 0 0 0 49.772 18.726 Q 49.928 18.804 50.18 18.838 A 2.938 2.938 0 0 0 50.439 18.86 Q 50.37 18.768 50.37 18.377 Q 50.37 17.526 50.589 16.146 A 33.208 33.208 0 0 1 50.85 14.709 A 42.875 42.875 0 0 1 51.198 13.156 A 51.583 51.583 0 0 1 51.402 12.345 A 58.113 58.113 0 0 1 52.118 9.833 A 49.225 49.225 0 0 1 52.319 9.196 A 43.727 43.727 0 0 1 53.257 6.578 Q 53.866 5.037 54.522 3.83 A 10.59 10.59 0 0 1 54.898 3.187 Q 55.126 2.83 55.356 2.545 A 4.451 4.451 0 0 1 55.844 2.024 A 0.573 0.573 0 0 0 55.822 1.979 Q 55.75 1.85 55.593 1.709 A 2.353 2.353 0 0 0 55.43 1.576 A 4.862 4.862 0 0 0 55.254 1.45 A 5.592 5.592 0 0 0 54.717 1.127 A 8.415 8.415 0 0 0 54.571 1.051 A 7.44 7.44 0 0 0 53.947 0.771 Q 53.686 0.668 53.495 0.625 A 1.32 1.32 0 0 0 53.337 0.598 Q 53.023 0.929 52.649 1.568 A 13.164 13.164 0 0 0 52.348 2.116 A 21.015 21.015 0 0 0 52.275 2.258 Q 51.758 3.267 51.221 4.577 A 50.803 50.803 0 0 0 50.864 5.473 A 59.9 59.9 0 0 0 50.094 7.579 A 58.249 58.249 0 0 0 49.958 7.977 A 52.981 52.981 0 0 0 49.117 10.707 A 45.693 45.693 0 0 0 48.775 12.005 A 35.812 35.812 0 0 0 48.427 13.559 Q 48.245 14.468 48.188 15.143 Z" vector-effect="non-scaling-stroke"/></g></svg>