<?xml version="1.0" standalone="no"?>
<!DOCTYPE svg PUBLIC "-//W3C//DTD SVG 20010904//EN"
 "http://www.w3.org/TR/2001/REC-SVG-20010904/DTD/svg10.dtd">
<svg width="55.269" height="18.009" viewBox="0 0 55.269 18.009" xmlns="http://www.w3.org/2000/svg"><g id="svgGroup" stroke-linecap="round" fill-rule="evenodd" font-size="9pt" stroke="#000" stroke-width="0.25mm" fill="none" style="stroke:#000;stroke-width:0.25mm;fill:none"><path stroke="white" d="M 29.049 8.786 L 29.187 7.337 A 54.881 54.881 0 0 1 29.247 6.527 Q 29.31 5.746 29.383 5.188 A 12.58 12.58 0 0 1 29.452 4.727 A 3.515 3.515 0 0 1 30.025 3.292 A 3.453 3.453 0 0 1 30.119 3.163 Q 30.618 2.508 31.641 2.378 A 3.722 3.722 0 0 1 31.717 2.369 A 0.82 0.82 0 0 1 31.783 2.359 Q 31.858 2.35 31.969 2.347 A 4.515 4.515 0 0 1 32.085 2.346 Q 32.492 2.346 32.667 2.451 A 0.243 0.243 0 0 1 32.798 2.668 Q 32.798 2.796 32.669 2.895 A 0.549 0.549 0 0 1 32.649 2.91 A 0.606 0.606 0 0 1 32.501 2.985 A 0.498 0.498 0 0 1 32.338 3.013 L 32.108 2.99 L 31.901 2.967 Q 31.51 2.967 31.2 3.22 A 1.533 1.533 0 0 0 30.919 3.525 Q 30.814 3.673 30.726 3.859 A 2.828 2.828 0 0 0 30.682 3.956 Q 30.199 5.106 30.061 6.21 Q 29.877 7.659 29.831 8.74 L 29.808 10.511 A 30.18 30.18 0 0 0 29.812 11.039 Q 29.825 11.776 29.877 12.19 A 1.041 1.041 0 0 1 29.972 12.385 Q 30.045 12.581 30.084 12.865 A 3.832 3.832 0 0 1 30.096 12.961 A 13.154 13.154 0 0 1 30.124 13.243 Q 30.165 13.702 30.199 14.375 A 8.554 8.554 0 0 0 30.25 14.945 Q 30.305 15.391 30.406 15.744 A 1.978 1.978 0 0 0 30.752 16.433 A 1.884 1.884 0 0 0 30.981 16.675 Q 31.387 17.02 32.062 17.061 A 3.075 3.075 0 0 0 32.246 17.066 A 0.916 0.916 0 0 0 32.747 16.93 Q 32.927 16.816 33.056 16.606 A 1.594 1.594 0 0 0 33.189 16.33 Q 33.511 15.548 33.557 14.72 A 37.786 37.786 0 0 0 33.599 13.989 Q 33.613 13.703 33.619 13.449 A 18.066 18.066 0 0 0 33.626 12.972 L 33.626 11.707 Q 33.396 11.477 32.821 11.477 L 32.637 11.477 A 1.161 1.161 0 0 1 32.5 11.496 A 1.485 1.485 0 0 1 32.384 11.5 Q 32.056 11.5 31.923 11.403 A 0.21 0.21 0 0 1 31.832 11.224 A 0.385 0.385 0 0 1 31.876 11.035 Q 31.963 10.877 32.225 10.843 A 1.227 1.227 0 0 1 32.384 10.833 Q 32.775 10.833 33.028 10.856 L 33.534 10.879 A 6.262 6.262 0 0 1 33.789 10.924 Q 34.033 10.973 34.201 11.032 A 1.788 1.788 0 0 1 34.224 11.04 A 0.843 0.843 0 0 1 34.33 11.083 Q 34.5 11.167 34.5 11.293 Q 34.5 11.543 34.404 11.969 A 7.889 7.889 0 0 1 34.362 12.144 A 16.639 16.639 0 0 0 34.314 12.423 Q 34.259 12.768 34.249 12.949 A 1.295 1.295 0 0 0 34.247 13.018 Q 34.247 13.984 34.293 14.766 A 54.368 54.368 0 0 1 34.31 15.611 A 71.391 71.391 0 0 1 34.316 16.537 Q 33.549 17.319 32.782 17.59 A 2.426 2.426 0 0 1 31.97 17.733 A 7.058 7.058 0 0 1 31.422 17.713 Q 30.893 17.672 30.553 17.544 A 1.553 1.553 0 0 1 30.406 17.48 Q 29.9 17.227 29.659 16.503 A 5.157 5.157 0 0 1 29.541 16.086 Q 29.371 15.381 29.233 14.191 Q 28.957 11.868 28.957 10.58 Q 28.957 9.908 29.025 9.066 A 27.758 27.758 0 0 1 29.049 8.786 Z M 0.023 7.728 L 0.023 6.509 A 23.446 23.446 0 0 1 0.006 5.951 A 31.434 31.434 0 0 1 0 5.336 Q 0 4.14 0.138 2.967 Q 0.23 2.392 0.38 1.978 A 3.314 3.314 0 0 1 0.706 1.32 A 3.808 3.808 0 0 1 0.805 1.173 A 2.337 2.337 0 0 1 1.99 0.241 A 3.14 3.14 0 0 1 2.323 0.138 A 4.173 4.173 0 0 1 2.955 0.026 A 5.354 5.354 0 0 1 3.496 0 A 1.644 1.644 0 0 1 4.073 0.108 A 2.172 2.172 0 0 1 4.382 0.253 A 1.37 1.37 0 0 1 4.578 0.385 Q 4.83 0.592 4.83 0.851 A 0.241 0.241 0 0 1 4.798 0.978 Q 4.74 1.074 4.574 1.097 A 0.83 0.83 0 0 1 4.462 1.104 Q 4.341 1.104 4.028 0.981 A 5.944 5.944 0 0 1 3.933 0.943 A 2.047 2.047 0 0 0 3.685 0.845 Q 3.554 0.804 3.434 0.789 A 1.031 1.031 0 0 0 3.312 0.782 A 2.698 2.698 0 0 0 2.596 0.874 A 2.329 2.329 0 0 0 2.151 1.047 A 2.296 2.296 0 0 0 1.613 1.421 A 2.015 2.015 0 0 0 1.334 1.748 A 2.374 2.374 0 0 0 1.154 2.063 Q 1.012 2.358 0.897 2.76 Q 0.713 3.404 0.667 4.048 A 8.601 8.601 0 0 0 0.625 4.512 Q 0.608 4.77 0.602 5.063 A 16.957 16.957 0 0 0 0.598 5.428 L 0.621 6.716 Q 0.644 7.268 0.644 7.912 Q 0.644 9.127 0.833 11.218 A 97.42 97.42 0 0 0 0.966 12.581 Q 1.273 15.524 1.56 16.097 A 0.618 0.618 0 0 0 1.587 16.146 Q 1.863 16.583 2.404 16.813 Q 2.944 17.043 3.542 17.043 A 2.683 2.683 0 0 0 4.182 16.971 A 1.769 1.769 0 0 0 5.152 16.376 A 1.018 1.018 0 0 1 5.264 16.249 Q 5.42 16.1 5.589 16.1 A 0.173 0.173 0 0 1 5.754 16.198 Q 5.793 16.271 5.796 16.399 A 0.948 0.948 0 0 1 5.796 16.422 Q 5.796 16.836 5.543 17.147 A 1.453 1.453 0 0 1 5.108 17.503 A 1.895 1.895 0 0 1 4.853 17.618 A 3.887 3.887 0 0 1 3.513 17.932 A 4.578 4.578 0 0 1 3.243 17.94 A 1.881 1.881 0 0 1 2.592 17.817 Q 2.248 17.691 1.886 17.434 A 3.63 3.63 0 0 1 1.358 16.983 A 2.595 2.595 0 0 1 0.874 16.284 A 2.053 2.053 0 0 1 0.761 15.934 Q 0.54 15.037 0.311 12.489 Q 0.026 9.321 0.023 7.756 A 17.338 17.338 0 0 1 0.023 7.728 Z M 44.551 16.836 L 45.218 16.836 L 45.862 16.859 A 2.63 2.63 0 0 0 46.01 16.855 Q 46.224 16.843 46.312 16.793 A 0.181 0.181 0 0 0 46.334 16.779 Q 46.437 16.698 46.437 16.399 Q 46.437 12.72 46.199 7.848 A 311.513 311.513 0 0 0 45.931 3.151 L 45.931 2.415 L 45.954 1.679 A 3.113 3.113 0 0 0 45.95 1.509 Q 45.941 1.354 45.916 1.253 A 0.519 0.519 0 0 0 45.885 1.162 Q 45.816 1.012 45.609 0.966 Q 45.405 0.921 44.913 0.92 A 10.884 10.884 0 0 0 44.896 0.92 Q 44.758 0.92 44.643 0.943 L 44.367 0.966 A 0.905 0.905 0 0 1 44.234 0.957 Q 44.07 0.933 44.01 0.841 A 0.229 0.229 0 0 1 43.976 0.713 A 0.184 0.184 0 0 1 44.041 0.571 A 0.319 0.319 0 0 1 44.103 0.529 Q 44.2 0.476 44.347 0.45 A 1.405 1.405 0 0 1 44.436 0.437 A 2.34 2.34 0 0 1 44.598 0.421 Q 45.003 0.393 46.066 0.391 A 89.996 89.996 0 0 1 46.253 0.391 A 0.367 0.367 0 0 1 46.391 0.416 A 0.339 0.339 0 0 1 46.518 0.506 A 0.426 0.426 0 0 1 46.588 0.611 A 0.347 0.347 0 0 1 46.621 0.759 L 46.621 1.472 A 21.142 21.142 0 0 0 46.625 1.875 Q 46.638 2.547 46.69 3.634 L 46.736 5.819 Q 46.736 6.232 46.853 8.306 A 450.663 450.663 0 0 0 46.897 9.062 Q 47.034 12.039 47.035 13.511 A 30.561 30.561 0 0 1 47.035 13.524 L 47.035 13.823 L 47.104 15.088 L 47.15 16.422 L 47.127 16.606 L 47.104 16.767 L 47.196 16.836 L 47.725 16.79 A 4.47 4.47 0 0 1 47.967 16.773 A 5.832 5.832 0 0 1 48.231 16.767 Q 48.638 16.767 48.813 16.872 A 0.243 0.243 0 0 1 48.944 17.089 Q 48.944 17.399 48.474 17.411 A 1.505 1.505 0 0 1 48.438 17.411 L 46.598 17.457 Q 45.678 17.503 44.735 17.503 Q 44.612 17.503 44.53 17.462 A 0.273 0.273 0 0 1 44.459 17.411 A 0.245 0.245 0 0 1 44.408 17.331 Q 44.376 17.256 44.369 17.137 A 1.205 1.205 0 0 1 44.367 17.066 A 0.164 0.164 0 0 1 44.367 17.064 Q 44.368 16.996 44.425 16.917 A 0.272 0.272 0 0 1 44.457 16.878 Q 44.501 16.836 44.551 16.836 Z M 50.876 16.836 L 51.543 16.836 L 52.187 16.859 A 2.63 2.63 0 0 0 52.335 16.855 Q 52.549 16.843 52.637 16.793 A 0.181 0.181 0 0 0 52.659 16.779 Q 52.762 16.698 52.762 16.399 Q 52.762 12.72 52.524 7.848 A 311.513 311.513 0 0 0 52.256 3.151 L 52.256 2.415 L 52.279 1.679 A 3.113 3.113 0 0 0 52.275 1.509 Q 52.266 1.354 52.241 1.253 A 0.519 0.519 0 0 0 52.21 1.162 Q 52.141 1.012 51.934 0.966 Q 51.73 0.921 51.238 0.92 A 10.884 10.884 0 0 0 51.221 0.92 Q 51.083 0.92 50.968 0.943 L 50.692 0.966 A 0.905 0.905 0 0 1 50.559 0.957 Q 50.395 0.933 50.335 0.841 A 0.229 0.229 0 0 1 50.301 0.713 A 0.184 0.184 0 0 1 50.366 0.571 A 0.319 0.319 0 0 1 50.428 0.529 Q 50.525 0.476 50.672 0.45 A 1.405 1.405 0 0 1 50.761 0.437 A 2.34 2.34 0 0 1 50.923 0.421 Q 51.328 0.393 52.391 0.391 A 89.996 89.996 0 0 1 52.578 0.391 A 0.367 0.367 0 0 1 52.716 0.416 A 0.339 0.339 0 0 1 52.843 0.506 A 0.426 0.426 0 0 1 52.913 0.611 A 0.347 0.347 0 0 1 52.946 0.759 L 52.946 1.472 A 21.142 21.142 0 0 0 52.95 1.875 Q 52.963 2.547 53.015 3.634 L 53.061 5.819 Q 53.061 6.232 53.178 8.306 A 450.663 450.663 0 0 0 53.222 9.062 Q 53.359 12.039 53.36 13.511 A 30.561 30.561 0 0 1 53.36 13.524 L 53.36 13.823 L 53.429 15.088 L 53.475 16.422 L 53.452 16.606 L 53.429 16.767 L 53.521 16.836 L 54.05 16.79 A 4.47 4.47 0 0 1 54.292 16.773 A 5.832 5.832 0 0 1 54.556 16.767 Q 54.963 16.767 55.138 16.872 A 0.243 0.243 0 0 1 55.269 17.089 Q 55.269 17.399 54.799 17.411 A 1.505 1.505 0 0 1 54.763 17.411 L 52.923 17.457 Q 52.003 17.503 51.06 17.503 Q 50.937 17.503 50.855 17.462 A 0.273 0.273 0 0 1 50.784 17.411 A 0.245 0.245 0 0 1 50.733 17.331 Q 50.701 17.256 50.694 17.137 A 1.205 1.205 0 0 1 50.692 17.066 A 0.164 0.164 0 0 1 50.692 17.064 Q 50.693 16.996 50.75 16.917 A 0.272 0.272 0 0 1 50.782 16.878 Q 50.826 16.836 50.876 16.836 Z M 24.242 17.365 L 24.058 17.365 Q 23.668 17.365 23.497 17.229 A 0.348 0.348 0 0 1 23.414 17.135 A 0.272 0.272 0 0 1 23.485 16.953 Q 23.517 16.915 23.565 16.881 A 0.633 0.633 0 0 1 23.598 16.859 L 23.713 16.744 L 24.38 16.744 L 24.472 16.652 L 24.518 16.445 L 24.541 16.169 A 48.905 48.905 0 0 0 24.526 14.919 Q 24.509 14.249 24.472 13.662 L 24.426 12.811 L 24.38 11.132 A 33.109 33.109 0 0 1 24.384 10.627 Q 24.393 10.049 24.42 9.233 A 155.809 155.809 0 0 1 24.449 8.441 L 24.495 5.773 A 44.21 44.21 0 0 0 24.488 4.951 Q 24.466 3.795 24.38 3.105 A 0.945 0.945 0 0 0 24.251 3.073 Q 24.111 3.048 23.902 3.04 A 5.484 5.484 0 0 0 23.69 3.036 L 23.437 3.059 A 1.683 1.683 0 0 1 23.256 3.079 A 2.08 2.08 0 0 1 23.138 3.082 Q 22.765 3.082 22.71 2.797 A 0.564 0.564 0 0 1 22.701 2.691 Q 22.701 2.602 22.896 2.513 A 1.177 1.177 0 0 1 22.908 2.507 A 1.479 1.479 0 0 1 23.031 2.458 Q 23.158 2.415 23.253 2.415 Q 24.127 2.415 25.001 2.507 A 3.686 3.686 0 0 1 26.026 2.703 A 4.108 4.108 0 0 1 26.059 2.714 A 1.205 1.205 0 0 1 26.22 2.78 Q 26.4 2.871 26.452 2.997 A 0.282 0.282 0 0 1 26.473 3.105 Q 26.473 3.143 26.426 3.244 A 1.898 1.898 0 0 1 26.404 3.289 L 25.875 3.335 A 0.401 0.401 0 0 0 25.757 3.268 Q 25.573 3.197 25.212 3.197 A 2.475 2.475 0 0 0 25.208 3.197 L 25.093 3.266 A 0.726 0.726 0 0 1 25.118 3.383 Q 25.161 3.674 25.162 4.458 A 29.458 29.458 0 0 1 25.162 4.485 Q 25.162 6.003 25.139 7.222 L 25.093 9.959 A 29.24 29.24 0 0 0 25.106 10.797 Q 25.117 11.171 25.136 11.589 A 58.328 58.328 0 0 0 25.185 12.466 A 133.356 133.356 0 0 1 25.215 13.254 Q 25.242 14.013 25.25 14.552 A 28.948 28.948 0 0 1 25.254 14.996 L 25.254 15.295 Q 25.239 15.403 25.233 15.553 A 4.625 4.625 0 0 0 25.231 15.709 Q 25.231 16.238 25.3 16.353 L 25.277 16.399 Q 25.277 16.629 25.783 16.629 A 3.095 3.095 0 0 0 25.923 16.626 Q 26.04 16.621 26.128 16.606 L 26.473 16.606 Q 27.14 16.606 27.14 16.928 A 0.504 0.504 0 0 1 27.117 17.083 A 0.408 0.408 0 0 1 27.002 17.262 Q 26.864 17.388 26.634 17.388 Q 26.43 17.388 26.271 17.344 A 0.981 0.981 0 0 1 26.266 17.342 A 2.997 2.997 0 0 0 26.002 17.321 A 3.537 3.537 0 0 0 25.875 17.319 A 0.495 0.495 0 0 0 25.788 17.328 Q 25.66 17.351 25.461 17.434 Q 25.185 17.572 25.047 17.572 A 1.875 1.875 0 0 1 24.85 17.563 Q 24.499 17.525 24.426 17.342 A 0.948 0.948 0 0 0 24.359 17.344 Q 24.289 17.349 24.242 17.365 Z M 7.544 9.545 L 7.544 8.74 A 38.927 38.927 0 0 1 7.584 6.891 Q 7.803 2.323 9.2 2.323 A 0.541 0.541 0 0 1 9.276 2.329 Q 9.354 2.34 9.459 2.372 A 2.322 2.322 0 0 1 9.522 2.392 Q 10.258 2.645 10.971 2.714 A 0.736 0.736 0 0 1 11.258 2.851 Q 11.479 3.016 11.7 3.363 A 4.142 4.142 0 0 1 11.845 3.611 A 4.807 4.807 0 0 1 12.195 4.363 Q 12.339 4.752 12.449 5.214 A 10.218 10.218 0 0 1 12.57 5.796 Q 12.811 7.153 12.811 8.579 L 12.765 8.694 A 42.964 42.964 0 0 0 12.77 9.37 Q 12.775 9.688 12.785 9.971 A 25.179 25.179 0 0 0 12.788 10.051 L 12.811 11.431 A 25.759 25.759 0 0 1 12.788 12.538 Q 12.765 13.072 12.719 13.547 Q 12.601 14.767 12.348 15.701 A 8.58 8.58 0 0 1 12.259 16.008 A 6.033 6.033 0 0 1 12.081 16.478 Q 11.945 16.797 11.788 17.043 Q 11.523 17.457 11.132 17.733 Q 10.764 18.009 10.235 18.009 A 1.751 1.751 0 0 1 8.732 17.057 Q 7.544 15.17 7.544 9.545 Z M 36.754 9.545 L 36.754 8.74 A 38.927 38.927 0 0 1 36.794 6.891 Q 37.013 2.323 38.41 2.323 A 0.541 0.541 0 0 1 38.486 2.329 Q 38.564 2.34 38.669 2.372 A 2.322 2.322 0 0 1 38.732 2.392 Q 39.468 2.645 40.181 2.714 A 0.736 0.736 0 0 1 40.468 2.851 Q 40.689 3.016 40.91 3.363 A 4.142 4.142 0 0 1 41.055 3.611 A 4.807 4.807 0 0 1 41.405 4.363 Q 41.549 4.752 41.659 5.214 A 10.218 10.218 0 0 1 41.78 5.796 Q 42.021 7.153 42.021 8.579 L 41.975 8.694 A 42.964 42.964 0 0 0 41.98 9.37 Q 41.985 9.688 41.995 9.971 A 25.179 25.179 0 0 0 41.998 10.051 L 42.021 11.431 A 25.759 25.759 0 0 1 41.998 12.538 Q 41.975 13.072 41.929 13.547 Q 41.811 14.767 41.558 15.701 A 8.58 8.58 0 0 1 41.469 16.008 A 6.033 6.033 0 0 1 41.291 16.478 Q 41.155 16.797 40.998 17.043 Q 40.733 17.457 40.342 17.733 Q 39.974 18.009 39.445 18.009 A 1.751 1.751 0 0 1 37.942 17.057 Q 36.754 15.17 36.754 9.545 Z M 15.985 10.35 L 16.008 7.636 Q 16.008 5.898 15.917 3.342 A 212.912 212.912 0 0 0 15.916 3.312 A 0.606 0.606 0 0 1 15.752 3.083 A 0.617 0.617 0 0 1 15.709 2.852 A 0.308 0.308 0 0 1 15.744 2.714 Q 15.79 2.621 15.898 2.525 A 1.108 1.108 0 0 1 15.905 2.519 A 1.014 1.014 0 0 1 16.012 2.435 Q 16.141 2.349 16.253 2.346 A 0.303 0.303 0 0 1 16.261 2.346 A 0.382 0.382 0 0 1 16.466 2.408 Q 16.522 2.443 16.576 2.498 A 0.805 0.805 0 0 1 16.606 2.53 L 16.859 2.737 A 0.699 0.699 0 0 0 16.944 2.771 Q 17.088 2.821 17.362 2.87 A 6.937 6.937 0 0 0 17.388 2.875 Q 17.779 2.944 17.94 3.013 A 2.264 2.264 0 0 1 18.152 3.144 Q 18.355 3.283 18.613 3.506 A 10.393 10.393 0 0 1 18.86 3.726 Q 19.335 4.201 19.554 4.369 A 1.214 1.214 0 0 0 19.619 4.416 L 19.596 4.462 A 0.348 0.348 0 0 0 19.62 4.536 Q 19.671 4.659 19.828 4.894 A 8.268 8.268 0 0 0 19.941 5.06 Q 20.177 5.382 20.333 5.664 A 3.994 3.994 0 0 1 20.355 5.704 A 5.761 5.761 0 0 1 20.579 6.585 Q 20.723 7.392 20.723 8.441 Q 20.723 8.698 20.706 8.904 A 3.814 3.814 0 0 1 20.7 8.97 L 20.7 9.522 L 20.7 9.706 L 20.677 9.936 Q 20.677 10.223 20.736 10.43 A 0.959 0.959 0 0 0 20.815 10.626 Q 20.677 11.362 20.47 13.409 A 9.82 9.82 0 0 1 20.348 14.183 A 11.951 11.951 0 0 1 20.24 14.674 A 6.539 6.539 0 0 1 20.11 15.142 Q 19.993 15.505 19.849 15.778 Q 19.271 16.866 17.943 17.633 A 7.316 7.316 0 0 1 17.848 17.687 L 16.238 17.687 A 0.116 0.116 0 0 1 16.139 17.624 Q 16.054 17.489 16.054 17.066 Q 15.962 15.479 15.962 13.064 A 171.842 171.842 0 0 1 15.967 11.712 Q 15.973 10.985 15.985 10.35 Z M 11.845 5.819 L 11.753 5.635 L 11.799 5.52 A 3.044 3.044 0 0 0 11.649 4.55 A 2.656 2.656 0 0 0 11.236 3.772 A 2.146 2.146 0 0 0 10.82 3.353 A 1.552 1.552 0 0 0 9.867 3.036 A 1.644 1.644 0 0 0 9.378 3.103 Q 8.756 3.297 8.602 4.048 Q 8.567 4.312 8.532 4.752 A 33.092 33.092 0 0 0 8.51 5.037 Q 8.51 6.645 8.387 7.288 A 2.5 2.5 0 0 1 8.372 7.36 A 5.118 5.118 0 0 1 8.368 7.557 Q 8.355 7.872 8.308 8.387 A 32.843 32.843 0 0 1 8.303 8.441 L 8.257 9.522 A 19.096 19.096 0 0 0 8.261 9.943 Q 8.266 10.135 8.274 10.307 A 10.97 10.97 0 0 0 8.28 10.419 L 8.303 11.339 A 15.367 15.367 0 0 0 8.338 12.347 Q 8.384 13.034 8.487 13.823 A 20.786 20.786 0 0 0 8.597 14.554 Q 8.658 14.911 8.725 15.219 A 9.981 9.981 0 0 0 8.809 15.571 A 4.463 4.463 0 0 0 9.031 16.227 A 3.368 3.368 0 0 0 9.338 16.79 Q 9.54 17.114 9.783 17.248 A 0.734 0.734 0 0 0 10.143 17.342 A 1.134 1.134 0 0 0 11.046 16.896 Q 11.299 16.591 11.477 16.077 Q 11.914 14.789 12.006 13.455 Q 12.085 12.277 12.096 11.501 A 17.189 17.189 0 0 0 12.098 11.247 Q 12.098 10.327 11.96 8.533 A 154.89 154.89 0 0 1 11.912 7.666 Q 11.845 6.365 11.845 5.819 Z M 41.055 5.819 L 40.963 5.635 L 41.009 5.52 A 3.044 3.044 0 0 0 40.859 4.55 A 2.656 2.656 0 0 0 40.446 3.772 A 2.146 2.146 0 0 0 40.03 3.353 A 1.552 1.552 0 0 0 39.077 3.036 A 1.644 1.644 0 0 0 38.588 3.103 Q 37.966 3.297 37.812 4.048 Q 37.777 4.312 37.742 4.752 A 33.092 33.092 0 0 0 37.72 5.037 Q 37.72 6.645 37.597 7.288 A 2.5 2.5 0 0 1 37.582 7.36 A 5.118 5.118 0 0 1 37.578 7.557 Q 37.565 7.872 37.518 8.387 A 32.843 32.843 0 0 1 37.513 8.441 L 37.467 9.522 A 19.096 19.096 0 0 0 37.471 9.943 Q 37.476 10.135 37.484 10.307 A 10.97 10.97 0 0 0 37.49 10.419 L 37.513 11.339 A 15.367 15.367 0 0 0 37.548 12.347 Q 37.594 13.034 37.697 13.823 A 20.786 20.786 0 0 0 37.807 14.554 Q 37.868 14.911 37.935 15.219 A 9.981 9.981 0 0 0 38.019 15.571 A 4.463 4.463 0 0 0 38.241 16.227 A 3.368 3.368 0 0 0 38.548 16.79 Q 38.75 17.114 38.993 17.248 A 0.734 0.734 0 0 0 39.353 17.342 A 1.134 1.134 0 0 0 40.256 16.896 Q 40.509 16.591 40.687 16.077 Q 41.124 14.789 41.216 13.455 Q 41.295 12.277 41.306 11.501 A 17.189 17.189 0 0 0 41.308 11.247 Q 41.308 10.327 41.17 8.533 A 154.89 154.89 0 0 1 41.122 7.666 Q 41.055 6.365 41.055 5.819 Z M 17.043 17.02 L 17.756 17.02 A 3.579 3.579 0 0 1 17.883 16.882 Q 17.945 16.818 18.003 16.766 A 1.853 1.853 0 0 1 18.055 16.721 L 18.216 16.606 L 18.4 16.445 Q 20.01 14.996 20.01 10.925 L 20.01 10.488 A 2.997 2.997 0 0 1 19.989 10.224 A 3.537 3.537 0 0 1 19.987 10.097 L 19.895 7.774 Q 19.826 6.44 19.09 5.014 A 3.277 3.277 0 0 0 18.477 4.134 A 3.026 3.026 0 0 0 18.159 3.853 A 2.313 2.313 0 0 0 17.62 3.54 A 1.834 1.834 0 0 0 16.928 3.404 A 0.089 0.089 0 0 0 16.863 3.47 Q 16.683 3.867 16.657 6.623 A 107.081 107.081 0 0 0 16.652 7.659 A 151.312 151.312 0 0 0 16.691 11.173 Q 16.731 12.91 16.814 14.454 A 81.591 81.591 0 0 0 16.928 16.238 L 16.905 16.675 L 16.997 16.721 L 17.043 17.02 Z" vector-effect="non-scaling-stroke"/></g></svg>
